<svg width="218" height="195" viewBox="0 0 218 195" fill="none" xmlns="http://www.w3.org/2000/svg">
<path d="M1 53C1 40.8497 10.8497 31 23 31H78C90.1503 31 100 40.8497 100 53C100 65.1503 90.1503 75 78 75H23C10.8497 75 1 65.1503 1 53Z" fill="url(#paint0_linear)"/>
<path d="M26.9 51.444C26.628 51.1 26.304 50.828 25.928 50.628C25.552 50.42 25.18 50.316 24.812 50.316C24.388 50.316 24 50.424 23.648 50.64C23.304 50.848 23.032 51.14 22.832 51.516C22.632 51.884 22.532 52.296 22.532 52.752C22.532 53.208 22.632 53.624 22.832 54C23.032 54.368 23.304 54.66 23.648 54.876C24 55.084 24.388 55.188 24.812 55.188C25.156 55.188 25.516 55.1 25.892 54.924C26.268 54.748 26.604 54.508 26.9 54.204L28.184 55.584C27.728 56.064 27.184 56.448 26.552 56.736C25.928 57.016 25.308 57.156 24.692 57.156C23.86 57.156 23.108 56.964 22.436 56.58C21.764 56.196 21.236 55.672 20.852 55.008C20.468 54.344 20.276 53.6 20.276 52.776C20.276 51.96 20.472 51.224 20.864 50.568C21.256 49.912 21.792 49.396 22.472 49.02C23.16 48.644 23.928 48.456 24.776 48.456C25.4 48.456 26.016 48.588 26.624 48.852C27.232 49.108 27.748 49.46 28.172 49.908L26.9 51.444ZM29.1246 48.588H31.3206V55.128H34.8846V57H29.1246V48.588ZM35.8863 48.588H38.0823V57H35.8863V48.588ZM45.8023 51.444C45.5303 51.1 45.2063 50.828 44.8303 50.628C44.4543 50.42 44.0823 50.316 43.7143 50.316C43.2903 50.316 42.9023 50.424 42.5503 50.64C42.2063 50.848 41.9343 51.14 41.7343 51.516C41.5343 51.884 41.4343 52.296 41.4343 52.752C41.4343 53.208 41.5343 53.624 41.7343 54C41.9343 54.368 42.2063 54.66 42.5503 54.876C42.9023 55.084 43.2903 55.188 43.7143 55.188C44.0583 55.188 44.4183 55.1 44.7943 54.924C45.1703 54.748 45.5063 54.508 45.8023 54.204L47.0863 55.584C46.6303 56.064 46.0863 56.448 45.4543 56.736C44.8303 57.016 44.2103 57.156 43.5943 57.156C42.7623 57.156 42.0103 56.964 41.3383 56.58C40.6663 56.196 40.1383 55.672 39.7543 55.008C39.3703 54.344 39.1783 53.6 39.1783 52.776C39.1783 51.96 39.3743 51.224 39.7663 50.568C40.1583 49.912 40.6943 49.396 41.3743 49.02C42.0623 48.644 42.8303 48.456 43.6783 48.456C44.3023 48.456 44.9183 48.588 45.5263 48.852C46.1343 49.108 46.6503 49.46 47.0743 49.908L45.8023 51.444ZM56.1149 57H53.4869L51.2789 53.736L50.2229 54.912V57H48.0269V48.588H50.2229V52.236L53.3789 48.588H55.9229L52.8029 52.056L56.1149 57ZM59.6754 48.588H62.0634L64.4994 53.508L66.9234 48.588H69.3114V57H67.3674L67.3554 51.672L65.2074 56.16H63.7914L61.6314 51.672V57H59.6754V48.588ZM70.9488 48.588H77.5848V50.34H73.1448V51.912H77.1528V53.652L73.1448 53.664V55.248H77.7048V57H70.9488V48.588Z" fill="white"/>
<path opacity="0.5" d="M119 53C119 40.8497 128.85 31 141 31H196C208.15 31 218 40.8497 218 53C218 65.1503 208.15 75 196 75H141C128.85 75 119 65.1503 119 53Z" fill="url(#paint1_linear)"/>
<path d="M145.9 51.444C145.628 51.1 145.304 50.828 144.928 50.628C144.552 50.42 144.18 50.316 143.812 50.316C143.388 50.316 143 50.424 142.648 50.64C142.304 50.848 142.032 51.14 141.832 51.516C141.632 51.884 141.532 52.296 141.532 52.752C141.532 53.208 141.632 53.624 141.832 54C142.032 54.368 142.304 54.66 142.648 54.876C143 55.084 143.388 55.188 143.812 55.188C144.156 55.188 144.516 55.1 144.892 54.924C145.268 54.748 145.604 54.508 145.9 54.204L147.184 55.584C146.728 56.064 146.184 56.448 145.552 56.736C144.928 57.016 144.308 57.156 143.692 57.156C142.86 57.156 142.108 56.964 141.436 56.58C140.764 56.196 140.236 55.672 139.852 55.008C139.468 54.344 139.276 53.6 139.276 52.776C139.276 51.96 139.472 51.224 139.864 50.568C140.256 49.912 140.792 49.396 141.472 49.02C142.16 48.644 142.928 48.456 143.776 48.456C144.4 48.456 145.016 48.588 145.624 48.852C146.232 49.108 146.748 49.46 147.172 49.908L145.9 51.444ZM148.125 48.588H150.321V55.128H153.885V57H148.125V48.588ZM154.886 48.588H157.082V57H154.886V48.588ZM164.802 51.444C164.53 51.1 164.206 50.828 163.83 50.628C163.454 50.42 163.082 50.316 162.714 50.316C162.29 50.316 161.902 50.424 161.55 50.64C161.206 50.848 160.934 51.14 160.734 51.516C160.534 51.884 160.434 52.296 160.434 52.752C160.434 53.208 160.534 53.624 160.734 54C160.934 54.368 161.206 54.66 161.55 54.876C161.902 55.084 162.29 55.188 162.714 55.188C163.058 55.188 163.418 55.1 163.794 54.924C164.17 54.748 164.506 54.508 164.802 54.204L166.086 55.584C165.63 56.064 165.086 56.448 164.454 56.736C163.83 57.016 163.21 57.156 162.594 57.156C161.762 57.156 161.01 56.964 160.338 56.58C159.666 56.196 159.138 55.672 158.754 55.008C158.37 54.344 158.178 53.6 158.178 52.776C158.178 51.96 158.374 51.224 158.766 50.568C159.158 49.912 159.694 49.396 160.374 49.02C161.062 48.644 161.83 48.456 162.678 48.456C163.302 48.456 163.918 48.588 164.526 48.852C165.134 49.108 165.65 49.46 166.074 49.908L164.802 51.444ZM175.115 57H172.487L170.279 53.736L169.223 54.912V57H167.027V48.588H169.223V52.236L172.379 48.588H174.923L171.803 52.056L175.115 57ZM178.675 48.588H181.063L183.499 53.508L185.923 48.588H188.311V57H186.367L186.355 51.672L184.207 56.16H182.791L180.631 51.672V57H178.675V48.588ZM189.949 48.588H196.585V50.34H192.145V51.912H196.153V53.652L192.145 53.664V55.248H196.705V57H189.949V48.588Z" fill="white"/>
<path d="M1 127C1 115.402 10.402 106 22 106H77C88.598 106 98 115.402 98 127C98 138.598 88.598 148 77 148H22C10.402 148 1 138.598 1 127Z" stroke="url(#paint2_linear)" stroke-width="2"/>
<path d="M26.9 125.444C26.628 125.1 26.304 124.828 25.928 124.628C25.552 124.42 25.18 124.316 24.812 124.316C24.388 124.316 24 124.424 23.648 124.64C23.304 124.848 23.032 125.14 22.832 125.516C22.632 125.884 22.532 126.296 22.532 126.752C22.532 127.208 22.632 127.624 22.832 128C23.032 128.368 23.304 128.66 23.648 128.876C24 129.084 24.388 129.188 24.812 129.188C25.156 129.188 25.516 129.1 25.892 128.924C26.268 128.748 26.604 128.508 26.9 128.204L28.184 129.584C27.728 130.064 27.184 130.448 26.552 130.736C25.928 131.016 25.308 131.156 24.692 131.156C23.86 131.156 23.108 130.964 22.436 130.58C21.764 130.196 21.236 129.672 20.852 129.008C20.468 128.344 20.276 127.6 20.276 126.776C20.276 125.96 20.472 125.224 20.864 124.568C21.256 123.912 21.792 123.396 22.472 123.02C23.16 122.644 23.928 122.456 24.776 122.456C25.4 122.456 26.016 122.588 26.624 122.852C27.232 123.108 27.748 123.46 28.172 123.908L26.9 125.444ZM29.1246 122.588H31.3206V129.128H34.8846V131H29.1246V122.588ZM35.8863 122.588H38.0823V131H35.8863V122.588ZM45.8023 125.444C45.5303 125.1 45.2063 124.828 44.8303 124.628C44.4543 124.42 44.0823 124.316 43.7143 124.316C43.2903 124.316 42.9023 124.424 42.5503 124.64C42.2063 124.848 41.9343 125.14 41.7343 125.516C41.5343 125.884 41.4343 126.296 41.4343 126.752C41.4343 127.208 41.5343 127.624 41.7343 128C41.9343 128.368 42.2063 128.66 42.5503 128.876C42.9023 129.084 43.2903 129.188 43.7143 129.188C44.0583 129.188 44.4183 129.1 44.7943 128.924C45.1703 128.748 45.5063 128.508 45.8023 128.204L47.0863 129.584C46.6303 130.064 46.0863 130.448 45.4543 130.736C44.8303 131.016 44.2103 131.156 43.5943 131.156C42.7623 131.156 42.0103 130.964 41.3383 130.58C40.6663 130.196 40.1383 129.672 39.7543 129.008C39.3703 128.344 39.1783 127.6 39.1783 126.776C39.1783 125.96 39.3743 125.224 39.7663 124.568C40.1583 123.912 40.6943 123.396 41.3743 123.02C42.0623 122.644 42.8303 122.456 43.6783 122.456C44.3023 122.456 44.9183 122.588 45.5263 122.852C46.1343 123.108 46.6503 123.46 47.0743 123.908L45.8023 125.444ZM56.1149 131H53.4869L51.2789 127.736L50.2229 128.912V131H48.0269V122.588H50.2229V126.236L53.3789 122.588H55.9229L52.8029 126.056L56.1149 131ZM59.6754 122.588H62.0634L64.4994 127.508L66.9234 122.588H69.3114V131H67.3674L67.3554 125.672L65.2074 130.16H63.7914L61.6314 125.672V131H59.6754V122.588ZM70.9488 122.588H77.5848V124.34H73.1448V125.912H77.1528V127.652L73.1448 127.664V129.248H77.7048V131H70.9488V122.588Z" fill="#BC9CFF"/>
<path opacity="0.5" d="M120 127C120 115.402 129.402 106 141 106H196C207.598 106 217 115.402 217 127C217 138.598 207.598 148 196 148H141C129.402 148 120 138.598 120 127Z" stroke="url(#paint3_linear)" stroke-width="2"/>
<path d="M145.9 125.444C145.628 125.1 145.304 124.828 144.928 124.628C144.552 124.42 144.18 124.316 143.812 124.316C143.388 124.316 143 124.424 142.648 124.64C142.304 124.848 142.032 125.14 141.832 125.516C141.632 125.884 141.532 126.296 141.532 126.752C141.532 127.208 141.632 127.624 141.832 128C142.032 128.368 142.304 128.66 142.648 128.876C143 129.084 143.388 129.188 143.812 129.188C144.156 129.188 144.516 129.1 144.892 128.924C145.268 128.748 145.604 128.508 145.9 128.204L147.184 129.584C146.728 130.064 146.184 130.448 145.552 130.736C144.928 131.016 144.308 131.156 143.692 131.156C142.86 131.156 142.108 130.964 141.436 130.58C140.764 130.196 140.236 129.672 139.852 129.008C139.468 128.344 139.276 127.6 139.276 126.776C139.276 125.96 139.472 125.224 139.864 124.568C140.256 123.912 140.792 123.396 141.472 123.02C142.16 122.644 142.928 122.456 143.776 122.456C144.4 122.456 145.016 122.588 145.624 122.852C146.232 123.108 146.748 123.46 147.172 123.908L145.9 125.444ZM148.125 122.588H150.321V129.128H153.885V131H148.125V122.588ZM154.886 122.588H157.082V131H154.886V122.588ZM164.802 125.444C164.53 125.1 164.206 124.828 163.83 124.628C163.454 124.42 163.082 124.316 162.714 124.316C162.29 124.316 161.902 124.424 161.55 124.64C161.206 124.848 160.934 125.14 160.734 125.516C160.534 125.884 160.434 126.296 160.434 126.752C160.434 127.208 160.534 127.624 160.734 128C160.934 128.368 161.206 128.66 161.55 128.876C161.902 129.084 162.29 129.188 162.714 129.188C163.058 129.188 163.418 129.1 163.794 128.924C164.17 128.748 164.506 128.508 164.802 128.204L166.086 129.584C165.63 130.064 165.086 130.448 164.454 130.736C163.83 131.016 163.21 131.156 162.594 131.156C161.762 131.156 161.01 130.964 160.338 130.58C159.666 130.196 159.138 129.672 158.754 129.008C158.37 128.344 158.178 127.6 158.178 126.776C158.178 125.96 158.374 125.224 158.766 124.568C159.158 123.912 159.694 123.396 160.374 123.02C161.062 122.644 161.83 122.456 162.678 122.456C163.302 122.456 163.918 122.588 164.526 122.852C165.134 123.108 165.65 123.46 166.074 123.908L164.802 125.444ZM175.115 131H172.487L170.279 127.736L169.223 128.912V131H167.027V122.588H169.223V126.236L172.379 122.588H174.923L171.803 126.056L175.115 131ZM178.675 122.588H181.063L183.499 127.508L185.923 122.588H188.311V131H186.367L186.355 125.672L184.207 130.16H182.791L180.631 125.672V131H178.675V122.588ZM189.949 122.588H196.585V124.34H192.145V125.912H196.153V127.652L192.145 127.664V129.248H196.705V131H189.949V122.588Z" fill="#BC9CFF"/>
<path d="M6.016 192.144C5.16 192.144 4.384 191.96 3.688 191.592C3 191.216 2.456 190.7 2.056 190.044C1.664 189.38 1.468 188.632 1.468 187.8C1.468 186.968 1.664 186.224 2.056 185.568C2.456 184.904 3 184.388 3.688 184.02C4.384 183.644 5.164 183.456 6.028 183.456C6.756 183.456 7.412 183.584 7.996 183.84C8.588 184.096 9.084 184.464 9.484 184.944L8.236 186.096C7.668 185.44 6.964 185.112 6.124 185.112C5.604 185.112 5.14 185.228 4.732 185.46C4.324 185.684 4.004 186 3.772 186.408C3.548 186.816 3.436 187.28 3.436 187.8C3.436 188.32 3.548 188.784 3.772 189.192C4.004 189.6 4.324 189.92 4.732 190.152C5.14 190.376 5.604 190.488 6.124 190.488C6.964 190.488 7.668 190.156 8.236 189.492L9.484 190.644C9.084 191.132 8.588 191.504 7.996 191.76C7.404 192.016 6.744 192.144 6.016 192.144ZM10.7968 183.6H12.7408V190.416H16.9528V192H10.7968V183.6ZM18.039 183.6H19.983V192H18.039V183.6ZM25.9965 192.144C25.1405 192.144 24.3645 191.96 23.6685 191.592C22.9805 191.216 22.4365 190.7 22.0365 190.044C21.6445 189.38 21.4485 188.632 21.4485 187.8C21.4485 186.968 21.6445 186.224 22.0365 185.568C22.4365 184.904 22.9805 184.388 23.6685 184.02C24.3645 183.644 25.1445 183.456 26.0085 183.456C26.7365 183.456 27.3925 183.584 27.9765 183.84C28.5685 184.096 29.0645 184.464 29.4645 184.944L28.2165 186.096C27.6485 185.44 26.9445 185.112 26.1045 185.112C25.5845 185.112 25.1205 185.228 24.7125 185.46C24.3045 185.684 23.9845 186 23.7525 186.408C23.5285 186.816 23.4165 187.28 23.4165 187.8C23.4165 188.32 23.5285 188.784 23.7525 189.192C23.9845 189.6 24.3045 189.92 24.7125 190.152C25.1205 190.376 25.5845 190.488 26.1045 190.488C26.9445 190.488 27.6485 190.156 28.2165 189.492L29.4645 190.644C29.0645 191.132 28.5685 191.504 27.9765 191.76C27.3845 192.016 26.7245 192.144 25.9965 192.144ZM33.8373 188.7L32.7093 189.876V192H30.7773V183.6H32.7093V187.524L36.4293 183.6H38.5893L35.1093 187.344L38.7933 192H36.5253L33.8373 188.7ZM50.7025 192L50.6905 186.96L48.2185 191.112H47.3425L44.8825 187.068V192H43.0585V183.6H44.6665L47.8105 188.82L50.9065 183.6H52.5025L52.5265 192H50.7025ZM61.0234 190.44V192H54.5194V183.6H60.8674V185.16H56.4514V186.984H60.3514V188.496H56.4514V190.44H61.0234Z" fill="#BC9CFF"/>
<path d="M87.016 191.702C86.16 191.702 85.384 191.518 84.688 191.15C84 190.774 83.456 190.258 83.056 189.602C82.664 188.938 82.468 188.19 82.468 187.358C82.468 186.526 82.664 185.782 83.056 185.126C83.456 184.462 84 183.946 84.688 183.578C85.384 183.202 86.164 183.014 87.028 183.014C87.756 183.014 88.412 183.142 88.996 183.398C89.588 183.654 90.084 184.022 90.484 184.502L89.236 185.654C88.668 184.998 87.964 184.67 87.124 184.67C86.604 184.67 86.14 184.786 85.732 185.018C85.324 185.242 85.004 185.558 84.772 185.966C84.548 186.374 84.436 186.838 84.436 187.358C84.436 187.878 84.548 188.342 84.772 188.75C85.004 189.158 85.324 189.478 85.732 189.71C86.14 189.934 86.604 190.046 87.124 190.046C87.964 190.046 88.668 189.714 89.236 189.05L90.484 190.202C90.084 190.69 89.588 191.062 88.996 191.318C88.404 191.574 87.744 191.702 87.016 191.702ZM91.7968 183.158H93.7408V189.974H97.9528V191.558H91.7968V183.158ZM99.039 183.158H100.983V191.558H99.039V183.158ZM106.996 191.702C106.14 191.702 105.364 191.518 104.668 191.15C103.98 190.774 103.436 190.258 103.036 189.602C102.644 188.938 102.448 188.19 102.448 187.358C102.448 186.526 102.644 185.782 103.036 185.126C103.436 184.462 103.98 183.946 104.668 183.578C105.364 183.202 106.144 183.014 107.008 183.014C107.736 183.014 108.392 183.142 108.976 183.398C109.568 183.654 110.064 184.022 110.464 184.502L109.216 185.654C108.648 184.998 107.944 184.67 107.104 184.67C106.584 184.67 106.12 184.786 105.712 185.018C105.304 185.242 104.984 185.558 104.752 185.966C104.528 186.374 104.416 186.838 104.416 187.358C104.416 187.878 104.528 188.342 104.752 188.75C104.984 189.158 105.304 189.478 105.712 189.71C106.12 189.934 106.584 190.046 107.104 190.046C107.944 190.046 108.648 189.714 109.216 189.05L110.464 190.202C110.064 190.69 109.568 191.062 108.976 191.318C108.384 191.574 107.724 191.702 106.996 191.702ZM114.837 188.258L113.709 189.434V191.558H111.777V183.158H113.709V187.082L117.429 183.158H119.589L116.109 186.902L119.793 191.558H117.525L114.837 188.258ZM131.703 191.558L131.691 186.518L129.219 190.67H128.343L125.883 186.626V191.558H124.059V183.158H125.667L128.811 188.378L131.907 183.158H133.503L133.527 191.558H131.703ZM142.023 189.998V191.558H135.519V183.158H141.867V184.718H137.451V186.542H141.351V188.054H137.451V189.998H142.023Z" fill="#1F2041" fill-opacity="0.5"/>
<path d="M7.164 7.632C7.644 7.784 8.02 8.04 8.292 8.4C8.564 8.752 8.7 9.188 8.7 9.708C8.7 10.444 8.412 11.012 7.836 11.412C7.268 11.804 6.436 12 5.34 12H0.996V3.6H5.1C6.124 3.6 6.908 3.796 7.452 4.188C8.004 4.58 8.28 5.112 8.28 5.784C8.28 6.192 8.18 6.556 7.98 6.876C7.788 7.196 7.516 7.448 7.164 7.632ZM2.928 5.064V7.044H4.86C5.34 7.044 5.704 6.96 5.952 6.792C6.2 6.624 6.324 6.376 6.324 6.048C6.324 5.72 6.2 5.476 5.952 5.316C5.704 5.148 5.34 5.064 4.86 5.064H2.928ZM5.196 10.536C5.708 10.536 6.092 10.452 6.348 10.284C6.612 10.116 6.744 9.856 6.744 9.504C6.744 8.808 6.228 8.46 5.196 8.46H2.928V10.536H5.196ZM13.9038 12.144C12.7038 12.144 11.7678 11.812 11.0958 11.148C10.4318 10.484 10.0998 9.536 10.0998 8.304V3.6H12.0438V8.232C12.0438 9.736 12.6678 10.488 13.9158 10.488C14.5238 10.488 14.9878 10.308 15.3078 9.948C15.6278 9.58 15.7878 9.008 15.7878 8.232V3.6H17.7078V8.304C17.7078 9.536 17.3718 10.484 16.6998 11.148C16.0358 11.812 15.1038 12.144 13.9038 12.144ZM21.2282 5.184H18.5402V3.6H25.8602V5.184H23.1722V12H21.2282V5.184ZM28.7633 5.184H26.0753V3.6H33.3953V5.184H30.7073V12H28.7633V5.184ZM38.3921 12.144C37.5201 12.144 36.7321 11.956 36.0281 11.58C35.3321 11.204 34.7841 10.688 34.3841 10.032C33.9921 9.368 33.7961 8.624 33.7961 7.8C33.7961 6.976 33.9921 6.236 34.3841 5.58C34.7841 4.916 35.3321 4.396 36.0281 4.02C36.7321 3.644 37.5201 3.456 38.3921 3.456C39.2641 3.456 40.0481 3.644 40.7441 4.02C41.4401 4.396 41.9881 4.916 42.3881 5.58C42.7881 6.236 42.9881 6.976 42.9881 7.8C42.9881 8.624 42.7881 9.368 42.3881 10.032C41.9881 10.688 41.4401 11.204 40.7441 11.58C40.0481 11.956 39.2641 12.144 38.3921 12.144ZM38.3921 10.488C38.8881 10.488 39.3361 10.376 39.7361 10.152C40.1361 9.92 40.4481 9.6 40.6721 9.192C40.9041 8.784 41.0201 8.32 41.0201 7.8C41.0201 7.28 40.9041 6.816 40.6721 6.408C40.4481 6 40.1361 5.684 39.7361 5.46C39.3361 5.228 38.8881 5.112 38.3921 5.112C37.8961 5.112 37.4481 5.228 37.0481 5.46C36.6481 5.684 36.3321 6 36.1001 6.408C35.8761 6.816 35.7641 7.28 35.7641 7.8C35.7641 8.32 35.8761 8.784 36.1001 9.192C36.3321 9.6 36.6481 9.92 37.0481 10.152C37.4481 10.376 37.8961 10.488 38.3921 10.488ZM52.1531 3.6V12H50.5571L46.3691 6.9V12H44.4491V3.6H46.0571L50.2331 8.7V3.6H52.1531ZM56.9005 12.144C56.2365 12.144 55.5925 12.056 54.9685 11.88C54.3525 11.696 53.8565 11.46 53.4805 11.172L54.1405 9.708C54.5005 9.972 54.9285 10.184 55.4245 10.344C55.9205 10.504 56.4165 10.584 56.9125 10.584C57.4645 10.584 57.8725 10.504 58.1365 10.344C58.4005 10.176 58.5325 9.956 58.5325 9.684C58.5325 9.484 58.4525 9.32 58.2925 9.192C58.1405 9.056 57.9405 8.948 57.6925 8.868C57.4525 8.788 57.1245 8.7 56.7085 8.604C56.0685 8.452 55.5445 8.3 55.1365 8.148C54.7285 7.996 54.3765 7.752 54.0805 7.416C53.7925 7.08 53.6485 6.632 53.6485 6.072C53.6485 5.584 53.7805 5.144 54.0445 4.752C54.3085 4.352 54.7045 4.036 55.2325 3.804C55.7685 3.572 56.4205 3.456 57.1885 3.456C57.7245 3.456 58.2485 3.52 58.7605 3.648C59.2725 3.776 59.7205 3.96 60.1045 4.2L59.5045 5.676C58.7285 5.236 57.9525 5.016 57.1765 5.016C56.6325 5.016 56.2285 5.104 55.9645 5.28C55.7085 5.456 55.5805 5.688 55.5805 5.976C55.5805 6.264 55.7285 6.48 56.0245 6.624C56.3285 6.76 56.7885 6.896 57.4045 7.032C58.0445 7.184 58.5685 7.336 58.9765 7.488C59.3845 7.64 59.7325 7.88 60.0205 8.208C60.3165 8.536 60.4645 8.98 60.4645 9.54C60.4645 10.02 60.3285 10.46 60.0565 10.86C59.7925 11.252 59.3925 11.564 58.8565 11.796C58.3205 12.028 57.6685 12.144 56.9005 12.144Z" fill="#1F2041"/>
<defs>
<linearGradient id="paint0_linear" x1="50.5" y1="31" x2="50.5" y2="75" gradientUnits="userSpaceOnUse">
<stop stop-color="#BC9CFF"/>
<stop offset="1" stop-color="#8BA4F9"/>
</linearGradient>
<linearGradient id="paint1_linear" x1="168.5" y1="31" x2="168.5" y2="75" gradientUnits="userSpaceOnUse">
<stop stop-color="#BC9CFF"/>
<stop offset="1" stop-color="#8BA4F9"/>
</linearGradient>
<linearGradient id="paint2_linear" x1="49.5" y1="105" x2="49.5" y2="149" gradientUnits="userSpaceOnUse">
<stop stop-color="#BC9CFF"/>
<stop offset="1" stop-color="#8BA4F9"/>
</linearGradient>
<linearGradient id="paint3_linear" x1="168.5" y1="105" x2="168.5" y2="149" gradientUnits="userSpaceOnUse">
<stop stop-color="#BC9CFF"/>
<stop offset="1" stop-color="#8BA4F9"/>
</linearGradient>
</defs>
</svg>
