<svg width="320" height="65" viewBox="0 0 320 65" fill="none" xmlns="http://www.w3.org/2000/svg">
<rect y="20.4424" width="320" height="44" rx="4" fill="white"/>
<rect x="0.5" y="20.9424" width="319" height="43" rx="3.5" stroke="#1F2041" stroke-opacity="0.25"/>
<path d="M302.33 38.5781L303.736 39.9844L297.736 45.9844L291.736 39.9844L293.143 38.5781L297.736 43.1719L302.33 38.5781Z" fill="#1F2041" fill-opacity="0.5"/>
<path d="M0.996 4.04238H4.812C5.724 4.04238 6.528 4.21838 7.224 4.57038C7.928 4.91438 8.472 5.40238 8.856 6.03438C9.248 6.66638 9.444 7.40238 9.444 8.24238C9.444 9.08238 9.248 9.81838 8.856 10.4504C8.472 11.0824 7.928 11.5744 7.224 11.9264C6.528 12.2704 5.724 12.4424 4.812 12.4424H0.996V4.04238ZM4.716 10.8464C5.556 10.8464 6.224 10.6144 6.72 10.1504C7.224 9.67838 7.476 9.04238 7.476 8.24238C7.476 7.44238 7.224 6.81038 6.72 6.34638C6.224 5.87438 5.556 5.63838 4.716 5.63838H2.94V10.8464H4.716ZM16.2621 12.4424L14.6421 10.1024H14.5461H12.8541V12.4424H10.9101V4.04238H14.5461C15.2901 4.04238 15.9341 4.16638 16.4781 4.41438C17.0301 4.66238 17.4541 5.01438 17.7501 5.47038C18.0461 5.92638 18.1941 6.46638 18.1941 7.09038C18.1941 7.71438 18.0421 8.25438 17.7381 8.71038C17.4421 9.15838 17.0181 9.50238 16.4661 9.74238L18.3501 12.4424H16.2621ZM16.2261 7.09038C16.2261 6.61838 16.0741 6.25838 15.7701 6.01038C15.4661 5.75438 15.0221 5.62638 14.4381 5.62638H12.8541V8.55438H14.4381C15.0221 8.55438 15.4661 8.42638 15.7701 8.17038C16.0741 7.91438 16.2261 7.55438 16.2261 7.09038ZM23.8023 12.5864C22.9303 12.5864 22.1423 12.3984 21.4383 12.0224C20.7423 11.6464 20.1943 11.1304 19.7943 10.4744C19.4023 9.81038 19.2063 9.06638 19.2063 8.24238C19.2063 7.41838 19.4023 6.67838 19.7943 6.02238C20.1943 5.35838 20.7423 4.83838 21.4383 4.46238C22.1423 4.08638 22.9303 3.89838 23.8023 3.89838C24.6743 3.89838 25.4583 4.08638 26.1543 4.46238C26.8503 4.83838 27.3983 5.35838 27.7983 6.02238C28.1983 6.67838 28.3983 7.41838 28.3983 8.24238C28.3983 9.06638 28.1983 9.81038 27.7983 10.4744C27.3983 11.1304 26.8503 11.6464 26.1543 12.0224C25.4583 12.3984 24.6743 12.5864 23.8023 12.5864ZM23.8023 10.9304C24.2983 10.9304 24.7463 10.8184 25.1463 10.5944C25.5463 10.3624 25.8583 10.0424 26.0823 9.63438C26.3143 9.22638 26.4303 8.76238 26.4303 8.24238C26.4303 7.72238 26.3143 7.25838 26.0823 6.85038C25.8583 6.44238 25.5463 6.12638 25.1463 5.90238C24.7463 5.67038 24.2983 5.55438 23.8023 5.55438C23.3063 5.55438 22.8583 5.67038 22.4583 5.90238C22.0583 6.12638 21.7423 6.44238 21.5103 6.85038C21.2863 7.25838 21.1743 7.72238 21.1743 8.24238C21.1743 8.76238 21.2863 9.22638 21.5103 9.63438C21.7423 10.0424 22.0583 10.3624 22.4583 10.5944C22.8583 10.8184 23.3063 10.9304 23.8023 10.9304ZM33.4953 4.04238C34.2393 4.04238 34.8833 4.16638 35.4273 4.41438C35.9793 4.66238 36.4033 5.01438 36.6993 5.47038C36.9953 5.92638 37.1433 6.46638 37.1433 7.09038C37.1433 7.70638 36.9953 8.24638 36.6993 8.71038C36.4033 9.16638 35.9793 9.51838 35.4273 9.76638C34.8833 10.0064 34.2393 10.1264 33.4953 10.1264H31.8033V12.4424H29.8593V4.04238H33.4953ZM33.3873 8.54238C33.9713 8.54238 34.4153 8.41838 34.7193 8.17038C35.0233 7.91438 35.1753 7.55438 35.1753 7.09038C35.1753 6.61838 35.0233 6.25838 34.7193 6.01038C34.4153 5.75438 33.9713 5.62638 33.3873 5.62638H31.8033V8.54238H33.3873ZM38.5312 4.04238H42.3472C43.2592 4.04238 44.0632 4.21838 44.7592 4.57038C45.4632 4.91438 46.0072 5.40238 46.3912 6.03438C46.7832 6.66638 46.9792 7.40238 46.9792 8.24238C46.9792 9.08238 46.7832 9.81838 46.3912 10.4504C46.0072 11.0824 45.4632 11.5744 44.7592 11.9264C44.0632 12.2704 43.2592 12.4424 42.3472 12.4424H38.5312V4.04238ZM42.2512 10.8464C43.0912 10.8464 43.7592 10.6144 44.2552 10.1504C44.7592 9.67838 45.0112 9.04238 45.0112 8.24238C45.0112 7.44238 44.7592 6.81038 44.2552 6.34638C43.7592 5.87438 43.0912 5.63838 42.2512 5.63838H40.4752V10.8464H42.2512ZM52.5132 12.5864C51.6412 12.5864 50.8532 12.3984 50.1492 12.0224C49.4532 11.6464 48.9052 11.1304 48.5052 10.4744C48.1132 9.81038 47.9172 9.06638 47.9172 8.24238C47.9172 7.41838 48.1132 6.67838 48.5052 6.02238C48.9052 5.35838 49.4532 4.83838 50.1492 4.46238C50.8532 4.08638 51.6412 3.89838 52.5132 3.89838C53.3852 3.89838 54.1692 4.08638 54.8652 4.46238C55.5612 4.83838 56.1092 5.35838 56.5092 6.02238C56.9092 6.67838 57.1092 7.41838 57.1092 8.24238C57.1092 9.06638 56.9092 9.81038 56.5092 10.4744C56.1092 11.1304 55.5612 11.6464 54.8652 12.0224C54.1692 12.3984 53.3852 12.5864 52.5132 12.5864ZM52.5132 10.9304C53.0092 10.9304 53.4572 10.8184 53.8572 10.5944C54.2572 10.3624 54.5692 10.0424 54.7932 9.63438C55.0252 9.22638 55.1412 8.76238 55.1412 8.24238C55.1412 7.72238 55.0252 7.25838 54.7932 6.85038C54.5692 6.44238 54.2572 6.12638 53.8572 5.90238C53.4572 5.67038 53.0092 5.55438 52.5132 5.55438C52.0172 5.55438 51.5692 5.67038 51.1692 5.90238C50.7692 6.12638 50.4532 6.44238 50.2212 6.85038C49.9972 7.25838 49.8852 7.72238 49.8852 8.24238C49.8852 8.76238 49.9972 9.22638 50.2212 9.63438C50.4532 10.0424 50.7692 10.3624 51.1692 10.5944C51.5692 10.8184 52.0172 10.9304 52.5132 10.9304ZM70.985 4.04238L68.237 12.4424H66.149L64.301 6.75438L62.393 12.4424H60.317L57.557 4.04238H59.573L61.469 9.94638L63.449 4.04238H65.249L67.169 9.99438L69.125 4.04238H70.985ZM79.7742 4.04238V12.4424H78.1782L73.9902 7.34238V12.4424H72.0702V4.04238H73.6782L77.8542 9.14238V4.04238H79.7742Z" fill="#1F2041"/>
<path d="M20.936 46.5264C19.9653 46.5264 19.088 46.3117 18.304 45.8824C17.5293 45.453 16.918 44.8604 16.47 44.1044C16.0313 43.339 15.812 42.485 15.812 41.5424C15.812 40.5997 16.0313 39.7504 16.47 38.9944C16.918 38.229 17.534 37.6317 18.318 37.2024C19.102 36.773 19.9793 36.5584 20.95 36.5584C21.678 36.5584 22.35 36.6797 22.966 36.9224C23.582 37.165 24.1047 37.5197 24.534 37.9864L23.876 38.6444C23.1107 37.8697 22.1447 37.4824 20.978 37.4824C20.2033 37.4824 19.4987 37.6597 18.864 38.0144C18.2293 38.369 17.73 38.8544 17.366 39.4704C17.0113 40.0864 16.834 40.777 16.834 41.5424C16.834 42.3077 17.0113 42.9984 17.366 43.6144C17.73 44.2304 18.2293 44.7157 18.864 45.0704C19.4987 45.425 20.2033 45.6024 20.978 45.6024C22.154 45.6024 23.12 45.2104 23.876 44.4264L24.534 45.0844C24.1047 45.551 23.5773 45.9104 22.952 46.1624C22.336 46.405 21.664 46.5264 20.936 46.5264ZM29.1095 43.1664H27.4295V46.4424H26.4355V39.0784H27.4295V42.3124H29.1235L31.7135 39.0784H32.7915L29.8935 42.6484L33.0015 46.4424H31.8255L29.1095 43.1664ZM37.3485 46.5124C36.6392 46.5124 35.9998 46.3537 35.4305 46.0364C34.8612 45.7097 34.4132 45.2617 34.0865 44.6924C33.7598 44.123 33.5965 43.479 33.5965 42.7604C33.5965 42.0417 33.7598 41.3977 34.0865 40.8284C34.4132 40.259 34.8612 39.8157 35.4305 39.4984C35.9998 39.181 36.6392 39.0224 37.3485 39.0224C38.0578 39.0224 38.6972 39.181 39.2665 39.4984C39.8358 39.8157 40.2792 40.259 40.5965 40.8284C40.9232 41.3977 41.0865 42.0417 41.0865 42.7604C41.0865 43.479 40.9232 44.123 40.5965 44.6924C40.2792 45.2617 39.8358 45.7097 39.2665 46.0364C38.6972 46.3537 38.0578 46.5124 37.3485 46.5124ZM37.3485 45.6304C37.8712 45.6304 38.3378 45.5137 38.7485 45.2804C39.1685 45.0377 39.4952 44.697 39.7285 44.2584C39.9618 43.8197 40.0785 43.3204 40.0785 42.7604C40.0785 42.2004 39.9618 41.701 39.7285 41.2624C39.4952 40.8237 39.1685 40.4877 38.7485 40.2544C38.3378 40.0117 37.8712 39.8904 37.3485 39.8904C36.8258 39.8904 36.3545 40.0117 35.9345 40.2544C35.5238 40.4877 35.1972 40.8237 34.9545 41.2624C34.7212 41.701 34.6045 42.2004 34.6045 42.7604C34.6045 43.3204 34.7212 43.8197 34.9545 44.2584C35.1972 44.697 35.5238 45.0377 35.9345 45.2804C36.3545 45.5137 36.8258 45.6304 37.3485 45.6304ZM49.1899 39.0784V46.4424H48.1959V39.9604H44.6679L44.5699 41.7804C44.4952 43.311 44.3179 44.487 44.0379 45.3084C43.7579 46.1297 43.2585 46.5404 42.5399 46.5404C42.3439 46.5404 42.1059 46.503 41.8259 46.4284L41.8959 45.5744C42.0639 45.6117 42.1805 45.6304 42.2459 45.6304C42.6285 45.6304 42.9179 45.453 43.1139 45.0984C43.3099 44.7437 43.4405 44.305 43.5059 43.7824C43.5712 43.2597 43.6272 42.569 43.6739 41.7104L43.7999 39.0784H49.1899ZM55.1796 41.6824C56.1036 41.6917 56.8036 41.897 57.2796 42.2984C57.7649 42.6997 58.0076 43.2784 58.0076 44.0344C58.0076 44.8184 57.7462 45.4204 57.2236 45.8404C56.7102 46.2604 55.9636 46.4657 54.9836 46.4564L52.0156 46.4424V39.0784H53.0096V41.6544L55.1796 41.6824ZM54.9276 45.7004C55.6089 45.7097 56.1222 45.5744 56.4676 45.2944C56.8222 45.005 56.9996 44.585 56.9996 44.0344C56.9996 43.493 56.8269 43.0917 56.4816 42.8304C56.1362 42.569 55.6182 42.4337 54.9276 42.4244L53.0096 42.3964V45.6724L54.9276 45.7004ZM62.5782 43.1664H60.8982V46.4424H59.9042V39.0784H60.8982V42.3124H62.5922L65.1822 39.0784H66.2602L63.3622 42.6484L66.4702 46.4424H65.2942L62.5782 43.1664ZM70.8172 46.5124C70.1079 46.5124 69.4686 46.3537 68.8992 46.0364C68.3299 45.7097 67.8819 45.2617 67.5552 44.6924C67.2286 44.123 67.0652 43.479 67.0652 42.7604C67.0652 42.0417 67.2286 41.3977 67.5552 40.8284C67.8819 40.259 68.3299 39.8157 68.8992 39.4984C69.4686 39.181 70.1079 39.0224 70.8172 39.0224C71.5266 39.0224 72.1659 39.181 72.7352 39.4984C73.3046 39.8157 73.7479 40.259 74.0652 40.8284C74.3919 41.3977 74.5552 42.0417 74.5552 42.7604C74.5552 43.479 74.3919 44.123 74.0652 44.6924C73.7479 45.2617 73.3046 45.7097 72.7352 46.0364C72.1659 46.3537 71.5266 46.5124 70.8172 46.5124ZM70.8172 45.6304C71.3399 45.6304 71.8066 45.5137 72.2172 45.2804C72.6372 45.0377 72.9639 44.697 73.1972 44.2584C73.4306 43.8197 73.5472 43.3204 73.5472 42.7604C73.5472 42.2004 73.4306 41.701 73.1972 41.2624C72.9639 40.8237 72.6372 40.4877 72.2172 40.2544C71.8066 40.0117 71.3399 39.8904 70.8172 39.8904C70.2946 39.8904 69.8232 40.0117 69.4032 40.2544C68.9926 40.4877 68.6659 40.8237 68.4232 41.2624C68.1899 41.701 68.0732 42.2004 68.0732 42.7604C68.0732 43.3204 68.1899 43.8197 68.4232 44.2584C68.6659 44.697 68.9926 45.0377 69.4032 45.2804C69.8232 45.5137 70.2946 45.6304 70.8172 45.6304ZM85.5517 39.9604H81.3377V46.4424H80.3437V39.0784H85.5517V39.9604ZM89.6844 46.5124C88.9751 46.5124 88.3358 46.3537 87.7664 46.0364C87.1971 45.7097 86.7491 45.2617 86.4224 44.6924C86.0958 44.123 85.9324 43.479 85.9324 42.7604C85.9324 42.0417 86.0958 41.3977 86.4224 40.8284C86.7491 40.259 87.1971 39.8157 87.7664 39.4984C88.3358 39.181 88.9751 39.0224 89.6844 39.0224C90.3938 39.0224 91.0331 39.181 91.6024 39.4984C92.1718 39.8157 92.6151 40.259 92.9324 40.8284C93.2591 41.3977 93.4224 42.0417 93.4224 42.7604C93.4224 43.479 93.2591 44.123 92.9324 44.6924C92.6151 45.2617 92.1718 45.7097 91.6024 46.0364C91.0331 46.3537 90.3938 46.5124 89.6844 46.5124ZM89.6844 45.6304C90.2071 45.6304 90.6738 45.5137 91.0844 45.2804C91.5044 45.0377 91.8311 44.697 92.0644 44.2584C92.2978 43.8197 92.4144 43.3204 92.4144 42.7604C92.4144 42.2004 92.2978 41.701 92.0644 41.2624C91.8311 40.8237 91.5044 40.4877 91.0844 40.2544C90.6738 40.0117 90.2071 39.8904 89.6844 39.8904C89.1618 39.8904 88.6904 40.0117 88.2704 40.2544C87.8598 40.4877 87.5331 40.8237 87.2904 41.2624C87.0571 41.701 86.9404 42.2004 86.9404 42.7604C86.9404 43.3204 87.0571 43.8197 87.2904 44.2584C87.5331 44.697 87.8598 45.0377 88.2704 45.2804C88.6904 45.5137 89.1618 45.6304 89.6844 45.6304ZM98.6268 46.5124C97.8988 46.5124 97.2455 46.3537 96.6668 46.0364C96.0975 45.719 95.6495 45.2757 95.3228 44.7064C94.9961 44.1277 94.8328 43.479 94.8328 42.7604C94.8328 42.0417 94.9961 41.3977 95.3228 40.8284C95.6495 40.259 96.0975 39.8157 96.6668 39.4984C97.2455 39.181 97.8988 39.0224 98.6268 39.0224C99.2615 39.0224 99.8261 39.1484 100.321 39.4004C100.825 39.643 101.221 40.0024 101.511 40.4784L100.769 40.9824C100.526 40.6184 100.218 40.3477 99.8448 40.1704C99.4715 39.9837 99.0655 39.8904 98.6268 39.8904C98.0948 39.8904 97.6141 40.0117 97.1848 40.2544C96.7648 40.4877 96.4335 40.8237 96.1908 41.2624C95.9575 41.701 95.8408 42.2004 95.8408 42.7604C95.8408 43.3297 95.9575 43.8337 96.1908 44.2724C96.4335 44.7017 96.7648 45.0377 97.1848 45.2804C97.6141 45.5137 98.0948 45.6304 98.6268 45.6304C99.0655 45.6304 99.4715 45.5417 99.8448 45.3644C100.218 45.187 100.526 44.9164 100.769 44.5524L101.511 45.0564C101.221 45.5324 100.825 45.8964 100.321 46.1484C99.8168 46.391 99.2521 46.5124 98.6268 46.5124ZM108.479 39.9604H105.693V46.4424H104.699V39.9604H101.913V39.0784H108.479V39.9604ZM116.014 43.0684H109.854C109.91 43.8337 110.204 44.4544 110.736 44.9304C111.268 45.397 111.94 45.6304 112.752 45.6304C113.209 45.6304 113.629 45.551 114.012 45.3924C114.395 45.2244 114.726 44.9817 115.006 44.6644L115.566 45.3084C115.239 45.7004 114.829 45.999 114.334 46.2044C113.849 46.4097 113.312 46.5124 112.724 46.5124C111.968 46.5124 111.296 46.3537 110.708 46.0364C110.129 45.7097 109.677 45.2617 109.35 44.6924C109.023 44.123 108.86 43.479 108.86 42.7604C108.86 42.0417 109.014 41.3977 109.322 40.8284C109.639 40.259 110.069 39.8157 110.61 39.4984C111.161 39.181 111.777 39.0224 112.458 39.0224C113.139 39.0224 113.751 39.181 114.292 39.4984C114.833 39.8157 115.258 40.259 115.566 40.8284C115.874 41.3884 116.028 42.0324 116.028 42.7604L116.014 43.0684ZM112.458 39.8764C111.749 39.8764 111.151 40.105 110.666 40.5624C110.19 41.0104 109.919 41.5984 109.854 42.3264H115.076C115.011 41.5984 114.735 41.0104 114.25 40.5624C113.774 40.105 113.177 39.8764 112.458 39.8764ZM118.228 39.0784H119.222V44.9304L124.136 39.0784H125.018V46.4424H124.024V40.5904L119.124 46.4424H118.228V39.0784ZM121.574 38.0144C120.94 38.0144 120.436 37.8557 120.062 37.5384C119.689 37.221 119.498 36.773 119.488 36.1944H120.202C120.212 36.5584 120.342 36.8524 120.594 37.0764C120.846 37.291 121.173 37.3984 121.574 37.3984C121.976 37.3984 122.302 37.291 122.554 37.0764C122.816 36.8524 122.951 36.5584 122.96 36.1944H123.674C123.665 36.773 123.469 37.221 123.086 37.5384C122.713 37.8557 122.209 38.0144 121.574 38.0144Z" fill="#1F2041" fill-opacity="0.75"/>
</svg>
