<svg width="92" height="31" viewBox="0 0 92 31" fill="none" xmlns="http://www.w3.org/2000/svg">
<path d="M49.2049 16.9736V18.5576H42.8569V17.2976L46.0969 14.2376C46.4409 13.9096 46.6729 13.6296 46.7929 13.3976C46.9129 13.1576 46.9729 12.9216 46.9729 12.6896C46.9729 12.3536 46.8569 12.0976 46.6249 11.9216C46.4009 11.7376 46.0689 11.6456 45.6289 11.6456C45.2609 11.6456 44.9289 11.7176 44.6329 11.8616C44.3369 11.9976 44.0889 12.2056 43.8889 12.4856L42.4729 11.5736C42.8009 11.0856 43.2529 10.7056 43.8289 10.4336C44.4049 10.1536 45.0649 10.0136 45.8089 10.0136C46.4329 10.0136 46.9769 10.1176 47.4409 10.3256C47.9129 10.5256 48.2769 10.8136 48.5329 11.1896C48.7969 11.5576 48.9289 11.9936 48.9289 12.4976C48.9289 12.9536 48.8329 13.3816 48.6409 13.7816C48.4489 14.1816 48.0769 14.6376 47.5249 15.1496L45.5929 16.9736H49.2049Z" fill="#1F2041"/>
<path d="M62.5 15.5576C62.5 7.54949 68.9919 1.05762 77 1.05762C85.0081 1.05762 91.5 7.54949 91.5 15.5576C91.5 23.5657 85.0081 30.0576 77 30.0576C68.9919 30.0576 62.5 23.5657 62.5 15.5576Z" stroke="#1F2041" stroke-opacity="0.25"/>
<path d="M80.9132 15.7976H77.5652V19.0736H76.4312V15.7976H73.0832V14.7356H76.4312V11.4416H77.5652V14.7356H80.9132V15.7976Z" fill="#1F2041" fill-opacity="0.5"/>
<path d="M0.5 15.5576C0.5 7.54949 6.99187 1.05762 15 1.05762C23.0081 1.05762 29.5 7.54949 29.5 15.5576C29.5 23.5657 23.0081 30.0576 15 30.0576C6.99187 30.0576 0.5 23.5657 0.5 15.5576Z" stroke="#1F2041" stroke-opacity="0.25"/>
<path d="M12.6435 16.1216H17.3595V17.2376H12.6435V16.1216Z" fill="#1F2041" fill-opacity="0.5"/>
</svg>
