<svg width="150" height="65" viewBox="0 0 150 65" fill="none" xmlns="http://www.w3.org/2000/svg">
<rect y="20.4424" width="150" height="44" rx="4" fill="white"/>
<rect x="0.5" y="20.9424" width="149" height="43" rx="3.5" stroke="#1F2041" stroke-opacity="0.25"/>
<path d="M0.996 3.6H4.812C5.724 3.6 6.528 3.776 7.224 4.128C7.928 4.472 8.472 4.96 8.856 5.592C9.248 6.224 9.444 6.96 9.444 7.8C9.444 8.64 9.248 9.376 8.856 10.008C8.472 10.64 7.928 11.132 7.224 11.484C6.528 11.828 5.724 12 4.812 12H0.996V3.6ZM4.716 10.404C5.556 10.404 6.224 10.172 6.72 9.708C7.224 9.236 7.476 8.6 7.476 7.8C7.476 7 7.224 6.368 6.72 5.904C6.224 5.432 5.556 5.196 4.716 5.196H2.94V10.404H4.716ZM16.3249 10.2H12.4249L11.6809 12H9.68887L13.4329 3.6H15.3529L19.1089 12H17.0689L16.3249 10.2ZM15.7129 8.724L14.3809 5.508L13.0489 8.724H15.7129ZM21.2985 5.184H18.6105V3.6H25.9305V5.184H23.2425V12H21.2985V5.184ZM33.4805 10.44V12H26.9765V3.6H33.3245V5.16H28.9085V6.984H32.8085V8.496H28.9085V10.44H33.4805ZM38.4257 3.6H42.2417C43.1537 3.6 43.9577 3.776 44.6537 4.128C45.3577 4.472 45.9017 4.96 46.2857 5.592C46.6777 6.224 46.8737 6.96 46.8737 7.8C46.8737 8.64 46.6777 9.376 46.2857 10.008C45.9017 10.64 45.3577 11.132 44.6537 11.484C43.9577 11.828 43.1537 12 42.2417 12H38.4257V3.6ZM42.1457 10.404C42.9857 10.404 43.6537 10.172 44.1497 9.708C44.6537 9.236 44.9057 8.6 44.9057 7.8C44.9057 7 44.6537 6.368 44.1497 5.904C43.6537 5.432 42.9857 5.196 42.1457 5.196H40.3697V10.404H42.1457ZM53.6918 12L52.0718 9.66H51.9758H50.2838V12H48.3398V3.6H51.9758C52.7198 3.6 53.3638 3.724 53.9078 3.972C54.4598 4.22 54.8838 4.572 55.1798 5.028C55.4758 5.484 55.6238 6.024 55.6238 6.648C55.6238 7.272 55.4718 7.812 55.1678 8.268C54.8718 8.716 54.4478 9.06 53.8958 9.3L55.7798 12H53.6918ZM53.6558 6.648C53.6558 6.176 53.5038 5.816 53.1998 5.568C52.8958 5.312 52.4518 5.184 51.8678 5.184H50.2838V8.112H51.8678C52.4518 8.112 52.8958 7.984 53.1998 7.728C53.5038 7.472 53.6558 7.112 53.6558 6.648ZM61.232 12.144C60.36 12.144 59.572 11.956 58.868 11.58C58.172 11.204 57.624 10.688 57.224 10.032C56.832 9.368 56.636 8.624 56.636 7.8C56.636 6.976 56.832 6.236 57.224 5.58C57.624 4.916 58.172 4.396 58.868 4.02C59.572 3.644 60.36 3.456 61.232 3.456C62.104 3.456 62.888 3.644 63.584 4.02C64.28 4.396 64.828 4.916 65.228 5.58C65.628 6.236 65.828 6.976 65.828 7.8C65.828 8.624 65.628 9.368 65.228 10.032C64.828 10.688 64.28 11.204 63.584 11.58C62.888 11.956 62.104 12.144 61.232 12.144ZM61.232 10.488C61.728 10.488 62.176 10.376 62.576 10.152C62.976 9.92 63.288 9.6 63.512 9.192C63.744 8.784 63.86 8.32 63.86 7.8C63.86 7.28 63.744 6.816 63.512 6.408C63.288 6 62.976 5.684 62.576 5.46C62.176 5.228 61.728 5.112 61.232 5.112C60.736 5.112 60.288 5.228 59.888 5.46C59.488 5.684 59.172 6 58.94 6.408C58.716 6.816 58.604 7.28 58.604 7.8C58.604 8.32 58.716 8.784 58.94 9.192C59.172 9.6 59.488 9.92 59.888 10.152C60.288 10.376 60.736 10.488 61.232 10.488ZM70.925 3.6C71.669 3.6 72.313 3.724 72.857 3.972C73.409 4.22 73.833 4.572 74.129 5.028C74.425 5.484 74.573 6.024 74.573 6.648C74.573 7.264 74.425 7.804 74.129 8.268C73.833 8.724 73.409 9.076 72.857 9.324C72.313 9.564 71.669 9.684 70.925 9.684H69.233V12H67.289V3.6H70.925ZM70.817 8.1C71.401 8.1 71.845 7.976 72.149 7.728C72.453 7.472 72.605 7.112 72.605 6.648C72.605 6.176 72.453 5.816 72.149 5.568C71.845 5.312 71.401 5.184 70.817 5.184H69.233V8.1H70.817ZM75.9608 3.6H79.7768C80.6888 3.6 81.4928 3.776 82.1888 4.128C82.8928 4.472 83.4368 4.96 83.8208 5.592C84.2128 6.224 84.4088 6.96 84.4088 7.8C84.4088 8.64 84.2128 9.376 83.8208 10.008C83.4368 10.64 82.8928 11.132 82.1888 11.484C81.4928 11.828 80.6888 12 79.7768 12H75.9608V3.6ZM79.6808 10.404C80.5208 10.404 81.1888 10.172 81.6848 9.708C82.1888 9.236 82.4408 8.6 82.4408 7.8C82.4408 7 82.1888 6.368 81.6848 5.904C81.1888 5.432 80.5208 5.196 79.6808 5.196H77.9048V10.404H79.6808ZM89.9429 12.144C89.0709 12.144 88.2829 11.956 87.5789 11.58C86.8829 11.204 86.3349 10.688 85.9349 10.032C85.5429 9.368 85.3469 8.624 85.3469 7.8C85.3469 6.976 85.5429 6.236 85.9349 5.58C86.3349 4.916 86.8829 4.396 87.5789 4.02C88.2829 3.644 89.0709 3.456 89.9429 3.456C90.8149 3.456 91.5989 3.644 92.2949 4.02C92.9909 4.396 93.5389 4.916 93.9389 5.58C94.3389 6.236 94.5389 6.976 94.5389 7.8C94.5389 8.624 94.3389 9.368 93.9389 10.032C93.5389 10.688 92.9909 11.204 92.2949 11.58C91.5989 11.956 90.8149 12.144 89.9429 12.144ZM89.9429 10.488C90.4389 10.488 90.8869 10.376 91.2869 10.152C91.6869 9.92 91.9989 9.6 92.2229 9.192C92.4549 8.784 92.5709 8.32 92.5709 7.8C92.5709 7.28 92.4549 6.816 92.2229 6.408C91.9989 6 91.6869 5.684 91.2869 5.46C90.8869 5.228 90.4389 5.112 89.9429 5.112C89.4469 5.112 88.9989 5.228 88.5989 5.46C88.1989 5.684 87.8829 6 87.6509 6.408C87.4269 6.816 87.3149 7.28 87.3149 7.8C87.3149 8.32 87.4269 8.784 87.6509 9.192C87.8829 9.6 88.1989 9.92 88.5989 10.152C88.9989 10.376 89.4469 10.488 89.9429 10.488ZM108.415 3.6L105.667 12H103.579L101.731 6.312L99.8227 12H97.7467L94.9867 3.6H97.0027L98.8987 9.504L100.879 3.6H102.679L104.599 9.552L106.555 3.6H108.415ZM117.204 3.6V12H115.608L111.42 6.9V12H109.5V3.6H111.108L115.284 8.7V3.6H117.204Z" fill="#1F2041"/>
<path d="M25.654 45.104V48.198H24.688V46H16.134L16.12 48.198H15.154L15.168 45.104H15.658C16.302 45.0667 16.75 44.558 17.002 43.578C17.254 42.5887 17.408 41.1887 17.464 39.378L17.576 36.2H24.184V45.104H25.654ZM18.388 39.476C18.3413 40.9693 18.2247 42.2013 18.038 43.172C17.8607 44.1333 17.5573 44.7773 17.128 45.104H23.162V37.096H18.472L18.388 39.476ZM36.7692 45.104V48.198H35.8032V46H27.2492L27.2352 48.198H26.2692L26.2832 45.104H26.7732C27.4172 45.0667 27.8652 44.558 28.1172 43.578C28.3692 42.5887 28.5232 41.1887 28.5792 39.378L28.6912 36.2H35.2992V45.104H36.7692ZM29.5032 39.476C29.4566 40.9693 29.3399 42.2013 29.1532 43.172C28.9759 44.1333 28.6726 44.7773 28.2432 45.104H34.2772V37.096H29.5872L29.5032 39.476ZM38.7692 46.07C38.5638 46.07 38.3865 45.9953 38.2372 45.846C38.0972 45.6967 38.0272 45.5147 38.0272 45.3C38.0272 45.0853 38.0972 44.908 38.2372 44.768C38.3865 44.6187 38.5638 44.544 38.7692 44.544C38.9745 44.544 39.1518 44.6187 39.3012 44.768C39.4505 44.908 39.5252 45.0853 39.5252 45.3C39.5252 45.5147 39.4505 45.6967 39.3012 45.846C39.1518 45.9953 38.9745 46.07 38.7692 46.07ZM52.082 36.2V46H51.088V38.16L47.238 44.754H46.748L42.898 38.202V46H41.904V36.2H42.758L47.014 43.466L51.228 36.2H52.082ZM65.5624 36.2V46H64.5684V38.16L60.7184 44.754H60.2284L56.3784 38.202V46H55.3844V36.2H56.2384L60.4944 43.466L64.7084 36.2H65.5624ZM68.6969 46.07C68.4916 46.07 68.3142 45.9953 68.1649 45.846C68.0249 45.6967 67.9549 45.5147 67.9549 45.3C67.9549 45.0853 68.0249 44.908 68.1649 44.768C68.3142 44.6187 68.4916 44.544 68.6969 44.544C68.9022 44.544 69.0796 44.6187 69.2289 44.768C69.3782 44.908 69.4529 45.0853 69.4529 45.3C69.4529 45.5147 69.3782 45.6967 69.2289 45.846C69.0796 45.9953 68.9022 46.07 68.6969 46.07ZM78.0617 37.096H72.8397L72.8537 46H71.8317V36.2H78.0617V37.096ZM86.0734 37.096H80.8514L80.8654 46H79.8434V36.2H86.0734V37.096ZM94.0851 37.096H88.8631L88.8771 46H87.8551V36.2H94.0851V37.096ZM102.097 37.096H96.8748L96.8888 46H95.8668V36.2H102.097V37.096Z" fill="#1F2041" fill-opacity="0.75"/>
<path d="M132.594 39.5781L134 40.9844L128 46.9844L122 40.9844L123.406 39.5781L128 44.1719L132.594 39.5781Z" fill="#1F2041" fill-opacity="0.5"/>
</svg>
