<svg width="90" height="51" viewBox="0 0 90 51" fill="none" xmlns="http://www.w3.org/2000/svg">
<path d="M0.996 3.6H2.94V10.416H7.152V12H0.996V3.6ZM8.23819 3.6H10.1822V12H8.23819V3.6ZM15.2357 8.7L14.1077 9.876V12H12.1757V3.6H14.1077V7.524L17.8277 3.6H19.9877L16.5077 7.344L20.1917 12H17.9237L15.2357 8.7ZM27.5625 10.44V12H21.0585V3.6H27.4065V5.16H22.9905V6.984H26.8905V8.496H22.9905V10.44H27.5625ZM38.6757 7.632C39.1557 7.784 39.5317 8.04 39.8037 8.4C40.0757 8.752 40.2117 9.188 40.2117 9.708C40.2117 10.444 39.9237 11.012 39.3477 11.412C38.7797 11.804 37.9477 12 36.8517 12H32.5077V3.6H36.6117C37.6357 3.6 38.4197 3.796 38.9637 4.188C39.5157 4.58 39.7917 5.112 39.7917 5.784C39.7917 6.192 39.6917 6.556 39.4917 6.876C39.2997 7.196 39.0277 7.448 38.6757 7.632ZM34.4397 5.064V7.044H36.3717C36.8517 7.044 37.2157 6.96 37.4637 6.792C37.7117 6.624 37.8357 6.376 37.8357 6.048C37.8357 5.72 37.7117 5.476 37.4637 5.316C37.2157 5.148 36.8517 5.064 36.3717 5.064H34.4397ZM36.7077 10.536C37.2197 10.536 37.6037 10.452 37.8597 10.284C38.1237 10.116 38.2557 9.856 38.2557 9.504C38.2557 8.808 37.7397 8.46 36.7077 8.46H34.4397V10.536H36.7077ZM45.4155 12.144C44.2155 12.144 43.2795 11.812 42.6075 11.148C41.9435 10.484 41.6115 9.536 41.6115 8.304V3.6H43.5555V8.232C43.5555 9.736 44.1795 10.488 45.4275 10.488C46.0355 10.488 46.4995 10.308 46.8195 9.948C47.1395 9.58 47.2995 9.008 47.2995 8.232V3.6H49.2195V8.304C49.2195 9.536 48.8835 10.484 48.2115 11.148C47.5475 11.812 46.6155 12.144 45.4155 12.144ZM52.7399 5.184H50.0519V3.6H57.3719V5.184H54.6839V12H52.7399V5.184ZM60.2751 5.184H57.5871V3.6H64.9071V5.184H62.2191V12H60.2751V5.184ZM69.9038 12.144C69.0318 12.144 68.2438 11.956 67.5398 11.58C66.8438 11.204 66.2958 10.688 65.8958 10.032C65.5038 9.368 65.3078 8.624 65.3078 7.8C65.3078 6.976 65.5038 6.236 65.8958 5.58C66.2958 4.916 66.8438 4.396 67.5398 4.02C68.2438 3.644 69.0318 3.456 69.9038 3.456C70.7758 3.456 71.5598 3.644 72.2558 4.02C72.9518 4.396 73.4998 4.916 73.8998 5.58C74.2998 6.236 74.4998 6.976 74.4998 7.8C74.4998 8.624 74.2998 9.368 73.8998 10.032C73.4998 10.688 72.9518 11.204 72.2558 11.58C71.5598 11.956 70.7758 12.144 69.9038 12.144ZM69.9038 10.488C70.3998 10.488 70.8478 10.376 71.2478 10.152C71.6478 9.92 71.9598 9.6 72.1838 9.192C72.4158 8.784 72.5318 8.32 72.5318 7.8C72.5318 7.28 72.4158 6.816 72.1838 6.408C71.9598 6 71.6478 5.684 71.2478 5.46C70.8478 5.228 70.3998 5.112 69.9038 5.112C69.4078 5.112 68.9598 5.228 68.5598 5.46C68.1598 5.684 67.8438 6 67.6118 6.408C67.3878 6.816 67.2758 7.28 67.2758 7.8C67.2758 8.32 67.3878 8.784 67.6118 9.192C67.8438 9.6 68.1598 9.92 68.5598 10.152C68.9598 10.376 69.4078 10.488 69.9038 10.488ZM83.6648 3.6V12H82.0688L77.8808 6.9V12H75.9608V3.6H77.5688L81.7448 8.7V3.6H83.6648Z" fill="#1F2041"/>
<rect y="31" width="40" height="20" rx="10" fill="white"/>
<rect x="0.5" y="31.5" width="39" height="19" rx="9.5" stroke="#1F2041" stroke-opacity="0.25"/>
<path d="M27.4582 43.36V44H22.5482V43.49L25.4582 40.64C25.8249 40.28 26.0715 39.97 26.1982 39.71C26.3315 39.4433 26.3982 39.1767 26.3982 38.91C26.3982 38.4967 26.2549 38.1767 25.9682 37.95C25.6882 37.7167 25.2849 37.6 24.7582 37.6C23.9382 37.6 23.3015 37.86 22.8482 38.38L22.3382 37.94C22.6115 37.62 22.9582 37.3733 23.3782 37.2C23.8049 37.0267 24.2849 36.94 24.8182 36.94C25.5315 36.94 26.0949 37.11 26.5082 37.45C26.9282 37.7833 27.1382 38.2433 27.1382 38.83C27.1382 39.19 27.0582 39.5367 26.8982 39.87C26.7382 40.2033 26.4349 40.5867 25.9882 41.02L23.6082 43.36H27.4582Z" fill="#1F2041" fill-opacity="0.25"/>
<path d="M10.0391 43.7344C10.6641 43.1745 11.1263 42.7513 11.4258 42.4648C11.7253 42.1784 12.0508 41.8398 12.4023 41.4492C12.7539 41.0586 12.9948 40.7135 13.125 40.4141C13.2682 40.1146 13.3398 39.8216 13.3398 39.5352C13.3398 39.1185 13.1966 38.7734 12.9102 38.5C12.6367 38.2266 12.2917 38.0898 11.875 38.0898C11.5495 38.0898 11.2435 38.181 10.957 38.3633C10.6836 38.5456 10.4948 38.7799 10.3906 39.0664H9.60938C9.50521 38.7799 9.3099 38.5456 9.02344 38.3633C8.75 38.181 8.45052 38.0898 8.125 38.0898C7.70833 38.0898 7.35677 38.2266 7.07031 38.5C6.79688 38.7734 6.66016 39.1185 6.66016 39.5352C6.66016 39.8216 6.72526 40.1146 6.85547 40.4141C6.9987 40.7135 7.24609 41.0586 7.59766 41.4492C7.94922 41.8398 8.27474 42.1784 8.57422 42.4648C8.8737 42.7513 9.33594 43.1745 9.96094 43.7344L10 43.7734L10.0391 43.7344ZM11.875 37.25C12.526 37.25 13.0664 37.4714 13.4961 37.9141C13.9388 38.3568 14.1602 38.8971 14.1602 39.5352C14.1602 39.9128 14.0885 40.2839 13.9453 40.6484C13.8021 41 13.5352 41.3971 13.1445 41.8398C12.7669 42.2826 12.4219 42.6536 12.1094 42.9531C11.7969 43.2526 11.2956 43.7148 10.6055 44.3398L10 44.8867L9.39453 44.3594C8.49609 43.5521 7.84505 42.9466 7.44141 42.543C7.05078 42.1393 6.6862 41.6641 6.34766 41.1172C6.00911 40.5703 5.83984 40.043 5.83984 39.5352C5.83984 38.8971 6.05469 38.3568 6.48438 37.9141C6.92708 37.4714 7.47396 37.25 8.125 37.25C8.88021 37.25 9.50521 37.543 10 38.1289C10.4948 37.543 11.1198 37.25 11.875 37.25Z" fill="#1F2041" fill-opacity="0.25"/>
<rect x="50.5" y="31.5" width="38.7211" height="19" rx="9.5" fill="white" stroke="#BC9CFF"/>
<path d="M72.638 37V44H71.918V37.64H70.268V37H72.638ZM79.0913 43.36V44H74.1813V43.49L77.0913 40.64C77.458 40.28 77.7046 39.97 77.8313 39.71C77.9646 39.4433 78.0313 39.1767 78.0313 38.91C78.0313 38.4967 77.888 38.1767 77.6013 37.95C77.3213 37.7167 76.918 37.6 76.3913 37.6C75.5713 37.6 74.9346 37.86 74.4813 38.38L73.9713 37.94C74.2446 37.62 74.5913 37.3733 75.0113 37.2C75.438 37.0267 75.918 36.94 76.4513 36.94C77.1646 36.94 77.728 37.11 78.1413 37.45C78.5613 37.7833 78.7713 38.2433 78.7713 38.83C78.7713 39.19 78.6913 39.5367 78.5313 39.87C78.3713 40.2033 78.068 40.5867 77.6213 41.02L75.2413 43.36H79.0913Z" fill="#BC9CFF"/>
<path d="M59.9303 44.8867L59.3248 44.3398C58.6347 43.7148 58.1334 43.2526 57.8209 42.9531C57.5084 42.6536 57.1568 42.2826 56.7662 41.8398C56.3886 41.3971 56.1282 41 55.985 40.6484C55.8417 40.2839 55.7701 39.9128 55.7701 39.5352C55.7701 38.8971 55.985 38.3568 56.4146 37.9141C56.8573 37.4714 57.4042 37.25 58.0553 37.25C58.8105 37.25 59.4355 37.543 59.9303 38.1289C60.4251 37.543 61.0501 37.25 61.8053 37.25C62.4563 37.25 62.9967 37.4714 63.4264 37.9141C63.8691 38.3568 64.0904 38.8971 64.0904 39.5352C64.0904 40.043 63.9211 40.5703 63.5826 41.1172C63.2441 41.6641 62.873 42.1393 62.4693 42.543C62.0787 42.9466 61.4342 43.5521 60.5357 44.3594L59.9303 44.8867Z" fill="url(#paint0_linear)"/>
<defs>
<linearGradient id="paint0_linear" x1="59.9303" y1="31" x2="59.9303" y2="51" gradientUnits="userSpaceOnUse">
<stop stop-color="#BC9CFF"/>
<stop offset="1" stop-color="#8BA4F9"/>
</linearGradient>
</defs>
</svg>
