<svg width="150" height="65" viewBox="0 0 150 65" fill="none" xmlns="http://www.w3.org/2000/svg">
<rect y="20.4424" width="150" height="44" rx="4" fill="white"/>
<rect x="0.5" y="20.9424" width="149" height="43" rx="3.5" stroke="#1F2041" stroke-opacity="0.25"/>
<path d="M0.996 3.6H4.812C5.724 3.6 6.528 3.776 7.224 4.128C7.928 4.472 8.472 4.96 8.856 5.592C9.248 6.224 9.444 6.96 9.444 7.8C9.444 8.64 9.248 9.376 8.856 10.008C8.472 10.64 7.928 11.132 7.224 11.484C6.528 11.828 5.724 12 4.812 12H0.996V3.6ZM4.716 10.404C5.556 10.404 6.224 10.172 6.72 9.708C7.224 9.236 7.476 8.6 7.476 7.8C7.476 7 7.224 6.368 6.72 5.904C6.224 5.432 5.556 5.196 4.716 5.196H2.94V10.404H4.716ZM16.3249 10.2H12.4249L11.6809 12H9.68887L13.4329 3.6H15.3529L19.1089 12H17.0689L16.3249 10.2ZM15.7129 8.724L14.3809 5.508L13.0489 8.724H15.7129ZM21.2985 5.184H18.6105V3.6H25.9305V5.184H23.2425V12H21.2985V5.184ZM33.4805 10.44V12H26.9765V3.6H33.3245V5.16H28.9085V6.984H32.8085V8.496H28.9085V10.44H33.4805ZM38.4257 3.6H42.2417C43.1537 3.6 43.9577 3.776 44.6537 4.128C45.3577 4.472 45.9017 4.96 46.2857 5.592C46.6777 6.224 46.8737 6.96 46.8737 7.8C46.8737 8.64 46.6777 9.376 46.2857 10.008C45.9017 10.64 45.3577 11.132 44.6537 11.484C43.9577 11.828 43.1537 12 42.2417 12H38.4257V3.6ZM42.1457 10.404C42.9857 10.404 43.6537 10.172 44.1497 9.708C44.6537 9.236 44.9057 8.6 44.9057 7.8C44.9057 7 44.6537 6.368 44.1497 5.904C43.6537 5.432 42.9857 5.196 42.1457 5.196H40.3697V10.404H42.1457ZM53.6918 12L52.0718 9.66H51.9758H50.2838V12H48.3398V3.6H51.9758C52.7198 3.6 53.3638 3.724 53.9078 3.972C54.4598 4.22 54.8838 4.572 55.1798 5.028C55.4758 5.484 55.6238 6.024 55.6238 6.648C55.6238 7.272 55.4718 7.812 55.1678 8.268C54.8718 8.716 54.4478 9.06 53.8958 9.3L55.7798 12H53.6918ZM53.6558 6.648C53.6558 6.176 53.5038 5.816 53.1998 5.568C52.8958 5.312 52.4518 5.184 51.8678 5.184H50.2838V8.112H51.8678C52.4518 8.112 52.8958 7.984 53.1998 7.728C53.5038 7.472 53.6558 7.112 53.6558 6.648ZM61.232 12.144C60.36 12.144 59.572 11.956 58.868 11.58C58.172 11.204 57.624 10.688 57.224 10.032C56.832 9.368 56.636 8.624 56.636 7.8C56.636 6.976 56.832 6.236 57.224 5.58C57.624 4.916 58.172 4.396 58.868 4.02C59.572 3.644 60.36 3.456 61.232 3.456C62.104 3.456 62.888 3.644 63.584 4.02C64.28 4.396 64.828 4.916 65.228 5.58C65.628 6.236 65.828 6.976 65.828 7.8C65.828 8.624 65.628 9.368 65.228 10.032C64.828 10.688 64.28 11.204 63.584 11.58C62.888 11.956 62.104 12.144 61.232 12.144ZM61.232 10.488C61.728 10.488 62.176 10.376 62.576 10.152C62.976 9.92 63.288 9.6 63.512 9.192C63.744 8.784 63.86 8.32 63.86 7.8C63.86 7.28 63.744 6.816 63.512 6.408C63.288 6 62.976 5.684 62.576 5.46C62.176 5.228 61.728 5.112 61.232 5.112C60.736 5.112 60.288 5.228 59.888 5.46C59.488 5.684 59.172 6 58.94 6.408C58.716 6.816 58.604 7.28 58.604 7.8C58.604 8.32 58.716 8.784 58.94 9.192C59.172 9.6 59.488 9.92 59.888 10.152C60.288 10.376 60.736 10.488 61.232 10.488ZM70.925 3.6C71.669 3.6 72.313 3.724 72.857 3.972C73.409 4.22 73.833 4.572 74.129 5.028C74.425 5.484 74.573 6.024 74.573 6.648C74.573 7.264 74.425 7.804 74.129 8.268C73.833 8.724 73.409 9.076 72.857 9.324C72.313 9.564 71.669 9.684 70.925 9.684H69.233V12H67.289V3.6H70.925ZM70.817 8.1C71.401 8.1 71.845 7.976 72.149 7.728C72.453 7.472 72.605 7.112 72.605 6.648C72.605 6.176 72.453 5.816 72.149 5.568C71.845 5.312 71.401 5.184 70.817 5.184H69.233V8.1H70.817ZM75.9608 3.6H79.7768C80.6888 3.6 81.4928 3.776 82.1888 4.128C82.8928 4.472 83.4368 4.96 83.8208 5.592C84.2128 6.224 84.4088 6.96 84.4088 7.8C84.4088 8.64 84.2128 9.376 83.8208 10.008C83.4368 10.64 82.8928 11.132 82.1888 11.484C81.4928 11.828 80.6888 12 79.7768 12H75.9608V3.6ZM79.6808 10.404C80.5208 10.404 81.1888 10.172 81.6848 9.708C82.1888 9.236 82.4408 8.6 82.4408 7.8C82.4408 7 82.1888 6.368 81.6848 5.904C81.1888 5.432 80.5208 5.196 79.6808 5.196H77.9048V10.404H79.6808ZM89.9429 12.144C89.0709 12.144 88.2829 11.956 87.5789 11.58C86.8829 11.204 86.3349 10.688 85.9349 10.032C85.5429 9.368 85.3469 8.624 85.3469 7.8C85.3469 6.976 85.5429 6.236 85.9349 5.58C86.3349 4.916 86.8829 4.396 87.5789 4.02C88.2829 3.644 89.0709 3.456 89.9429 3.456C90.8149 3.456 91.5989 3.644 92.2949 4.02C92.9909 4.396 93.5389 4.916 93.9389 5.58C94.3389 6.236 94.5389 6.976 94.5389 7.8C94.5389 8.624 94.3389 9.368 93.9389 10.032C93.5389 10.688 92.9909 11.204 92.2949 11.58C91.5989 11.956 90.8149 12.144 89.9429 12.144ZM89.9429 10.488C90.4389 10.488 90.8869 10.376 91.2869 10.152C91.6869 9.92 91.9989 9.6 92.2229 9.192C92.4549 8.784 92.5709 8.32 92.5709 7.8C92.5709 7.28 92.4549 6.816 92.2229 6.408C91.9989 6 91.6869 5.684 91.2869 5.46C90.8869 5.228 90.4389 5.112 89.9429 5.112C89.4469 5.112 88.9989 5.228 88.5989 5.46C88.1989 5.684 87.8829 6 87.6509 6.408C87.4269 6.816 87.3149 7.28 87.3149 7.8C87.3149 8.32 87.4269 8.784 87.6509 9.192C87.8829 9.6 88.1989 9.92 88.5989 10.152C88.9989 10.376 89.4469 10.488 89.9429 10.488ZM108.415 3.6L105.667 12H103.579L101.731 6.312L99.8227 12H97.7467L94.9867 3.6H97.0027L98.8987 9.504L100.879 3.6H102.679L104.599 9.552L106.555 3.6H108.415ZM117.204 3.6V12H115.608L111.42 6.9V12H109.5V3.6H111.108L115.284 8.7V3.6H117.204Z" fill="#1F2041"/>
<path d="M18.444 36.2V46H17.436V37.096H15.126V36.2H18.444ZM23.8386 36.116C25.1359 36.116 26.1299 36.5453 26.8206 37.404C27.5113 38.2533 27.8566 39.4573 27.8566 41.016C27.8566 42.108 27.6699 43.032 27.2966 43.788C26.9233 44.544 26.4006 45.118 25.7286 45.51C25.0566 45.8927 24.2726 46.084 23.3766 46.084C22.4059 46.084 21.6313 45.9067 21.0526 45.552L21.4586 44.74C21.9253 45.048 22.5599 45.202 23.3626 45.202C24.4453 45.202 25.2946 44.8613 25.9106 44.18C26.5266 43.4893 26.8346 42.4907 26.8346 41.184C26.8346 40.9413 26.8206 40.6753 26.7926 40.386C26.5499 40.918 26.1626 41.3333 25.6306 41.632C25.0986 41.9213 24.4873 42.066 23.7966 42.066C23.1526 42.066 22.5786 41.9447 22.0746 41.702C21.5799 41.4593 21.1926 41.1187 20.9126 40.68C20.6326 40.232 20.4926 39.714 20.4926 39.126C20.4926 38.5287 20.6373 38.0013 20.9266 37.544C21.2159 37.0867 21.6126 36.7367 22.1166 36.494C22.6299 36.242 23.2039 36.116 23.8386 36.116ZM23.9506 41.212C24.4453 41.212 24.8793 41.1187 25.2526 40.932C25.6353 40.7453 25.9339 40.4887 26.1486 40.162C26.3633 39.8353 26.4706 39.4713 26.4706 39.07C26.4706 38.6967 26.3679 38.3513 26.1626 38.034C25.9666 37.7167 25.6726 37.46 25.2806 37.264C24.8886 37.068 24.4219 36.97 23.8806 36.97C23.1713 36.97 22.5926 37.166 22.1446 37.558C21.7059 37.9407 21.4866 38.454 21.4866 39.098C21.4866 39.742 21.7059 40.2553 22.1446 40.638C22.5926 41.0207 23.1946 41.212 23.9506 41.212ZM29.9235 46.07C29.7181 46.07 29.5408 45.9953 29.3915 45.846C29.2515 45.6967 29.1815 45.5147 29.1815 45.3C29.1815 45.0853 29.2515 44.908 29.3915 44.768C29.5408 44.6187 29.7181 44.544 29.9235 44.544C30.1288 44.544 30.3061 44.6187 30.4555 44.768C30.6048 44.908 30.6795 45.0853 30.6795 45.3C30.6795 45.5147 30.6048 45.6967 30.4555 45.846C30.3061 45.9953 30.1288 46.07 29.9235 46.07ZM35.8899 46.084C35.1339 46.084 34.4572 45.8833 33.8599 45.482C33.2719 45.0807 32.8099 44.5067 32.4739 43.76C32.1472 43.004 31.9839 42.1173 31.9839 41.1C31.9839 40.0827 32.1472 39.2007 32.4739 38.454C32.8099 37.698 33.2719 37.1193 33.8599 36.718C34.4572 36.3167 35.1339 36.116 35.8899 36.116C36.6459 36.116 37.3179 36.3167 37.9059 36.718C38.5032 37.1193 38.9699 37.698 39.3059 38.454C39.6419 39.2007 39.8099 40.0827 39.8099 41.1C39.8099 42.1173 39.6419 43.004 39.3059 43.76C38.9699 44.5067 38.5032 45.0807 37.9059 45.482C37.3179 45.8833 36.6459 46.084 35.8899 46.084ZM35.8899 45.16C36.4592 45.16 36.9585 45.0013 37.3879 44.684C37.8265 44.3667 38.1672 43.9047 38.4099 43.298C38.6525 42.6913 38.7739 41.9587 38.7739 41.1C38.7739 40.2413 38.6525 39.5087 38.4099 38.902C38.1672 38.2953 37.8265 37.8333 37.3879 37.516C36.9585 37.1987 36.4592 37.04 35.8899 37.04C35.3205 37.04 34.8165 37.1987 34.3779 37.516C33.9485 37.8333 33.6125 38.2953 33.3699 38.902C33.1272 39.5087 33.0059 40.2413 33.0059 41.1C33.0059 41.9587 33.1272 42.6913 33.3699 43.298C33.6125 43.9047 33.9485 44.3667 34.3779 44.684C34.8165 45.0013 35.3205 45.16 35.8899 45.16ZM46.8674 40.862C47.4834 41.0673 47.9547 41.3753 48.2814 41.786C48.6174 42.1967 48.7854 42.6913 48.7854 43.27C48.7854 43.8393 48.6314 44.3387 48.3234 44.768C48.0154 45.188 47.5721 45.5147 46.9934 45.748C46.4241 45.972 45.7521 46.084 44.9774 46.084C43.8014 46.084 42.8774 45.832 42.2054 45.328C41.5334 44.824 41.1974 44.138 41.1974 43.27C41.1974 42.682 41.3561 42.1873 41.6734 41.786C42.0001 41.3753 42.4714 41.0673 43.0874 40.862C42.5834 40.666 42.2007 40.386 41.9394 40.022C41.6781 39.6487 41.5474 39.21 41.5474 38.706C41.5474 37.9127 41.8554 37.2827 42.4714 36.816C43.0967 36.3493 43.9321 36.116 44.9774 36.116C45.6681 36.116 46.2701 36.2233 46.7834 36.438C47.3061 36.6433 47.7121 36.942 48.0014 37.334C48.2907 37.726 48.4354 38.1833 48.4354 38.706C48.4354 39.21 48.3001 39.6487 48.0294 40.022C47.7587 40.386 47.3714 40.666 46.8674 40.862ZM42.5554 38.734C42.5554 39.2753 42.7701 39.7047 43.1994 40.022C43.6287 40.3393 44.2214 40.498 44.9774 40.498C45.7334 40.498 46.3261 40.3393 46.7554 40.022C47.1941 39.7047 47.4134 39.28 47.4134 38.748C47.4134 38.1973 47.1894 37.7633 46.7414 37.446C46.3027 37.1287 45.7147 36.97 44.9774 36.97C44.2307 36.97 43.6381 37.1287 43.1994 37.446C42.7701 37.7633 42.5554 38.1927 42.5554 38.734ZM44.9774 45.23C45.8454 45.23 46.5221 45.0527 47.0074 44.698C47.5021 44.3433 47.7494 43.8627 47.7494 43.256C47.7494 42.6493 47.5021 42.1733 47.0074 41.828C46.5221 41.4733 45.8454 41.296 44.9774 41.296C44.1187 41.296 43.4421 41.4733 42.9474 41.828C42.4621 42.1733 42.2194 42.6493 42.2194 43.256C42.2194 43.872 42.4621 44.3573 42.9474 44.712C43.4327 45.0573 44.1094 45.23 44.9774 45.23ZM51.0738 46.07C50.8685 46.07 50.6912 45.9953 50.5418 45.846C50.4018 45.6967 50.3318 45.5147 50.3318 45.3C50.3318 45.0853 50.4018 44.908 50.5418 44.768C50.6912 44.6187 50.8685 44.544 51.0738 44.544C51.2792 44.544 51.4565 44.6187 51.6058 44.768C51.7552 44.908 51.8298 45.0853 51.8298 45.3C51.8298 45.5147 51.7552 45.6967 51.6058 45.846C51.4565 45.9953 51.2792 46.07 51.0738 46.07ZM60.1134 45.104V46H53.2394V45.286L57.3134 41.296C57.8267 40.792 58.172 40.358 58.3494 39.994C58.536 39.6207 58.6294 39.2473 58.6294 38.874C58.6294 38.2953 58.4287 37.8473 58.0274 37.53C57.6354 37.2033 57.0707 37.04 56.3334 37.04C55.1854 37.04 54.294 37.404 53.6594 38.132L52.9454 37.516C53.328 37.068 53.8134 36.7227 54.4014 36.48C54.9987 36.2373 55.6707 36.116 56.4174 36.116C57.416 36.116 58.2047 36.354 58.7834 36.83C59.3714 37.2967 59.6654 37.9407 59.6654 38.762C59.6654 39.266 59.5534 39.7513 59.3294 40.218C59.1054 40.6847 58.6807 41.2213 58.0554 41.828L54.7234 45.104H60.1134ZM65.2297 46.084C64.4737 46.084 63.797 45.8833 63.1997 45.482C62.6117 45.0807 62.1497 44.5067 61.8137 43.76C61.487 43.004 61.3237 42.1173 61.3237 41.1C61.3237 40.0827 61.487 39.2007 61.8137 38.454C62.1497 37.698 62.6117 37.1193 63.1997 36.718C63.797 36.3167 64.4737 36.116 65.2297 36.116C65.9857 36.116 66.6577 36.3167 67.2457 36.718C67.843 37.1193 68.3097 37.698 68.6457 38.454C68.9817 39.2007 69.1497 40.0827 69.1497 41.1C69.1497 42.1173 68.9817 43.004 68.6457 43.76C68.3097 44.5067 67.843 45.0807 67.2457 45.482C66.6577 45.8833 65.9857 46.084 65.2297 46.084ZM65.2297 45.16C65.799 45.16 66.2984 45.0013 66.7277 44.684C67.1664 44.3667 67.507 43.9047 67.7497 43.298C67.9924 42.6913 68.1137 41.9587 68.1137 41.1C68.1137 40.2413 67.9924 39.5087 67.7497 38.902C67.507 38.2953 67.1664 37.8333 66.7277 37.516C66.2984 37.1987 65.799 37.04 65.2297 37.04C64.6604 37.04 64.1564 37.1987 63.7177 37.516C63.2884 37.8333 62.9524 38.2953 62.7097 38.902C62.467 39.5087 62.3457 40.2413 62.3457 41.1C62.3457 41.9587 62.467 42.6913 62.7097 43.298C62.9524 43.9047 63.2884 44.3667 63.7177 44.684C64.1564 45.0013 64.6604 45.16 65.2297 45.16ZM73.2819 36.2V46H72.2739V37.096H69.9639V36.2H73.2819ZM78.6765 36.116C79.9738 36.116 80.9678 36.5453 81.6585 37.404C82.3492 38.2533 82.6945 39.4573 82.6945 41.016C82.6945 42.108 82.5078 43.032 82.1345 43.788C81.7612 44.544 81.2385 45.118 80.5665 45.51C79.8945 45.8927 79.1105 46.084 78.2145 46.084C77.2438 46.084 76.4692 45.9067 75.8905 45.552L76.2965 44.74C76.7632 45.048 77.3978 45.202 78.2005 45.202C79.2832 45.202 80.1325 44.8613 80.7485 44.18C81.3645 43.4893 81.6725 42.4907 81.6725 41.184C81.6725 40.9413 81.6585 40.6753 81.6305 40.386C81.3878 40.918 81.0005 41.3333 80.4685 41.632C79.9365 41.9213 79.3252 42.066 78.6345 42.066C77.9905 42.066 77.4165 41.9447 76.9125 41.702C76.4178 41.4593 76.0305 41.1187 75.7505 40.68C75.4705 40.232 75.3305 39.714 75.3305 39.126C75.3305 38.5287 75.4752 38.0013 75.7645 37.544C76.0538 37.0867 76.4505 36.7367 76.9545 36.494C77.4678 36.242 78.0418 36.116 78.6765 36.116ZM78.7885 41.212C79.2832 41.212 79.7172 41.1187 80.0905 40.932C80.4732 40.7453 80.7718 40.4887 80.9865 40.162C81.2012 39.8353 81.3085 39.4713 81.3085 39.07C81.3085 38.6967 81.2058 38.3513 81.0005 38.034C80.8045 37.7167 80.5105 37.46 80.1185 37.264C79.7265 37.068 79.2598 36.97 78.7185 36.97C78.0092 36.97 77.4305 37.166 76.9825 37.558C76.5438 37.9407 76.3245 38.454 76.3245 39.098C76.3245 39.742 76.5438 40.2553 76.9825 40.638C77.4305 41.0207 78.0325 41.212 78.7885 41.212Z" fill="#1F2041" fill-opacity="0.75"/>
<path d="M132.594 39.5781L134 40.9844L128 46.9844L122 40.9844L123.406 39.5781L128 44.1719L132.594 39.5781Z" fill="#1F2041" fill-opacity="0.5"/>
</svg>
