<svg width="222" height="130" viewBox="0 0 222 130" fill="none" xmlns="http://www.w3.org/2000/svg">
<path d="M5.016 12.144C4.16 12.144 3.384 11.96 2.688 11.592C2 11.216 1.456 10.7 1.056 10.044C0.664 9.38 0.468 8.632 0.468 7.8C0.468 6.968 0.664 6.224 1.056 5.568C1.456 4.904 2 4.388 2.688 4.02C3.384 3.644 4.164 3.456 5.028 3.456C5.756 3.456 6.412 3.584 6.996 3.84C7.588 4.096 8.084 4.464 8.484 4.944L7.236 6.096C6.668 5.44 5.964 5.112 5.124 5.112C4.604 5.112 4.14 5.228 3.732 5.46C3.324 5.684 3.004 6 2.772 6.408C2.548 6.816 2.436 7.28 2.436 7.8C2.436 8.32 2.548 8.784 2.772 9.192C3.004 9.6 3.324 9.92 3.732 10.152C4.14 10.376 4.604 10.488 5.124 10.488C5.964 10.488 6.668 10.156 7.236 9.492L8.484 10.644C8.084 11.132 7.588 11.504 6.996 11.76C6.404 12.016 5.744 12.144 5.016 12.144ZM17.5008 3.6V12H15.5568V8.556H11.7408V12H9.79678V3.6H11.7408V6.912H15.5568V3.6H17.5008ZM25.9922 10.44V12H19.4882V3.6H25.8362V5.16H21.4202V6.984H25.3202V8.496H21.4202V10.44H25.9922ZM31.5355 12.144C30.6795 12.144 29.9035 11.96 29.2075 11.592C28.5195 11.216 27.9755 10.7 27.5755 10.044C27.1835 9.38 26.9875 8.632 26.9875 7.8C26.9875 6.968 27.1835 6.224 27.5755 5.568C27.9755 4.904 28.5195 4.388 29.2075 4.02C29.9035 3.644 30.6835 3.456 31.5475 3.456C32.2755 3.456 32.9315 3.584 33.5155 3.84C34.1075 4.096 34.6035 4.464 35.0035 4.944L33.7555 6.096C33.1875 5.44 32.4835 5.112 31.6435 5.112C31.1235 5.112 30.6595 5.228 30.2515 5.46C29.8435 5.684 29.5235 6 29.2915 6.408C29.0675 6.816 28.9555 7.28 28.9555 7.8C28.9555 8.32 29.0675 8.784 29.2915 9.192C29.5235 9.6 29.8435 9.92 30.2515 10.152C30.6595 10.376 31.1235 10.488 31.6435 10.488C32.4835 10.488 33.1875 10.156 33.7555 9.492L35.0035 10.644C34.6035 11.132 34.1075 11.504 33.5155 11.76C32.9235 12.016 32.2635 12.144 31.5355 12.144ZM39.3763 8.7L38.2483 9.876V12H36.3163V3.6H38.2483V7.524L41.9683 3.6H44.1283L40.6483 7.344L44.3323 12H42.0643L39.3763 8.7ZM51.3671 7.632C51.8471 7.784 52.2231 8.04 52.4951 8.4C52.7671 8.752 52.9031 9.188 52.9031 9.708C52.9031 10.444 52.6151 11.012 52.0391 11.412C51.4711 11.804 50.6391 12 49.5431 12H45.1991V3.6H49.3031C50.3271 3.6 51.1111 3.796 51.6551 4.188C52.2071 4.58 52.4831 5.112 52.4831 5.784C52.4831 6.192 52.3831 6.556 52.1831 6.876C51.9911 7.196 51.7191 7.448 51.3671 7.632ZM47.1311 5.064V7.044H49.0631C49.5431 7.044 49.9071 6.96 50.1551 6.792C50.4031 6.624 50.5271 6.376 50.5271 6.048C50.5271 5.72 50.4031 5.476 50.1551 5.316C49.9071 5.148 49.5431 5.064 49.0631 5.064H47.1311ZM49.3991 10.536C49.9111 10.536 50.2951 10.452 50.5511 10.284C50.8151 10.116 50.9471 9.856 50.9471 9.504C50.9471 8.808 50.4311 8.46 49.3991 8.46H47.1311V10.536H49.3991ZM58.4429 12.144C57.5709 12.144 56.7829 11.956 56.0789 11.58C55.3829 11.204 54.8349 10.688 54.4349 10.032C54.0429 9.368 53.8469 8.624 53.8469 7.8C53.8469 6.976 54.0429 6.236 54.4349 5.58C54.8349 4.916 55.3829 4.396 56.0789 4.02C56.7829 3.644 57.5709 3.456 58.4429 3.456C59.3149 3.456 60.0989 3.644 60.7949 4.02C61.4909 4.396 62.0389 4.916 62.4389 5.58C62.8389 6.236 63.0389 6.976 63.0389 7.8C63.0389 8.624 62.8389 9.368 62.4389 10.032C62.0389 10.688 61.4909 11.204 60.7949 11.58C60.0989 11.956 59.3149 12.144 58.4429 12.144ZM58.4429 10.488C58.9389 10.488 59.3869 10.376 59.7869 10.152C60.1869 9.92 60.4989 9.6 60.7229 9.192C60.9549 8.784 61.0709 8.32 61.0709 7.8C61.0709 7.28 60.9549 6.816 60.7229 6.408C60.4989 6 60.1869 5.684 59.7869 5.46C59.3869 5.228 58.9389 5.112 58.4429 5.112C57.9469 5.112 57.4989 5.228 57.0989 5.46C56.6989 5.684 56.3829 6 56.1509 6.408C55.9269 6.816 55.8149 7.28 55.8149 7.8C55.8149 8.32 55.9269 8.784 56.1509 9.192C56.3829 9.6 56.6989 9.92 57.0989 10.152C57.4989 10.376 57.9469 10.488 58.4429 10.488ZM69.4872 12L67.4592 9.084L65.4672 12H63.2352L66.3432 7.728L63.3912 3.6H65.5992L67.5312 6.324L69.4272 3.6H71.5272L68.5992 7.656L71.7312 12H69.4872ZM82.3281 7.632C82.8081 7.784 83.1841 8.04 83.4561 8.4C83.7281 8.752 83.8641 9.188 83.8641 9.708C83.8641 10.444 83.5761 11.012 83.0001 11.412C82.4321 11.804 81.6001 12 80.5041 12H76.1601V3.6H80.2641C81.2881 3.6 82.0721 3.796 82.6161 4.188C83.1681 4.58 83.4441 5.112 83.4441 5.784C83.4441 6.192 83.3441 6.556 83.1441 6.876C82.9521 7.196 82.6801 7.448 82.3281 7.632ZM78.0921 5.064V7.044H80.0241C80.5041 7.044 80.8681 6.96 81.1161 6.792C81.3641 6.624 81.4881 6.376 81.4881 6.048C81.4881 5.72 81.3641 5.476 81.1161 5.316C80.8681 5.148 80.5041 5.064 80.0241 5.064H78.0921ZM80.3601 10.536C80.8721 10.536 81.2561 10.452 81.5121 10.284C81.7761 10.116 81.9081 9.856 81.9081 9.504C81.9081 8.808 81.3921 8.46 80.3601 8.46H78.0921V10.536H80.3601ZM89.0678 12.144C87.8678 12.144 86.9318 11.812 86.2598 11.148C85.5958 10.484 85.2638 9.536 85.2638 8.304V3.6H87.2078V8.232C87.2078 9.736 87.8318 10.488 89.0798 10.488C89.6878 10.488 90.1518 10.308 90.4718 9.948C90.7918 9.58 90.9518 9.008 90.9518 8.232V3.6H92.8718V8.304C92.8718 9.536 92.5358 10.484 91.8638 11.148C91.1998 11.812 90.2678 12.144 89.0678 12.144ZM96.3923 5.184H93.7043V3.6H101.024V5.184H98.3363V12H96.3923V5.184ZM103.927 5.184H101.239V3.6H108.559V5.184H105.871V12H103.927V5.184ZM113.556 12.144C112.684 12.144 111.896 11.956 111.192 11.58C110.496 11.204 109.948 10.688 109.548 10.032C109.156 9.368 108.96 8.624 108.96 7.8C108.96 6.976 109.156 6.236 109.548 5.58C109.948 4.916 110.496 4.396 111.192 4.02C111.896 3.644 112.684 3.456 113.556 3.456C114.428 3.456 115.212 3.644 115.908 4.02C116.604 4.396 117.152 4.916 117.552 5.58C117.952 6.236 118.152 6.976 118.152 7.8C118.152 8.624 117.952 9.368 117.552 10.032C117.152 10.688 116.604 11.204 115.908 11.58C115.212 11.956 114.428 12.144 113.556 12.144ZM113.556 10.488C114.052 10.488 114.5 10.376 114.9 10.152C115.3 9.92 115.612 9.6 115.836 9.192C116.068 8.784 116.184 8.32 116.184 7.8C116.184 7.28 116.068 6.816 115.836 6.408C115.612 6 115.3 5.684 114.9 5.46C114.5 5.228 114.052 5.112 113.556 5.112C113.06 5.112 112.612 5.228 112.212 5.46C111.812 5.684 111.496 6 111.264 6.408C111.04 6.816 110.928 7.28 110.928 7.8C110.928 8.32 111.04 8.784 111.264 9.192C111.496 9.6 111.812 9.92 112.212 10.152C112.612 10.376 113.06 10.488 113.556 10.488ZM127.317 3.6V12H125.721L121.533 6.9V12H119.613V3.6H121.221L125.397 8.7V3.6H127.317ZM132.065 12.144C131.401 12.144 130.757 12.056 130.133 11.88C129.517 11.696 129.021 11.46 128.645 11.172L129.305 9.708C129.665 9.972 130.093 10.184 130.589 10.344C131.085 10.504 131.581 10.584 132.077 10.584C132.629 10.584 133.037 10.504 133.301 10.344C133.565 10.176 133.697 9.956 133.697 9.684C133.697 9.484 133.617 9.32 133.457 9.192C133.305 9.056 133.105 8.948 132.857 8.868C132.617 8.788 132.289 8.7 131.873 8.604C131.233 8.452 130.709 8.3 130.301 8.148C129.893 7.996 129.541 7.752 129.245 7.416C128.957 7.08 128.813 6.632 128.813 6.072C128.813 5.584 128.945 5.144 129.209 4.752C129.473 4.352 129.869 4.036 130.397 3.804C130.933 3.572 131.585 3.456 132.353 3.456C132.889 3.456 133.413 3.52 133.925 3.648C134.437 3.776 134.885 3.96 135.269 4.2L134.669 5.676C133.893 5.236 133.117 5.016 132.341 5.016C131.797 5.016 131.393 5.104 131.129 5.28C130.873 5.456 130.745 5.688 130.745 5.976C130.745 6.264 130.893 6.48 131.189 6.624C131.493 6.76 131.953 6.896 132.569 7.032C133.209 7.184 133.733 7.336 134.141 7.488C134.549 7.64 134.897 7.88 135.185 8.208C135.481 8.536 135.629 8.98 135.629 9.54C135.629 10.02 135.493 10.46 135.221 10.86C134.957 11.252 134.557 11.564 134.021 11.796C133.485 12.028 132.833 12.144 132.065 12.144Z" fill="#1F2041"/>
<path d="M41.83 67.3152V77.1152H40.836V69.2752L36.986 75.8692H36.496L32.646 69.3172V77.1152H31.652V67.3152H32.506L36.762 74.5812L40.976 67.3152H41.83ZM47.9325 77.1852C47.2231 77.1852 46.5838 77.0266 46.0145 76.7092C45.4451 76.3826 44.9971 75.9346 44.6705 75.3652C44.3438 74.7959 44.1805 74.1519 44.1805 73.4332C44.1805 72.7146 44.3438 72.0706 44.6705 71.5012C44.9971 70.9319 45.4451 70.4886 46.0145 70.1712C46.5838 69.8539 47.2231 69.6952 47.9325 69.6952C48.6418 69.6952 49.2811 69.8539 49.8505 70.1712C50.4198 70.4886 50.8631 70.9319 51.1805 71.5012C51.5071 72.0706 51.6705 72.7146 51.6705 73.4332C51.6705 74.1519 51.5071 74.7959 51.1805 75.3652C50.8631 75.9346 50.4198 76.3826 49.8505 76.7092C49.2811 77.0266 48.6418 77.1852 47.9325 77.1852ZM47.9325 76.3032C48.4551 76.3032 48.9218 76.1866 49.3325 75.9532C49.7525 75.7106 50.0791 75.3699 50.3125 74.9312C50.5458 74.4926 50.6625 73.9932 50.6625 73.4332C50.6625 72.8732 50.5458 72.3739 50.3125 71.9352C50.0791 71.4966 49.7525 71.1606 49.3325 70.9272C48.9218 70.6846 48.4551 70.5632 47.9325 70.5632C47.4098 70.5632 46.9385 70.6846 46.5185 70.9272C46.1078 71.1606 45.7811 71.4966 45.5385 71.9352C45.3051 72.3739 45.1885 72.8732 45.1885 73.4332C45.1885 73.9932 45.3051 74.4926 45.5385 74.9312C45.7811 75.3699 46.1078 75.7106 46.5185 75.9532C46.9385 76.1866 47.4098 76.3032 47.9325 76.3032ZM59.9891 73.8392H58.3931V77.1152H57.3991V73.8392H55.8031L53.5491 77.1152H52.3591L55.0051 73.3212L52.5691 69.7512H53.6471L55.8031 72.9852H57.3991V69.7512H58.3931V72.9852H59.9891L62.1591 69.7512H63.2371L60.8011 73.3352L63.4471 77.1152H62.2571L59.9891 73.8392ZM65.1015 69.7512H66.0955V73.0132H70.7295V69.7512H71.7235V77.1152H70.7295V73.8672H66.0955V77.1152H65.1015V69.7512ZM77.5868 77.1852C76.8774 77.1852 76.2381 77.0266 75.6688 76.7092C75.0994 76.3826 74.6514 75.9346 74.3248 75.3652C73.9981 74.7959 73.8348 74.1519 73.8348 73.4332C73.8348 72.7146 73.9981 72.0706 74.3248 71.5012C74.6514 70.9319 75.0994 70.4886 75.6688 70.1712C76.2381 69.8539 76.8774 69.6952 77.5868 69.6952C78.2961 69.6952 78.9354 69.8539 79.5048 70.1712C80.0741 70.4886 80.5174 70.9319 80.8348 71.5012C81.1614 72.0706 81.3248 72.7146 81.3248 73.4332C81.3248 74.1519 81.1614 74.7959 80.8348 75.3652C80.5174 75.9346 80.0741 76.3826 79.5048 76.7092C78.9354 77.0266 78.2961 77.1852 77.5868 77.1852ZM77.5868 76.3032C78.1094 76.3032 78.5761 76.1866 78.9868 75.9532C79.4068 75.7106 79.7334 75.3699 79.9668 74.9312C80.2001 74.4926 80.3168 73.9932 80.3168 73.4332C80.3168 72.8732 80.2001 72.3739 79.9668 71.9352C79.7334 71.4966 79.4068 71.1606 78.9868 70.9272C78.5761 70.6846 78.1094 70.5632 77.5868 70.5632C77.0641 70.5632 76.5928 70.6846 76.1728 70.9272C75.7621 71.1606 75.4354 71.4966 75.1928 71.9352C74.9594 72.3739 74.8428 72.8732 74.8428 73.4332C74.8428 73.9932 74.9594 74.4926 75.1928 74.9312C75.4354 75.3699 75.7621 75.7106 76.1728 75.9532C76.5928 76.1866 77.0641 76.3032 77.5868 76.3032ZM90.1932 77.1852C89.4652 77.1852 88.8119 77.0266 88.2332 76.7092C87.6639 76.3919 87.2159 75.9486 86.8892 75.3792C86.5626 74.8006 86.3992 74.1519 86.3992 73.4332C86.3992 72.7146 86.5626 72.0706 86.8892 71.5012C87.2159 70.9319 87.6639 70.4886 88.2332 70.1712C88.8119 69.8539 89.4652 69.6952 90.1932 69.6952C90.8279 69.6952 91.3926 69.8212 91.8872 70.0732C92.3912 70.3159 92.7879 70.6752 93.0772 71.1512L92.3352 71.6552C92.0926 71.2912 91.7846 71.0206 91.4112 70.8432C91.0379 70.6566 90.6319 70.5632 90.1932 70.5632C89.6612 70.5632 89.1806 70.6846 88.7512 70.9272C88.3312 71.1606 87.9999 71.4966 87.7572 71.9352C87.5239 72.3739 87.4072 72.8732 87.4072 73.4332C87.4072 74.0026 87.5239 74.5066 87.7572 74.9452C87.9999 75.3746 88.3312 75.7106 88.7512 75.9532C89.1806 76.1866 89.6612 76.3032 90.1932 76.3032C90.6319 76.3032 91.0379 76.2146 91.4112 76.0372C91.7846 75.8599 92.0926 75.5892 92.3352 75.2252L93.0772 75.7292C92.7879 76.2052 92.3912 76.5692 91.8872 76.8212C91.3832 77.0639 90.8186 77.1852 90.1932 77.1852ZM105.274 69.7512V77.1152H104.28V70.6332H99.66V77.1152H98.666V69.7512H105.274ZM108.1 69.7512H109.094V75.6032L114.008 69.7512H114.89V77.1152H113.896V71.2632L108.996 77.1152H108.1V69.7512ZM122.918 70.6332H120.132V77.1152H119.138V70.6332H116.352V69.7512H122.918V70.6332ZM127.052 77.1852C126.342 77.1852 125.703 77.0266 125.134 76.7092C124.564 76.3826 124.116 75.9346 123.79 75.3652C123.463 74.7959 123.3 74.1519 123.3 73.4332C123.3 72.7146 123.463 72.0706 123.79 71.5012C124.116 70.9319 124.564 70.4886 125.134 70.1712C125.703 69.8539 126.342 69.6952 127.052 69.6952C127.761 69.6952 128.4 69.8539 128.97 70.1712C129.539 70.4886 129.982 70.9319 130.3 71.5012C130.626 72.0706 130.79 72.7146 130.79 73.4332C130.79 74.1519 130.626 74.7959 130.3 75.3652C129.982 75.9346 129.539 76.3826 128.97 76.7092C128.4 77.0266 127.761 77.1852 127.052 77.1852ZM127.052 76.3032C127.574 76.3032 128.041 76.1866 128.452 75.9532C128.872 75.7106 129.198 75.3699 129.432 74.9312C129.665 74.4926 129.782 73.9932 129.782 73.4332C129.782 72.8732 129.665 72.3739 129.432 71.9352C129.198 71.4966 128.872 71.1606 128.452 70.9272C128.041 70.6846 127.574 70.5632 127.052 70.5632C126.529 70.5632 126.058 70.6846 125.638 70.9272C125.227 71.1606 124.9 71.4966 124.658 71.9352C124.424 72.3739 124.308 72.8732 124.308 73.4332C124.308 73.9932 124.424 74.4926 124.658 74.9312C124.9 75.3699 125.227 75.7106 125.638 75.9532C126.058 76.1866 126.529 76.3032 127.052 76.3032ZM141.146 69.7512V77.1152H140.236V71.2912L137.254 76.2192H136.806L133.824 71.2772V77.1152H132.914V69.7512H133.922L137.044 75.0572L140.222 69.7512H141.146ZM151.647 76.2472V78.9632H150.709V77.1152H143.975V69.7512H144.969V76.2472H149.463V69.7512H150.457V76.2472H151.647ZM156.079 69.6952C157.04 69.6952 157.778 69.9379 158.291 70.4232C158.804 70.8992 159.061 71.6086 159.061 72.5512V77.1152H158.109V75.9672C157.885 76.3499 157.554 76.6486 157.115 76.8632C156.686 77.0779 156.172 77.1852 155.575 77.1852C154.754 77.1852 154.1 76.9892 153.615 76.5972C153.13 76.2052 152.887 75.6872 152.887 75.0432C152.887 74.4179 153.111 73.9139 153.559 73.5312C154.016 73.1486 154.74 72.9572 155.729 72.9572H158.067V72.5092C158.067 71.8746 157.89 71.3939 157.535 71.0672C157.18 70.7312 156.662 70.5632 155.981 70.5632C155.514 70.5632 155.066 70.6426 154.637 70.8012C154.208 70.9506 153.839 71.1606 153.531 71.4312L153.083 70.6892C153.456 70.3719 153.904 70.1292 154.427 69.9612C154.95 69.7839 155.5 69.6952 156.079 69.6952ZM155.729 76.4012C156.289 76.4012 156.77 76.2752 157.171 76.0232C157.572 75.7619 157.871 75.3886 158.067 74.9032V73.6992H155.757C154.497 73.6992 153.867 74.1379 153.867 75.0152C153.867 75.4446 154.03 75.7852 154.357 76.0372C154.684 76.2799 155.141 76.4012 155.729 76.4012ZM169.939 69.7512V77.1152H169.029V71.2912L166.047 76.2192H165.599L162.617 71.2772V77.1152H161.707V69.7512H162.715L165.837 75.0572L169.015 69.7512H169.939ZM172.768 69.7512H173.762V75.6032L178.676 69.7512H179.558V77.1152H178.564V71.2632L173.664 77.1152H172.768V69.7512Z" fill="#1F2041" fill-opacity="0.5"/>
<rect x="0.5" y="62.6152" width="19" height="19" rx="3.5" fill="white" stroke="#BC9CFF"/>
<path d="M6.46439 70.4077L10.707 74.6503L9.29282 76.0645L5.05018 71.8219L6.46439 70.4077Z" fill="url(#paint0_linear)"/>
<path d="M13.5355 68.9935L14.9497 70.4077L9.29282 76.0645L7.8786 74.6503L13.5355 68.9935Z" fill="url(#paint1_linear)"/>
<path d="M41.83 97.3152V107.115H40.836V99.2752L36.986 105.869H36.496L32.646 99.3172V107.115H31.652V97.3152H32.506L36.762 104.581L40.976 97.3152H41.83ZM47.9325 107.185C47.2231 107.185 46.5838 107.027 46.0145 106.709C45.4451 106.383 44.9971 105.935 44.6705 105.365C44.3438 104.796 44.1805 104.152 44.1805 103.433C44.1805 102.715 44.3438 102.071 44.6705 101.501C44.9971 100.932 45.4451 100.489 46.0145 100.171C46.5838 99.8539 47.2231 99.6952 47.9325 99.6952C48.6418 99.6952 49.2811 99.8539 49.8505 100.171C50.4198 100.489 50.8631 100.932 51.1805 101.501C51.5071 102.071 51.6705 102.715 51.6705 103.433C51.6705 104.152 51.5071 104.796 51.1805 105.365C50.8631 105.935 50.4198 106.383 49.8505 106.709C49.2811 107.027 48.6418 107.185 47.9325 107.185ZM47.9325 106.303C48.4551 106.303 48.9218 106.187 49.3325 105.953C49.7525 105.711 50.0791 105.37 50.3125 104.931C50.5458 104.493 50.6625 103.993 50.6625 103.433C50.6625 102.873 50.5458 102.374 50.3125 101.935C50.0791 101.497 49.7525 101.161 49.3325 100.927C48.9218 100.685 48.4551 100.563 47.9325 100.563C47.4098 100.563 46.9385 100.685 46.5185 100.927C46.1078 101.161 45.7811 101.497 45.5385 101.935C45.3051 102.374 45.1885 102.873 45.1885 103.433C45.1885 103.993 45.3051 104.493 45.5385 104.931C45.7811 105.37 46.1078 105.711 46.5185 105.953C46.9385 106.187 47.4098 106.303 47.9325 106.303ZM59.9891 103.839H58.3931V107.115H57.3991V103.839H55.8031L53.5491 107.115H52.3591L55.0051 103.321L52.5691 99.7512H53.6471L55.8031 102.985H57.3991V99.7512H58.3931V102.985H59.9891L62.1591 99.7512H63.2371L60.8011 103.335L63.4471 107.115H62.2571L59.9891 103.839ZM65.1015 99.7512H66.0955V103.013H70.7295V99.7512H71.7235V107.115H70.7295V103.867H66.0955V107.115H65.1015V99.7512ZM77.5868 107.185C76.8774 107.185 76.2381 107.027 75.6688 106.709C75.0994 106.383 74.6514 105.935 74.3248 105.365C73.9981 104.796 73.8348 104.152 73.8348 103.433C73.8348 102.715 73.9981 102.071 74.3248 101.501C74.6514 100.932 75.0994 100.489 75.6688 100.171C76.2381 99.8539 76.8774 99.6952 77.5868 99.6952C78.2961 99.6952 78.9354 99.8539 79.5048 100.171C80.0741 100.489 80.5174 100.932 80.8348 101.501C81.1614 102.071 81.3248 102.715 81.3248 103.433C81.3248 104.152 81.1614 104.796 80.8348 105.365C80.5174 105.935 80.0741 106.383 79.5048 106.709C78.9354 107.027 78.2961 107.185 77.5868 107.185ZM77.5868 106.303C78.1094 106.303 78.5761 106.187 78.9868 105.953C79.4068 105.711 79.7334 105.37 79.9668 104.931C80.2001 104.493 80.3168 103.993 80.3168 103.433C80.3168 102.873 80.2001 102.374 79.9668 101.935C79.7334 101.497 79.4068 101.161 78.9868 100.927C78.5761 100.685 78.1094 100.563 77.5868 100.563C77.0641 100.563 76.5928 100.685 76.1728 100.927C75.7621 101.161 75.4354 101.497 75.1928 101.935C74.9594 102.374 74.8428 102.873 74.8428 103.433C74.8428 103.993 74.9594 104.493 75.1928 104.931C75.4354 105.37 75.7621 105.711 76.1728 105.953C76.5928 106.187 77.0641 106.303 77.5868 106.303ZM93.7212 99.7512V107.115H92.7272V100.633H88.1072V107.115H87.1132V99.7512H93.7212ZM100.341 99.6952C101.031 99.6952 101.657 99.8539 102.217 100.171C102.777 100.479 103.215 100.918 103.533 101.487C103.85 102.057 104.009 102.705 104.009 103.433C104.009 104.171 103.85 104.824 103.533 105.393C103.215 105.963 102.777 106.406 102.217 106.723C101.666 107.031 101.041 107.185 100.341 107.185C99.7435 107.185 99.2021 107.064 98.7168 106.821C98.2408 106.569 97.8488 106.205 97.5408 105.729V109.831H96.5468V99.7512H97.4988V101.207C97.7975 100.722 98.1895 100.349 98.6748 100.087C99.1695 99.8259 99.7248 99.6952 100.341 99.6952ZM100.271 106.303C100.784 106.303 101.251 106.187 101.671 105.953C102.091 105.711 102.417 105.37 102.651 104.931C102.893 104.493 103.015 103.993 103.015 103.433C103.015 102.873 102.893 102.379 102.651 101.949C102.417 101.511 102.091 101.17 101.671 100.927C101.251 100.685 100.784 100.563 100.271 100.563C99.7481 100.563 99.2768 100.685 98.8568 100.927C98.4461 101.17 98.1195 101.511 97.8768 101.949C97.6435 102.379 97.5268 102.873 97.5268 103.433C97.5268 103.993 97.6435 104.493 97.8768 104.931C98.1195 105.37 98.4461 105.711 98.8568 105.953C99.2768 106.187 99.7481 106.303 100.271 106.303ZM106.144 99.7512H107.138V105.603L112.052 99.7512H112.934V107.115H111.94V101.263L107.04 107.115H106.144V99.7512ZM120.991 100.633H116.777V107.115H115.783V99.7512H120.991V100.633ZM127.997 99.7512V107.115H127.003V100.633H123.475L123.377 102.453C123.302 103.984 123.125 105.16 122.845 105.981C122.565 106.803 122.065 107.213 121.347 107.213C121.151 107.213 120.913 107.176 120.633 107.101L120.703 106.247C120.871 106.285 120.987 106.303 121.053 106.303C121.435 106.303 121.725 106.126 121.921 105.771C122.117 105.417 122.247 104.978 122.312 104.455C122.378 103.933 122.434 103.242 122.481 102.383L122.607 99.7512H127.997ZM133.356 99.6952C134.318 99.6952 135.055 99.9379 135.568 100.423C136.082 100.899 136.338 101.609 136.338 102.551V107.115H135.386V105.967C135.162 106.35 134.831 106.649 134.392 106.863C133.963 107.078 133.45 107.185 132.852 107.185C132.031 107.185 131.378 106.989 130.892 106.597C130.407 106.205 130.164 105.687 130.164 105.043C130.164 104.418 130.388 103.914 130.836 103.531C131.294 103.149 132.017 102.957 133.006 102.957H135.344V102.509C135.344 101.875 135.167 101.394 134.812 101.067C134.458 100.731 133.94 100.563 133.258 100.563C132.792 100.563 132.344 100.643 131.914 100.801C131.485 100.951 131.116 101.161 130.808 101.431L130.36 100.689C130.734 100.372 131.182 100.129 131.704 99.9612C132.227 99.7839 132.778 99.6952 133.356 99.6952ZM133.006 106.401C133.566 106.401 134.047 106.275 134.448 106.023C134.85 105.762 135.148 105.389 135.344 104.903V103.699H133.034C131.774 103.699 131.144 104.138 131.144 105.015C131.144 105.445 131.308 105.785 131.634 106.037C131.961 106.28 132.418 106.401 133.006 106.401ZM142.064 107.185C141.336 107.185 140.683 107.027 140.104 106.709C139.535 106.392 139.087 105.949 138.76 105.379C138.434 104.801 138.27 104.152 138.27 103.433C138.27 102.715 138.434 102.071 138.76 101.501C139.087 100.932 139.535 100.489 140.104 100.171C140.683 99.8539 141.336 99.6952 142.064 99.6952C142.699 99.6952 143.264 99.8212 143.758 100.073C144.262 100.316 144.659 100.675 144.948 101.151L144.206 101.655C143.964 101.291 143.656 101.021 143.282 100.843C142.909 100.657 142.503 100.563 142.064 100.563C141.532 100.563 141.052 100.685 140.622 100.927C140.202 101.161 139.871 101.497 139.628 101.935C139.395 102.374 139.278 102.873 139.278 103.433C139.278 104.003 139.395 104.507 139.628 104.945C139.871 105.375 140.202 105.711 140.622 105.953C141.052 106.187 141.532 106.303 142.064 106.303C142.503 106.303 142.909 106.215 143.282 106.037C143.656 105.86 143.964 105.589 144.206 105.225L144.948 105.729C144.659 106.205 144.262 106.569 143.758 106.821C143.254 107.064 142.69 107.185 142.064 107.185ZM146.873 99.7512H147.867V105.603L152.781 99.7512H153.663V107.115H152.669V101.263L147.769 107.115H146.873V99.7512ZM161.692 100.633H158.906V107.115H157.912V100.633H155.126V99.7512H161.692V100.633ZM166.293 102.355C167.217 102.365 167.917 102.57 168.393 102.971C168.878 103.373 169.121 103.951 169.121 104.707C169.121 105.491 168.86 106.093 168.337 106.513C167.824 106.933 167.077 107.139 166.097 107.129L163.129 107.115V99.7512H164.123V102.327L166.293 102.355ZM166.041 106.373C166.722 106.383 167.236 106.247 167.581 105.967C167.936 105.678 168.113 105.258 168.113 104.707C168.113 104.166 167.94 103.765 167.595 103.503C167.25 103.242 166.732 103.107 166.041 103.097L164.123 103.069V106.345L166.041 106.373ZM179.89 100.633H175.676V107.115H174.682V99.7512H179.89V100.633ZM184.022 107.185C183.313 107.185 182.674 107.027 182.104 106.709C181.535 106.383 181.087 105.935 180.76 105.365C180.434 104.796 180.27 104.152 180.27 103.433C180.27 102.715 180.434 102.071 180.76 101.501C181.087 100.932 181.535 100.489 182.104 100.171C182.674 99.8539 183.313 99.6952 184.022 99.6952C184.732 99.6952 185.371 99.8539 185.94 100.171C186.51 100.489 186.953 100.932 187.27 101.501C187.597 102.071 187.76 102.715 187.76 103.433C187.76 104.152 187.597 104.796 187.27 105.365C186.953 105.935 186.51 106.383 185.94 106.709C185.371 107.027 184.732 107.185 184.022 107.185ZM184.022 106.303C184.545 106.303 185.012 106.187 185.422 105.953C185.842 105.711 186.169 105.37 186.402 104.931C186.636 104.493 186.752 103.993 186.752 103.433C186.752 102.873 186.636 102.374 186.402 101.935C186.169 101.497 185.842 101.161 185.422 100.927C185.012 100.685 184.545 100.563 184.022 100.563C183.5 100.563 183.028 100.685 182.608 100.927C182.198 101.161 181.871 101.497 181.628 101.935C181.395 102.374 181.278 102.873 181.278 103.433C181.278 103.993 181.395 104.493 181.628 104.931C181.871 105.37 182.198 105.711 182.608 105.953C183.028 106.187 183.5 106.303 184.022 106.303ZM192.965 107.185C192.237 107.185 191.583 107.027 191.005 106.709C190.435 106.392 189.987 105.949 189.661 105.379C189.334 104.801 189.171 104.152 189.171 103.433C189.171 102.715 189.334 102.071 189.661 101.501C189.987 100.932 190.435 100.489 191.005 100.171C191.583 99.8539 192.237 99.6952 192.965 99.6952C193.599 99.6952 194.164 99.8212 194.659 100.073C195.163 100.316 195.559 100.675 195.849 101.151L195.107 101.655C194.864 101.291 194.556 101.021 194.183 100.843C193.809 100.657 193.403 100.563 192.965 100.563C192.433 100.563 191.952 100.685 191.523 100.927C191.103 101.161 190.771 101.497 190.529 101.935C190.295 102.374 190.179 102.873 190.179 103.433C190.179 104.003 190.295 104.507 190.529 104.945C190.771 105.375 191.103 105.711 191.523 105.953C191.952 106.187 192.433 106.303 192.965 106.303C193.403 106.303 193.809 106.215 194.183 106.037C194.556 105.86 194.864 105.589 195.107 105.225L195.849 105.729C195.559 106.205 195.163 106.569 194.659 106.821C194.155 107.064 193.59 107.185 192.965 107.185ZM202.817 100.633H200.031V107.115H199.037V100.633H196.251V99.7512H202.817V100.633ZM210.352 103.741H204.192C204.248 104.507 204.542 105.127 205.074 105.603C205.606 106.07 206.278 106.303 207.09 106.303C207.547 106.303 207.967 106.224 208.35 106.065C208.733 105.897 209.064 105.655 209.344 105.337L209.904 105.981C209.577 106.373 209.167 106.672 208.672 106.877C208.187 107.083 207.65 107.185 207.062 107.185C206.306 107.185 205.634 107.027 205.046 106.709C204.467 106.383 204.015 105.935 203.688 105.365C203.361 104.796 203.198 104.152 203.198 103.433C203.198 102.715 203.352 102.071 203.66 101.501C203.977 100.932 204.407 100.489 204.948 100.171C205.499 99.8539 206.115 99.6952 206.796 99.6952C207.477 99.6952 208.089 99.8539 208.63 100.171C209.171 100.489 209.596 100.932 209.904 101.501C210.212 102.061 210.366 102.705 210.366 103.433L210.352 103.741ZM206.796 100.549C206.087 100.549 205.489 100.778 205.004 101.235C204.528 101.683 204.257 102.271 204.192 102.999H209.414C209.349 102.271 209.073 101.683 208.588 101.235C208.112 100.778 207.515 100.549 206.796 100.549ZM212.566 99.7512H213.56V105.603L218.474 99.7512H219.356V107.115H218.362V101.263L213.462 107.115H212.566V99.7512ZM215.912 98.6872C215.278 98.6872 214.774 98.5286 214.4 98.2112C214.027 97.8939 213.836 97.4459 213.826 96.8672H214.54C214.55 97.2312 214.68 97.5252 214.932 97.7492C215.184 97.9639 215.511 98.0712 215.912 98.0712C216.314 98.0712 216.64 97.9639 216.892 97.7492C217.154 97.5252 217.289 97.2312 217.298 96.8672H218.012C218.003 97.4459 217.807 97.8939 217.424 98.2112C217.051 98.5286 216.547 98.6872 215.912 98.6872ZM33.08 127.831C32.5573 126.973 32.156 125.988 31.876 124.877C31.596 123.757 31.456 122.558 31.456 121.279C31.456 120.001 31.596 118.801 31.876 117.681C32.156 116.552 32.5573 115.567 33.08 114.727H34.032C33.4813 115.67 33.0753 116.683 32.814 117.765C32.562 118.848 32.436 120.019 32.436 121.279C32.436 122.539 32.562 123.711 32.814 124.793C33.0753 125.876 33.4813 126.889 34.032 127.831H33.08ZM43.0394 124.247V126.893H42.1014V125.115H35.5074V126.893H34.5694V124.247H34.9894C35.484 124.219 35.82 123.855 35.9974 123.155C36.1747 122.455 36.296 121.475 36.3614 120.215L36.4594 117.751H41.8914V124.247H43.0394ZM37.2714 120.271C37.2247 121.317 37.136 122.18 37.0054 122.861C36.8747 123.533 36.6414 123.995 36.3054 124.247H40.8974V118.633H37.3554L37.2714 120.271ZM48.0145 125.185C47.3052 125.185 46.6658 125.027 46.0965 124.709C45.5272 124.383 45.0792 123.935 44.7525 123.365C44.4258 122.796 44.2625 122.152 44.2625 121.433C44.2625 120.715 44.4258 120.071 44.7525 119.501C45.0792 118.932 45.5272 118.489 46.0965 118.171C46.6658 117.854 47.3052 117.695 48.0145 117.695C48.7238 117.695 49.3632 117.854 49.9325 118.171C50.5018 118.489 50.9452 118.932 51.2625 119.501C51.5892 120.071 51.7525 120.715 51.7525 121.433C51.7525 122.152 51.5892 122.796 51.2625 123.365C50.9452 123.935 50.5018 124.383 49.9325 124.709C49.3632 125.027 48.7238 125.185 48.0145 125.185ZM48.0145 124.303C48.5372 124.303 49.0038 124.187 49.4145 123.953C49.8345 123.711 50.1612 123.37 50.3945 122.931C50.6278 122.493 50.7445 121.993 50.7445 121.433C50.7445 120.873 50.6278 120.374 50.3945 119.935C50.1612 119.497 49.8345 119.161 49.4145 118.927C49.0038 118.685 48.5372 118.563 48.0145 118.563C47.4918 118.563 47.0205 118.685 46.6005 118.927C46.1898 119.161 45.8632 119.497 45.6205 119.935C45.3872 120.374 45.2705 120.873 45.2705 121.433C45.2705 121.993 45.3872 122.493 45.6205 122.931C45.8632 123.37 46.1898 123.711 46.6005 123.953C47.0205 124.187 47.4918 124.303 48.0145 124.303ZM59.571 115.315V125.115H58.563V116.211H56.253V115.315H59.571ZM65.8195 125.199C65.0635 125.199 64.3869 124.999 63.7895 124.597C63.2015 124.196 62.7395 123.622 62.4035 122.875C62.0769 122.119 61.9135 121.233 61.9135 120.215C61.9135 119.198 62.0769 118.316 62.4035 117.569C62.7395 116.813 63.2015 116.235 63.7895 115.833C64.3869 115.432 65.0635 115.231 65.8195 115.231C66.5755 115.231 67.2475 115.432 67.8355 115.833C68.4329 116.235 68.8995 116.813 69.2355 117.569C69.5715 118.316 69.7395 119.198 69.7395 120.215C69.7395 121.233 69.5715 122.119 69.2355 122.875C68.8995 123.622 68.4329 124.196 67.8355 124.597C67.2475 124.999 66.5755 125.199 65.8195 125.199ZM65.8195 124.275C66.3889 124.275 66.8882 124.117 67.3175 123.799C67.7562 123.482 68.0969 123.02 68.3395 122.413C68.5822 121.807 68.7035 121.074 68.7035 120.215C68.7035 119.357 68.5822 118.624 68.3395 118.017C68.0969 117.411 67.7562 116.949 67.3175 116.631C66.8882 116.314 66.3889 116.155 65.8195 116.155C65.2502 116.155 64.7462 116.314 64.3075 116.631C63.8782 116.949 63.5422 117.411 63.2995 118.017C63.0569 118.624 62.9355 119.357 62.9355 120.215C62.9355 121.074 63.0569 121.807 63.2995 122.413C63.5422 123.02 63.8782 123.482 64.3075 123.799C64.7462 124.117 65.2502 124.275 65.8195 124.275ZM81.0911 117.751V125.115H80.0971V122.049C79.2478 122.423 78.4125 122.609 77.5911 122.609C76.7045 122.609 76.0138 122.409 75.5191 122.007C75.0245 121.597 74.7771 120.985 74.7771 120.173V117.751H75.7711V120.117C75.7711 120.668 75.9485 121.088 76.3031 121.377C76.6578 121.657 77.1478 121.797 77.7731 121.797C78.4638 121.797 79.2385 121.615 80.0971 121.251V117.751H81.0911ZM90.354 121.741H84.194C84.25 122.507 84.544 123.127 85.076 123.603C85.608 124.07 86.28 124.303 87.092 124.303C87.5493 124.303 87.9693 124.224 88.352 124.065C88.7347 123.897 89.066 123.655 89.346 123.337L89.906 123.981C89.5793 124.373 89.1687 124.672 88.674 124.877C88.1887 125.083 87.652 125.185 87.064 125.185C86.308 125.185 85.636 125.027 85.048 124.709C84.4693 124.383 84.0167 123.935 83.69 123.365C83.3633 122.796 83.2 122.152 83.2 121.433C83.2 120.715 83.354 120.071 83.662 119.501C83.9793 118.932 84.4087 118.489 84.95 118.171C85.5007 117.854 86.1167 117.695 86.798 117.695C87.4793 117.695 88.0907 117.854 88.632 118.171C89.1733 118.489 89.598 118.932 89.906 119.501C90.214 120.061 90.368 120.705 90.368 121.433L90.354 121.741ZM86.798 118.549C86.0887 118.549 85.4913 118.778 85.006 119.235C84.53 119.683 84.2593 120.271 84.194 120.999H89.416C89.3507 120.271 89.0753 119.683 88.59 119.235C88.114 118.778 87.5167 118.549 86.798 118.549ZM98.4379 117.751V125.115H97.4439V118.633H93.9159L93.8179 120.453C93.7432 121.984 93.5659 123.16 93.2859 123.981C93.0059 124.803 92.5066 125.213 91.7879 125.213C91.5919 125.213 91.3539 125.176 91.0739 125.101L91.1439 124.247C91.3119 124.285 91.4286 124.303 91.4939 124.303C91.8766 124.303 92.1659 124.126 92.3619 123.771C92.5579 123.417 92.6886 122.978 92.7539 122.455C92.8192 121.933 92.8752 121.242 92.9219 120.383L93.0479 117.751H98.4379ZM104.302 125.185C103.592 125.185 102.953 125.027 102.384 124.709C101.814 124.383 101.366 123.935 101.04 123.365C100.713 122.796 100.55 122.152 100.55 121.433C100.55 120.715 100.713 120.071 101.04 119.501C101.366 118.932 101.814 118.489 102.384 118.171C102.953 117.854 103.592 117.695 104.302 117.695C105.011 117.695 105.65 117.854 106.22 118.171C106.789 118.489 107.232 118.932 107.55 119.501C107.876 120.071 108.04 120.715 108.04 121.433C108.04 122.152 107.876 122.796 107.55 123.365C107.232 123.935 106.789 124.383 106.22 124.709C105.65 125.027 105.011 125.185 104.302 125.185ZM104.302 124.303C104.824 124.303 105.291 124.187 105.702 123.953C106.122 123.711 106.448 123.37 106.682 122.931C106.915 122.493 107.032 121.993 107.032 121.433C107.032 120.873 106.915 120.374 106.682 119.935C106.448 119.497 106.122 119.161 105.702 118.927C105.291 118.685 104.824 118.563 104.302 118.563C103.779 118.563 103.308 118.685 102.888 118.927C102.477 119.161 102.15 119.497 101.908 119.935C101.674 120.374 101.558 120.873 101.558 121.433C101.558 121.993 101.674 122.493 101.908 122.931C102.15 123.37 102.477 123.711 102.888 123.953C103.308 124.187 103.779 124.303 104.302 124.303ZM114.854 121.307C115.853 121.541 116.352 122.143 116.352 123.113C116.352 123.757 116.114 124.252 115.638 124.597C115.162 124.943 114.453 125.115 113.51 125.115H110.164V117.751H113.412C114.252 117.751 114.91 117.915 115.386 118.241C115.862 118.568 116.1 119.035 116.1 119.641C116.1 120.043 115.988 120.388 115.764 120.677C115.549 120.957 115.246 121.167 114.854 121.307ZM111.13 121.027H113.342C113.911 121.027 114.345 120.92 114.644 120.705C114.952 120.491 115.106 120.178 115.106 119.767C115.106 119.357 114.952 119.049 114.644 118.843C114.345 118.638 113.911 118.535 113.342 118.535H111.13V121.027ZM113.468 124.331C114.103 124.331 114.579 124.229 114.896 124.023C115.213 123.818 115.372 123.496 115.372 123.057C115.372 122.619 115.227 122.297 114.938 122.091C114.649 121.877 114.191 121.769 113.566 121.769H111.13V124.331H113.468ZM125.122 121.741H118.962C119.018 122.507 119.312 123.127 119.844 123.603C120.376 124.07 121.048 124.303 121.86 124.303C122.317 124.303 122.737 124.224 123.12 124.065C123.502 123.897 123.834 123.655 124.114 123.337L124.674 123.981C124.347 124.373 123.936 124.672 123.442 124.877C122.956 125.083 122.42 125.185 121.832 125.185C121.076 125.185 120.404 125.027 119.816 124.709C119.237 124.383 118.784 123.935 118.458 123.365C118.131 122.796 117.968 122.152 117.968 121.433C117.968 120.715 118.122 120.071 118.43 119.501C118.747 118.932 119.176 118.489 119.718 118.171C120.268 117.854 120.884 117.695 121.566 117.695C122.247 117.695 122.858 117.854 123.4 118.171C123.941 118.489 124.366 118.932 124.674 119.501C124.982 120.061 125.136 120.705 125.136 121.433L125.122 121.741ZM121.566 118.549C120.856 118.549 120.259 118.778 119.774 119.235C119.298 119.683 119.027 120.271 118.962 120.999H124.184C124.118 120.271 123.843 119.683 123.358 119.235C122.882 118.778 122.284 118.549 121.566 118.549ZM130.01 121.839H128.33V125.115H127.336V117.751H128.33V120.985H130.024L132.614 117.751H133.692L130.794 121.321L133.902 125.115H132.726L130.01 121.839ZM134.617 127.831C135.167 126.889 135.573 125.881 135.835 124.807C136.096 123.725 136.227 122.549 136.227 121.279C136.227 120.01 136.096 118.839 135.835 117.765C135.573 116.683 135.167 115.67 134.617 114.727H135.569C136.091 115.567 136.493 116.552 136.773 117.681C137.062 118.801 137.207 120.001 137.207 121.279C137.207 122.558 137.067 123.757 136.787 124.877C136.507 125.997 136.101 126.982 135.569 127.831H134.617Z" fill="#1F2041" fill-opacity="0.5"/>
<rect x="0.5" y="92.6152" width="19" height="19" rx="3.5" fill="white" stroke="#BC9CFF"/>
<path d="M6.46439 100.408L10.707 104.65L9.29282 106.065L5.05018 101.822L6.46439 100.408Z" fill="url(#paint2_linear)"/>
<path d="M13.5355 98.9935L14.9497 100.408L9.29282 106.065L7.8786 104.65L13.5355 98.9935Z" fill="url(#paint3_linear)"/>
<rect y="31.5576" width="20" height="20" rx="4" fill="white"/>
<rect x="0.5" y="32.0576" width="19" height="19" rx="3.5" stroke="#1F2041" stroke-opacity="0.25"/>
<path d="M41.5663 36.3152V46.1152H40.5723V38.2752L36.7223 44.8692H36.2323L32.3823 38.3172V46.1152H31.3883V36.3152H32.2423L36.4983 43.5812L40.7123 36.3152H41.5663ZM47.6688 46.1852C46.9595 46.1852 46.3201 46.0266 45.7508 45.7092C45.1815 45.3826 44.7335 44.9346 44.4068 44.3652C44.0801 43.7959 43.9168 43.1519 43.9168 42.4332C43.9168 41.7146 44.0801 41.0706 44.4068 40.5012C44.7335 39.9319 45.1815 39.4886 45.7508 39.1712C46.3201 38.8539 46.9595 38.6952 47.6688 38.6952C48.3781 38.6952 49.0175 38.8539 49.5868 39.1712C50.1561 39.4886 50.5995 39.9319 50.9168 40.5012C51.2435 41.0706 51.4068 41.7146 51.4068 42.4332C51.4068 43.1519 51.2435 43.7959 50.9168 44.3652C50.5995 44.9346 50.1561 45.3826 49.5868 45.7092C49.0175 46.0266 48.3781 46.1852 47.6688 46.1852ZM47.6688 45.3032C48.1915 45.3032 48.6581 45.1866 49.0688 44.9532C49.4888 44.7106 49.8155 44.3699 50.0488 43.9312C50.2821 43.4926 50.3988 42.9932 50.3988 42.4332C50.3988 41.8732 50.2821 41.3739 50.0488 40.9352C49.8155 40.4966 49.4888 40.1606 49.0688 39.9272C48.6581 39.6846 48.1915 39.5632 47.6688 39.5632C47.1461 39.5632 46.6748 39.6846 46.2548 39.9272C45.8441 40.1606 45.5175 40.4966 45.2748 40.9352C45.0415 41.3739 44.9248 41.8732 44.9248 42.4332C44.9248 42.9932 45.0415 43.4926 45.2748 43.9312C45.5175 44.3699 45.8441 44.7106 46.2548 44.9532C46.6748 45.1866 47.1461 45.3032 47.6688 45.3032ZM59.7254 42.8392H58.1294V46.1152H57.1354V42.8392H55.5394L53.2854 46.1152H52.0954L54.7414 42.3212L52.3054 38.7512H53.3834L55.5394 41.9852H57.1354V38.7512H58.1294V41.9852H59.7254L61.8954 38.7512H62.9734L60.5374 42.3352L63.1834 46.1152H61.9934L59.7254 42.8392ZM64.8378 38.7512H65.8318V42.0132H70.4658V38.7512H71.4598V46.1152H70.4658V42.8672H65.8318V46.1152H64.8378V38.7512ZM77.3231 46.1852C76.6138 46.1852 75.9744 46.0266 75.4051 45.7092C74.8358 45.3826 74.3878 44.9346 74.0611 44.3652C73.7344 43.7959 73.5711 43.1519 73.5711 42.4332C73.5711 41.7146 73.7344 41.0706 74.0611 40.5012C74.3878 39.9319 74.8358 39.4886 75.4051 39.1712C75.9744 38.8539 76.6138 38.6952 77.3231 38.6952C78.0324 38.6952 78.6718 38.8539 79.2411 39.1712C79.8104 39.4886 80.2538 39.9319 80.5711 40.5012C80.8978 41.0706 81.0611 41.7146 81.0611 42.4332C81.0611 43.1519 80.8978 43.7959 80.5711 44.3652C80.2538 44.9346 79.8104 45.3826 79.2411 45.7092C78.6718 46.0266 78.0324 46.1852 77.3231 46.1852ZM77.3231 45.3032C77.8458 45.3032 78.3124 45.1866 78.7231 44.9532C79.1431 44.7106 79.4698 44.3699 79.7031 43.9312C79.9364 43.4926 80.0531 42.9932 80.0531 42.4332C80.0531 41.8732 79.9364 41.3739 79.7031 40.9352C79.4698 40.4966 79.1431 40.1606 78.7231 39.9272C78.3124 39.6846 77.8458 39.5632 77.3231 39.5632C76.8004 39.5632 76.3291 39.6846 75.9091 39.9272C75.4984 40.1606 75.1718 40.4966 74.9291 40.9352C74.6958 41.3739 74.5791 41.8732 74.5791 42.4332C74.5791 42.9932 74.6958 43.4926 74.9291 43.9312C75.1718 44.3699 75.4984 44.7106 75.9091 44.9532C76.3291 45.1866 76.8004 45.3032 77.3231 45.3032ZM89.5235 42.8392H87.8435V46.1152H86.8495V38.7512H87.8435V41.9852H89.5375L92.1275 38.7512H93.2055L90.3075 42.3212L93.4155 46.1152H92.2395L89.5235 42.8392ZM100.818 38.7512L97.1365 46.9972C96.8378 47.6879 96.4925 48.1779 96.1005 48.4672C95.7085 48.7566 95.2372 48.9012 94.6865 48.9012C94.3318 48.9012 94.0005 48.8452 93.6925 48.7332C93.3845 48.6212 93.1185 48.4532 92.8945 48.2292L93.3565 47.4872C93.7298 47.8606 94.1778 48.0472 94.7005 48.0472C95.0365 48.0472 95.3212 47.9539 95.5545 47.7672C95.7972 47.5806 96.0212 47.2632 96.2265 46.8152L96.5485 46.1012L93.2585 38.7512H94.2945L97.0665 45.0092L99.8385 38.7512H100.818ZM106.161 38.6952C106.852 38.6952 107.477 38.8539 108.037 39.1712C108.597 39.4792 109.036 39.9179 109.353 40.4872C109.67 41.0566 109.829 41.7052 109.829 42.4332C109.829 43.1706 109.67 43.8239 109.353 44.3932C109.036 44.9626 108.597 45.4059 108.037 45.7232C107.486 46.0312 106.861 46.1852 106.161 46.1852C105.564 46.1852 105.022 46.0639 104.537 45.8212C104.061 45.5692 103.669 45.2052 103.361 44.7292V48.8312H102.367V38.7512H103.319V40.2072C103.618 39.7219 104.01 39.3486 104.495 39.0872C104.99 38.8259 105.545 38.6952 106.161 38.6952ZM106.091 45.3032C106.604 45.3032 107.071 45.1866 107.491 44.9532C107.911 44.7106 108.238 44.3699 108.471 43.9312C108.714 43.4926 108.835 42.9932 108.835 42.4332C108.835 41.8732 108.714 41.3786 108.471 40.9492C108.238 40.5106 107.911 40.1699 107.491 39.9272C107.071 39.6846 106.604 39.5632 106.091 39.5632C105.568 39.5632 105.097 39.6846 104.677 39.9272C104.266 40.1699 103.94 40.5106 103.697 40.9492C103.464 41.3786 103.347 41.8732 103.347 42.4332C103.347 42.9932 103.464 43.4926 103.697 43.9312C103.94 44.3699 104.266 44.7106 104.677 44.9532C105.097 45.1866 105.568 45.3032 106.091 45.3032ZM111.965 38.7512H112.959V44.6032L117.873 38.7512H118.755V46.1152H117.761V40.2632L112.861 46.1152H111.965V38.7512ZM126.783 39.6332H123.997V46.1152H123.003V39.6332H120.217V38.7512H126.783V39.6332ZM131.385 41.3552C132.309 41.3646 133.009 41.5699 133.485 41.9712C133.97 42.3726 134.213 42.9512 134.213 43.7072C134.213 44.4912 133.951 45.0932 133.429 45.5132C132.915 45.9332 132.169 46.1386 131.189 46.1292L128.221 46.1152V38.7512H129.215V41.3272L131.385 41.3552ZM131.133 45.3732C131.814 45.3826 132.327 45.2472 132.673 44.9672C133.027 44.6779 133.205 44.2579 133.205 43.7072C133.205 43.1659 133.032 42.7646 132.687 42.5032C132.341 42.2419 131.823 42.1066 131.133 42.0972L129.215 42.0692V45.3452L131.133 45.3732Z" fill="#1F2041" fill-opacity="0.5"/>
<defs>
<linearGradient id="paint0_linear" x1="12.8284" y1="68.2864" x2="7.1715" y2="73.9432" gradientUnits="userSpaceOnUse">
<stop stop-color="#BC9CFF"/>
<stop offset="1" stop-color="#8BA4F9"/>
</linearGradient>
<linearGradient id="paint1_linear" x1="12.8284" y1="68.2864" x2="7.1715" y2="73.9432" gradientUnits="userSpaceOnUse">
<stop stop-color="#BC9CFF"/>
<stop offset="1" stop-color="#8BA4F9"/>
</linearGradient>
<linearGradient id="paint2_linear" x1="12.8284" y1="98.2864" x2="7.1715" y2="103.943" gradientUnits="userSpaceOnUse">
<stop stop-color="#BC9CFF"/>
<stop offset="1" stop-color="#8BA4F9"/>
</linearGradient>
<linearGradient id="paint3_linear" x1="12.8284" y1="98.2864" x2="7.1715" y2="103.943" gradientUnits="userSpaceOnUse">
<stop stop-color="#BC9CFF"/>
<stop offset="1" stop-color="#8BA4F9"/>
</linearGradient>
</defs>
</svg>
