<svg width="221" height="55" viewBox="0 0 221 55" fill="none" xmlns="http://www.w3.org/2000/svg">
<path d="M6.348 12L4.728 9.66H4.632H2.94V12H0.996V3.6H4.632C5.376 3.6 6.02 3.724 6.564 3.972C7.116 4.22 7.54 4.572 7.836 5.028C8.132 5.484 8.28 6.024 8.28 6.648C8.28 7.272 8.128 7.812 7.824 8.268C7.528 8.716 7.104 9.06 6.552 9.3L8.436 12H6.348ZM6.312 6.648C6.312 6.176 6.16 5.816 5.856 5.568C5.552 5.312 5.108 5.184 4.524 5.184H2.94V8.112H4.524C5.108 8.112 5.552 7.984 5.856 7.728C6.16 7.472 6.312 7.112 6.312 6.648ZM15.3522 10.2H11.4522L10.7082 12H8.71622L12.4602 3.6H14.3802L18.1362 12H16.0962L15.3522 10.2ZM14.7402 8.724L13.4082 5.508L12.0762 8.724H14.7402ZM19.0077 3.6H22.8237C23.7357 3.6 24.5397 3.776 25.2357 4.128C25.9397 4.472 26.4837 4.96 26.8677 5.592C27.2597 6.224 27.4557 6.96 27.4557 7.8C27.4557 8.64 27.2597 9.376 26.8677 10.008C26.4837 10.64 25.9397 11.132 25.2357 11.484C24.5397 11.828 23.7357 12 22.8237 12H19.0077V3.6ZM22.7277 10.404C23.5677 10.404 24.2357 10.172 24.7317 9.708C25.2357 9.236 25.4877 8.6 25.4877 7.8C25.4877 7 25.2357 6.368 24.7317 5.904C24.2357 5.432 23.5677 5.196 22.7277 5.196H20.9517V10.404H22.7277ZM28.9218 3.6H30.8658V12H28.9218V3.6ZM36.9273 12.144C36.0553 12.144 35.2673 11.956 34.5633 11.58C33.8673 11.204 33.3193 10.688 32.9193 10.032C32.5273 9.368 32.3313 8.624 32.3313 7.8C32.3313 6.976 32.5273 6.236 32.9193 5.58C33.3193 4.916 33.8673 4.396 34.5633 4.02C35.2673 3.644 36.0553 3.456 36.9273 3.456C37.7993 3.456 38.5833 3.644 39.2793 4.02C39.9753 4.396 40.5233 4.916 40.9233 5.58C41.3233 6.236 41.5233 6.976 41.5233 7.8C41.5233 8.624 41.3233 9.368 40.9233 10.032C40.5233 10.688 39.9753 11.204 39.2793 11.58C38.5833 11.956 37.7993 12.144 36.9273 12.144ZM36.9273 10.488C37.4233 10.488 37.8713 10.376 38.2713 10.152C38.6713 9.92 38.9833 9.6 39.2073 9.192C39.4393 8.784 39.5553 8.32 39.5553 7.8C39.5553 7.28 39.4393 6.816 39.2073 6.408C38.9833 6 38.6713 5.684 38.2713 5.46C37.8713 5.228 37.4233 5.112 36.9273 5.112C36.4313 5.112 35.9833 5.228 35.5833 5.46C35.1833 5.684 34.8673 6 34.6353 6.408C34.4113 6.816 34.2993 7.28 34.2993 7.8C34.2993 8.32 34.4113 8.784 34.6353 9.192C34.8673 9.6 35.1833 9.92 35.5833 10.152C35.9833 10.376 36.4313 10.488 36.9273 10.488ZM52.5507 7.632C53.0307 7.784 53.4067 8.04 53.6787 8.4C53.9507 8.752 54.0867 9.188 54.0867 9.708C54.0867 10.444 53.7987 11.012 53.2227 11.412C52.6547 11.804 51.8227 12 50.7267 12H46.3827V3.6H50.4867C51.5107 3.6 52.2947 3.796 52.8387 4.188C53.3907 4.58 53.6667 5.112 53.6667 5.784C53.6667 6.192 53.5667 6.556 53.3667 6.876C53.1747 7.196 52.9027 7.448 52.5507 7.632ZM48.3147 5.064V7.044H50.2467C50.7267 7.044 51.0907 6.96 51.3387 6.792C51.5867 6.624 51.7107 6.376 51.7107 6.048C51.7107 5.72 51.5867 5.476 51.3387 5.316C51.0907 5.148 50.7267 5.064 50.2467 5.064H48.3147ZM50.5827 10.536C51.0947 10.536 51.4787 10.452 51.7347 10.284C51.9987 10.116 52.1307 9.856 52.1307 9.504C52.1307 8.808 51.6147 8.46 50.5827 8.46H48.3147V10.536H50.5827ZM59.2905 12.144C58.0905 12.144 57.1545 11.812 56.4825 11.148C55.8185 10.484 55.4865 9.536 55.4865 8.304V3.6H57.4305V8.232C57.4305 9.736 58.0545 10.488 59.3025 10.488C59.9105 10.488 60.3745 10.308 60.6945 9.948C61.0145 9.58 61.1745 9.008 61.1745 8.232V3.6H63.0945V8.304C63.0945 9.536 62.7585 10.484 62.0865 11.148C61.4225 11.812 60.4905 12.144 59.2905 12.144ZM66.6149 5.184H63.9269V3.6H71.2469V5.184H68.5589V12H66.6149V5.184ZM74.1501 5.184H71.4621V3.6H78.7821V5.184H76.0941V12H74.1501V5.184ZM83.7788 12.144C82.9068 12.144 82.1188 11.956 81.4148 11.58C80.7188 11.204 80.1708 10.688 79.7708 10.032C79.3788 9.368 79.1828 8.624 79.1828 7.8C79.1828 6.976 79.3788 6.236 79.7708 5.58C80.1708 4.916 80.7188 4.396 81.4148 4.02C82.1188 3.644 82.9068 3.456 83.7788 3.456C84.6508 3.456 85.4348 3.644 86.1308 4.02C86.8268 4.396 87.3748 4.916 87.7748 5.58C88.1748 6.236 88.3748 6.976 88.3748 7.8C88.3748 8.624 88.1748 9.368 87.7748 10.032C87.3748 10.688 86.8268 11.204 86.1308 11.58C85.4348 11.956 84.6508 12.144 83.7788 12.144ZM83.7788 10.488C84.2748 10.488 84.7228 10.376 85.1228 10.152C85.5228 9.92 85.8348 9.6 86.0588 9.192C86.2908 8.784 86.4068 8.32 86.4068 7.8C86.4068 7.28 86.2908 6.816 86.0588 6.408C85.8348 6 85.5228 5.684 85.1228 5.46C84.7228 5.228 84.2748 5.112 83.7788 5.112C83.2828 5.112 82.8348 5.228 82.4348 5.46C82.0348 5.684 81.7188 6 81.4868 6.408C81.2628 6.816 81.1508 7.28 81.1508 7.8C81.1508 8.32 81.2628 8.784 81.4868 9.192C81.7188 9.6 82.0348 9.92 82.4348 10.152C82.8348 10.376 83.2828 10.488 83.7788 10.488ZM97.5398 3.6V12H95.9438L91.7558 6.9V12H89.8358V3.6H91.4438L95.6198 8.7V3.6H97.5398ZM102.287 12.144C101.623 12.144 100.979 12.056 100.355 11.88C99.7393 11.696 99.2433 11.46 98.8673 11.172L99.5273 9.708C99.8873 9.972 100.315 10.184 100.811 10.344C101.307 10.504 101.803 10.584 102.299 10.584C102.851 10.584 103.259 10.504 103.523 10.344C103.787 10.176 103.919 9.956 103.919 9.684C103.919 9.484 103.839 9.32 103.679 9.192C103.527 9.056 103.327 8.948 103.079 8.868C102.839 8.788 102.511 8.7 102.095 8.604C101.455 8.452 100.931 8.3 100.523 8.148C100.115 7.996 99.7633 7.752 99.4673 7.416C99.1793 7.08 99.0353 6.632 99.0353 6.072C99.0353 5.584 99.1673 5.144 99.4313 4.752C99.6953 4.352 100.091 4.036 100.619 3.804C101.155 3.572 101.807 3.456 102.575 3.456C103.111 3.456 103.635 3.52 104.147 3.648C104.659 3.776 105.107 3.96 105.491 4.2L104.891 5.676C104.115 5.236 103.339 5.016 102.563 5.016C102.019 5.016 101.615 5.104 101.351 5.28C101.095 5.456 100.967 5.688 100.967 5.976C100.967 6.264 101.115 6.48 101.411 6.624C101.715 6.76 102.175 6.896 102.791 7.032C103.431 7.184 103.955 7.336 104.363 7.488C104.771 7.64 105.119 7.88 105.407 8.208C105.703 8.536 105.851 8.98 105.851 9.54C105.851 10.02 105.715 10.46 105.443 10.86C105.179 11.252 104.779 11.564 104.243 11.796C103.707 12.028 103.055 12.144 102.287 12.144Z" fill="#1F2041"/>
<rect x="0.5" y="31.5" width="19" height="19" rx="9.5" fill="white" stroke="#BC9CFF"/>
<rect x="4" y="35" width="12" height="12" rx="6" fill="url(#paint0_linear)"/>
<path d="M41.83 35.2V45H40.836V37.16L36.986 43.754H36.496L32.646 37.202V45H31.652V35.2H32.506L36.762 42.466L40.976 35.2H41.83ZM51.1525 37.636L47.4705 45.882C47.1718 46.5727 46.8265 47.0627 46.4345 47.352C46.0425 47.6413 45.5711 47.786 45.0205 47.786C44.6658 47.786 44.3345 47.73 44.0265 47.618C43.7185 47.506 43.4525 47.338 43.2285 47.114L43.6905 46.372C44.0638 46.7453 44.5118 46.932 45.0345 46.932C45.3705 46.932 45.6551 46.8387 45.8885 46.652C46.1311 46.4653 46.3551 46.148 46.5605 45.7L46.8825 44.986L43.5925 37.636H44.6285L47.4005 43.894L50.1725 37.636H51.1525ZM58.7313 41.724H57.1353V45H56.1413V41.724H54.5453L52.2913 45H51.1013L53.7473 41.206L51.3113 37.636H52.3893L54.5453 40.87H56.1413V37.636H57.1353V40.87H58.7313L60.9013 37.636H61.9793L59.5433 41.22L62.1893 45H60.9993L58.7313 41.724ZM69.265 37.636V45H68.271V41.934C67.4216 42.3073 66.5863 42.494 65.765 42.494C64.8783 42.494 64.1876 42.2933 63.693 41.892C63.1983 41.4813 62.951 40.87 62.951 40.058V37.636H63.945V40.002C63.945 40.5527 64.1223 40.9727 64.477 41.262C64.8316 41.542 65.3216 41.682 65.947 41.682C66.6376 41.682 67.4123 41.5 68.271 41.136V37.636H69.265ZM72.0878 37.636H73.0818V43.488L77.9958 37.636H78.8778V45H77.8838V39.148L72.9838 45H72.0878V37.636ZM81.7265 37.636H82.7205V40.898H87.3545V37.636H88.3485V45H87.3545V41.752H82.7205V45H81.7265V37.636ZM93.7078 37.58C94.6691 37.58 95.4064 37.8227 95.9198 38.308C96.4331 38.784 96.6898 39.4933 96.6898 40.436V45H95.7378V43.852C95.5138 44.2347 95.1824 44.5333 94.7438 44.748C94.3144 44.9627 93.8011 45.07 93.2038 45.07C92.3824 45.07 91.7291 44.874 91.2438 44.482C90.7584 44.09 90.5158 43.572 90.5158 42.928C90.5158 42.3027 90.7398 41.7987 91.1878 41.416C91.6451 41.0333 92.3684 40.842 93.3578 40.842H95.6958V40.394C95.6958 39.7593 95.5184 39.2787 95.1638 38.952C94.8091 38.616 94.2911 38.448 93.6098 38.448C93.1431 38.448 92.6951 38.5273 92.2658 38.686C91.8364 38.8353 91.4678 39.0453 91.1598 39.316L90.7118 38.574C91.0851 38.2567 91.5331 38.014 92.0558 37.846C92.5784 37.6687 93.1291 37.58 93.7078 37.58ZM93.3578 44.286C93.9178 44.286 94.3984 44.16 94.7998 43.908C95.2011 43.6467 95.4998 43.2733 95.6958 42.788V41.584H93.3858C92.1258 41.584 91.4958 42.0227 91.4958 42.9C91.4958 43.3293 91.6591 43.67 91.9858 43.922C92.3124 44.1647 92.7698 44.286 93.3578 44.286Z" fill="#1F2041" fill-opacity="0.75"/>
<rect x="118" y="31" width="20" height="20" rx="10" fill="white"/>
<rect x="118.5" y="31.5" width="19" height="19" rx="9.5" stroke="#1F2041" stroke-opacity="0.25"/>
<path d="M157.354 40.0636H155.324V44.5576H154.316V40.0636H152.272L149.276 44.5576H148.072L151.432 39.5036L148.324 34.7576H149.444L152.258 39.1536H154.316V34.7576H155.324V39.1536H157.354L160.182 34.7576H161.302L158.194 39.5036L161.554 44.5576H160.35L157.354 40.0636ZM169.317 41.1836H163.157C163.213 41.949 163.507 42.5696 164.039 43.0456C164.571 43.5123 165.243 43.7456 166.055 43.7456C166.512 43.7456 166.932 43.6663 167.315 43.5076C167.698 43.3396 168.029 43.097 168.309 42.7796L168.869 43.4236C168.542 43.8156 168.132 44.1143 167.637 44.3196C167.152 44.525 166.615 44.6276 166.027 44.6276C165.271 44.6276 164.599 44.469 164.011 44.1516C163.432 43.825 162.98 43.377 162.653 42.8076C162.326 42.2383 162.163 41.5943 162.163 40.8756C162.163 40.157 162.317 39.513 162.625 38.9436C162.942 38.3743 163.372 37.931 163.913 37.6136C164.464 37.2963 165.08 37.1376 165.761 37.1376C166.442 37.1376 167.054 37.2963 167.595 37.6136C168.136 37.931 168.561 38.3743 168.869 38.9436C169.177 39.5036 169.331 40.1476 169.331 40.8756L169.317 41.1836ZM165.761 37.9916C165.052 37.9916 164.454 38.2203 163.969 38.6776C163.493 39.1256 163.222 39.7136 163.157 40.4416H168.379C168.314 39.7136 168.038 39.1256 167.553 38.6776C167.077 38.2203 166.48 37.9916 165.761 37.9916ZM171.531 37.1936H172.525V40.4556H177.159V37.1936H178.153V44.5576H177.159V41.3096H172.525V44.5576H171.531V37.1936ZM191.142 37.1936V44.5576H180.978V37.1936H181.972V43.6896H185.584V37.1936H186.578V43.6896H190.148V37.1936H191.142ZM192.276 43.6896V46.1676H191.338V44.5576H190.092V43.6896H192.276ZM193.98 37.1936H194.974V43.0456L199.888 37.1936H200.77V44.5576H199.776V38.7056L194.876 44.5576H193.98V37.1936ZM203.619 37.1936H204.613V40.4556H209.247V37.1936H210.241V44.5576H209.247V41.3096H204.613V44.5576H203.619V37.1936ZM215.6 37.1376C216.562 37.1376 217.299 37.3803 217.812 37.8656C218.326 38.3416 218.582 39.051 218.582 39.9936V44.5576H217.63V43.4096C217.406 43.7923 217.075 44.091 216.636 44.3056C216.207 44.5203 215.694 44.6276 215.096 44.6276C214.275 44.6276 213.622 44.4316 213.136 44.0396C212.651 43.6476 212.408 43.1296 212.408 42.4856C212.408 41.8603 212.632 41.3563 213.08 40.9736C213.538 40.591 214.261 40.3996 215.25 40.3996H217.588V39.9516C217.588 39.317 217.411 38.8363 217.056 38.5096C216.702 38.1736 216.184 38.0056 215.502 38.0056C215.036 38.0056 214.588 38.085 214.158 38.2436C213.729 38.393 213.36 38.603 213.052 38.8736L212.604 38.1316C212.978 37.8143 213.426 37.5716 213.948 37.4036C214.471 37.2263 215.022 37.1376 215.6 37.1376ZM215.25 43.8436C215.81 43.8436 216.291 43.7176 216.692 43.4656C217.094 43.2043 217.392 42.831 217.588 42.3456V41.1416H215.278C214.018 41.1416 213.388 41.5803 213.388 42.4576C213.388 42.887 213.552 43.2276 213.878 43.4796C214.205 43.7223 214.662 43.8436 215.25 43.8436Z" fill="#1F2041" fill-opacity="0.5"/>
<defs>
<linearGradient id="paint0_linear" x1="10" y1="35" x2="10" y2="47" gradientUnits="userSpaceOnUse">
<stop stop-color="#BC9CFF"/>
<stop offset="1" stop-color="#8BA4F9"/>
</linearGradient>
</defs>
</svg>
