<svg width="260" height="90" viewBox="0 0 260 90" fill="none" xmlns="http://www.w3.org/2000/svg">
<path d="M0.084 4.14562H7.296V5.95762H4.776V12.5576H2.58V5.95762H0.084V4.14562ZM11.7732 4.01362C12.6292 4.01362 13.4012 4.20162 14.0892 4.57762C14.7852 4.95362 15.3292 5.46962 15.7212 6.12562C16.1212 6.78162 16.3212 7.51762 16.3212 8.33362C16.3212 9.15762 16.1212 9.90162 15.7212 10.5656C15.3292 11.2296 14.7852 11.7536 14.0892 12.1376C13.4012 12.5216 12.6292 12.7136 11.7732 12.7136C10.9172 12.7136 10.1412 12.5256 9.44522 12.1496C8.75722 11.7656 8.21322 11.2416 7.81322 10.5776C7.42122 9.90562 7.22522 9.15762 7.22522 8.33362C7.22522 7.51762 7.42122 6.78162 7.81322 6.12562C8.21322 5.46962 8.75722 4.95362 9.44522 4.57762C10.1412 4.20162 10.9172 4.01362 11.7732 4.01362ZM11.7972 5.87362C11.3812 5.87362 10.9932 5.98162 10.6332 6.19762C10.2812 6.41362 10.0012 6.71362 9.79322 7.09762C9.58522 7.47362 9.48122 7.88962 9.48122 8.34562C9.48122 8.80962 9.58522 9.23362 9.79322 9.61762C10.0092 9.99362 10.2932 10.2936 10.6452 10.5176C10.9972 10.7336 11.3812 10.8416 11.7972 10.8416C12.2132 10.8416 12.5932 10.7336 12.9372 10.5176C13.2892 10.2936 13.5652 9.99362 13.7652 9.61762C13.9652 9.23362 14.0652 8.80962 14.0652 8.34562C14.0652 7.88962 13.9652 7.47362 13.7652 7.09762C13.5652 6.71362 13.2892 6.41362 12.9372 6.19762C12.5932 5.98162 12.2132 5.87362 11.7972 5.87362ZM22.8371 8.26162H24.7331V11.6096C24.2851 11.9376 23.7331 12.2056 23.0771 12.4136C22.4291 12.6136 21.8131 12.7136 21.2291 12.7136C20.3811 12.7136 19.6131 12.5256 18.9251 12.1496C18.2451 11.7656 17.7091 11.2416 17.3171 10.5776C16.9251 9.91362 16.7291 9.16962 16.7291 8.34562C16.7291 7.52962 16.9291 6.79362 17.3291 6.13762C17.7371 5.47362 18.2931 4.95362 18.9971 4.57762C19.7091 4.20162 20.5011 4.01362 21.3731 4.01362C21.9971 4.01362 22.6211 4.12962 23.2451 4.36162C23.8691 4.58562 24.3971 4.88962 24.8291 5.27362L23.5811 6.80962C23.2771 6.52162 22.9251 6.29362 22.5251 6.12562C22.1331 5.95762 21.7451 5.87362 21.3611 5.87362C20.9131 5.87362 20.5091 5.98162 20.1491 6.19762C19.7891 6.41362 19.5051 6.70962 19.2971 7.08562C19.0891 7.46162 18.9851 7.88162 18.9851 8.34562C18.9851 8.81762 19.0891 9.24562 19.2971 9.62962C19.5051 10.0056 19.7931 10.3016 20.1611 10.5176C20.5291 10.7336 20.9371 10.8416 21.3851 10.8416C21.8091 10.8416 22.2931 10.7056 22.8371 10.4336V8.26162ZM31.7551 8.26162H33.6511V11.6096C33.2031 11.9376 32.6511 12.2056 31.9951 12.4136C31.3471 12.6136 30.7311 12.7136 30.1471 12.7136C29.2991 12.7136 28.5311 12.5256 27.8431 12.1496C27.1631 11.7656 26.6271 11.2416 26.2351 10.5776C25.8431 9.91362 25.6471 9.16962 25.6471 8.34562C25.6471 7.52962 25.8471 6.79362 26.2471 6.13762C26.6551 5.47362 27.2111 4.95362 27.9151 4.57762C28.6271 4.20162 29.4191 4.01362 30.2911 4.01362C30.9151 4.01362 31.5391 4.12962 32.1631 4.36162C32.7871 4.58562 33.3151 4.88962 33.7471 5.27362L32.4991 6.80962C32.1951 6.52162 31.8431 6.29362 31.4431 6.12562C31.0511 5.95762 30.6631 5.87362 30.2791 5.87362C29.8311 5.87362 29.4271 5.98162 29.0671 6.19762C28.7071 6.41362 28.4231 6.70962 28.2151 7.08562C28.0071 7.46162 27.9031 7.88162 27.9031 8.34562C27.9031 8.81762 28.0071 9.24562 28.2151 9.62962C28.4231 10.0056 28.7111 10.3016 29.0791 10.5176C29.4471 10.7336 29.8551 10.8416 30.3031 10.8416C30.7271 10.8416 31.2111 10.7056 31.7551 10.4336V8.26162ZM35.1051 4.14562H37.3011V10.6856H40.8651V12.5576H35.1051V4.14562ZM41.8668 4.14562H48.5028V5.89762H44.0628V7.46962H48.0708V9.20962L44.0628 9.22162V10.8056H48.6228V12.5576H41.8668V4.14562Z" fill="#1F2041"/>
<rect x="0.5" y="32.0576" width="39" height="19" rx="9.5" fill="white" stroke="#BC9CFF"/>
<rect x="24" y="35.5576" width="12" height="12" rx="6" fill="url(#paint0_linear)"/>
<path d="M59.898 35.7576V45.5576H58.876V36.6536H52.674V45.5576H51.652V35.7576H59.898ZM66.0047 45.6276C65.2954 45.6276 64.6561 45.469 64.0867 45.1516C63.5174 44.825 63.0694 44.377 62.7427 43.8076C62.4161 43.2383 62.2527 42.5943 62.2527 41.8756C62.2527 41.157 62.4161 40.513 62.7427 39.9436C63.0694 39.3743 63.5174 38.931 64.0867 38.6136C64.6561 38.2963 65.2954 38.1376 66.0047 38.1376C66.7141 38.1376 67.3534 38.2963 67.9227 38.6136C68.4921 38.931 68.9354 39.3743 69.2527 39.9436C69.5794 40.513 69.7427 41.157 69.7427 41.8756C69.7427 42.5943 69.5794 43.2383 69.2527 43.8076C68.9354 44.377 68.4921 44.825 67.9227 45.1516C67.3534 45.469 66.7141 45.6276 66.0047 45.6276ZM66.0047 44.7456C66.5274 44.7456 66.9941 44.629 67.4047 44.3956C67.8247 44.153 68.1514 43.8123 68.3847 43.3736C68.6181 42.935 68.7347 42.4356 68.7347 41.8756C68.7347 41.3156 68.6181 40.8163 68.3847 40.3776C68.1514 39.939 67.8247 39.603 67.4047 39.3696C66.9941 39.127 66.5274 39.0056 66.0047 39.0056C65.4821 39.0056 65.0107 39.127 64.5907 39.3696C64.1801 39.603 63.8534 39.939 63.6107 40.3776C63.3774 40.8163 63.2607 41.3156 63.2607 41.8756C63.2607 42.4356 63.3774 42.935 63.6107 43.3736C63.8534 43.8123 64.1801 44.153 64.5907 44.3956C65.0107 44.629 65.4821 44.7456 66.0047 44.7456ZM77.8461 38.1936V45.5576H76.8521V39.0756H73.3241L73.2261 40.8956C73.1514 42.4263 72.9741 43.6023 72.6941 44.4236C72.4141 45.245 71.9148 45.6556 71.1961 45.6556C71.0001 45.6556 70.7621 45.6183 70.4821 45.5436L70.5521 44.6896C70.7201 44.727 70.8368 44.7456 70.9021 44.7456C71.2848 44.7456 71.5741 44.5683 71.7701 44.2136C71.9661 43.859 72.0968 43.4203 72.1621 42.8976C72.2274 42.375 72.2834 41.6843 72.3301 40.8256L72.4561 38.1936H77.8461ZM86.9298 38.1936L83.2478 46.4396C82.9491 47.1303 82.6038 47.6203 82.2118 47.9096C81.8198 48.199 81.3485 48.3436 80.7978 48.3436C80.4431 48.3436 80.1118 48.2876 79.8038 48.1756C79.4958 48.0636 79.2298 47.8956 79.0058 47.6716L79.4678 46.9296C79.8411 47.303 80.2891 47.4896 80.8118 47.4896C81.1478 47.4896 81.4325 47.3963 81.6658 47.2096C81.9085 47.023 82.1325 46.7056 82.3378 46.2576L82.6598 45.5436L79.3698 38.1936H80.4058L83.1778 44.4516L85.9498 38.1936H86.9298ZM94.0365 38.1936V45.5576H93.0425V42.4916C92.1931 42.865 91.3578 43.0516 90.5365 43.0516C89.6498 43.0516 88.9591 42.851 88.4645 42.4496C87.9698 42.039 87.7225 41.4276 87.7225 40.6156V38.1936H88.7165V40.5596C88.7165 41.1103 88.8938 41.5303 89.2485 41.8196C89.6031 42.0996 90.0931 42.2396 90.7185 42.2396C91.4091 42.2396 92.1838 42.0576 93.0425 41.6936V38.1936H94.0365ZM99.3933 38.1376C100.355 38.1376 101.092 38.3803 101.605 38.8656C102.119 39.3416 102.375 40.051 102.375 40.9936V45.5576H101.423V44.4096C101.199 44.7923 100.868 45.091 100.429 45.3056C100 45.5203 99.4866 45.6276 98.8893 45.6276C98.068 45.6276 97.4146 45.4316 96.9293 45.0396C96.444 44.6476 96.2013 44.1296 96.2013 43.4856C96.2013 42.8603 96.4253 42.3563 96.8733 41.9736C97.3306 41.591 98.054 41.3996 99.0433 41.3996H101.381V40.9516C101.381 40.317 101.204 39.8363 100.849 39.5096C100.495 39.1736 99.9766 39.0056 99.2953 39.0056C98.8286 39.0056 98.3806 39.085 97.9513 39.2436C97.522 39.393 97.1533 39.603 96.8453 39.8736L96.3973 39.1316C96.7706 38.8143 97.2186 38.5716 97.7413 38.4036C98.264 38.2263 98.8146 38.1376 99.3933 38.1376ZM99.0433 44.8436C99.6033 44.8436 100.084 44.7176 100.485 44.4656C100.887 44.2043 101.185 43.831 101.381 43.3456V42.1416H99.0713C97.8113 42.1416 97.1813 42.5803 97.1813 43.4576C97.1813 43.887 97.3446 44.2276 97.6713 44.4796C97.998 44.7223 98.4553 44.8436 99.0433 44.8436ZM110.201 39.0756H107.415V45.5576H106.421V39.0756H103.635V38.1936H110.201V39.0756ZM114.803 40.7976C115.727 40.807 116.427 41.0123 116.903 41.4136C117.388 41.815 117.631 42.3936 117.631 43.1496C117.631 43.9336 117.369 44.5356 116.847 44.9556C116.333 45.3756 115.587 45.581 114.607 45.5716L111.639 45.5576V38.1936H112.633V40.7696L114.803 40.7976ZM114.551 44.8156C115.232 44.825 115.745 44.6896 116.091 44.4096C116.445 44.1203 116.623 43.7003 116.623 43.1496C116.623 42.6083 116.45 42.207 116.105 41.9456C115.759 41.6843 115.241 41.549 114.551 41.5396L112.633 41.5116V44.7876L114.551 44.8156ZM126.271 45.6276C125.543 45.6276 124.89 45.469 124.311 45.1516C123.742 44.8343 123.294 44.391 122.967 43.8216C122.641 43.243 122.477 42.5943 122.477 41.8756C122.477 41.157 122.641 40.513 122.967 39.9436C123.294 39.3743 123.742 38.931 124.311 38.6136C124.89 38.2963 125.543 38.1376 126.271 38.1376C126.906 38.1376 127.471 38.2636 127.965 38.5156C128.469 38.7583 128.866 39.1176 129.155 39.5936L128.413 40.0976C128.171 39.7336 127.863 39.463 127.489 39.2856C127.116 39.099 126.71 39.0056 126.271 39.0056C125.739 39.0056 125.259 39.127 124.829 39.3696C124.409 39.603 124.078 39.939 123.835 40.3776C123.602 40.8163 123.485 41.3156 123.485 41.8756C123.485 42.445 123.602 42.949 123.835 43.3876C124.078 43.817 124.409 44.153 124.829 44.3956C125.259 44.629 125.739 44.7456 126.271 44.7456C126.71 44.7456 127.116 44.657 127.489 44.4796C127.863 44.3023 128.171 44.0316 128.413 43.6676L129.155 44.1716C128.866 44.6476 128.469 45.0116 127.965 45.2636C127.461 45.5063 126.897 45.6276 126.271 45.6276ZM137.688 38.1936V45.5576H136.694V39.0756H132.074V45.5576H131.08V38.1936H137.688ZM146.954 42.1836H140.794C140.85 42.949 141.144 43.5696 141.676 44.0456C142.208 44.5123 142.88 44.7456 143.692 44.7456C144.149 44.7456 144.569 44.6663 144.952 44.5076C145.334 44.3396 145.666 44.097 145.946 43.7796L146.506 44.4236C146.179 44.8156 145.768 45.1143 145.274 45.3196C144.788 45.525 144.252 45.6276 143.664 45.6276C142.908 45.6276 142.236 45.469 141.648 45.1516C141.069 44.825 140.616 44.377 140.29 43.8076C139.963 43.2383 139.8 42.5943 139.8 41.8756C139.8 41.157 139.954 40.513 140.262 39.9436C140.579 39.3743 141.008 38.931 141.55 38.6136C142.1 38.2963 142.716 38.1376 143.398 38.1376C144.079 38.1376 144.69 38.2963 145.232 38.6136C145.773 38.931 146.198 39.3743 146.506 39.9436C146.814 40.5036 146.968 41.1476 146.968 41.8756L146.954 42.1836ZM143.398 38.9916C142.688 38.9916 142.091 39.2203 141.606 39.6776C141.13 40.1256 140.859 40.7136 140.794 41.4416H146.016C145.95 40.7136 145.675 40.1256 145.19 39.6776C144.714 39.2203 144.116 38.9916 143.398 38.9916ZM156.84 44.6896V47.4056H155.902V45.5576H149.168V38.1936H150.162V44.6896H154.656V38.1936H155.65V44.6896H156.84ZM165.346 38.1936V45.5576H164.352V39.0756H159.732V45.5576H158.738V38.1936H165.346ZM171.966 38.1376C172.656 38.1376 173.282 38.2963 173.842 38.6136C174.402 38.9216 174.84 39.3603 175.158 39.9296C175.475 40.499 175.634 41.1476 175.634 41.8756C175.634 42.613 175.475 43.2663 175.158 43.8356C174.84 44.405 174.402 44.8483 173.842 45.1656C173.291 45.4736 172.666 45.6276 171.966 45.6276C171.368 45.6276 170.827 45.5063 170.342 45.2636C169.866 45.0116 169.474 44.6476 169.166 44.1716V48.2736H168.172V38.1936H169.124V39.6496C169.422 39.1643 169.814 38.791 170.3 38.5296C170.794 38.2683 171.35 38.1376 171.966 38.1376ZM171.896 44.7456C172.409 44.7456 172.876 44.629 173.296 44.3956C173.716 44.153 174.042 43.8123 174.276 43.3736C174.518 42.935 174.64 42.4356 174.64 41.8756C174.64 41.3156 174.518 40.821 174.276 40.3916C174.042 39.953 173.716 39.6123 173.296 39.3696C172.876 39.127 172.409 39.0056 171.896 39.0056C171.373 39.0056 170.902 39.127 170.482 39.3696C170.071 39.6123 169.744 39.953 169.502 40.3916C169.268 40.821 169.152 41.3156 169.152 41.8756C169.152 42.4356 169.268 42.935 169.502 43.3736C169.744 43.8123 170.071 44.153 170.482 44.3956C170.902 44.629 171.373 44.7456 171.896 44.7456ZM184.209 42.1836H178.049C178.105 42.949 178.399 43.5696 178.931 44.0456C179.463 44.5123 180.135 44.7456 180.947 44.7456C181.405 44.7456 181.825 44.6663 182.207 44.5076C182.59 44.3396 182.921 44.097 183.201 43.7796L183.761 44.4236C183.435 44.8156 183.024 45.1143 182.529 45.3196C182.044 45.525 181.507 45.6276 180.919 45.6276C180.163 45.6276 179.491 45.469 178.903 45.1516C178.325 44.825 177.872 44.377 177.545 43.8076C177.219 43.2383 177.055 42.5943 177.055 41.8756C177.055 41.157 177.209 40.513 177.517 39.9436C177.835 39.3743 178.264 38.931 178.805 38.6136C179.356 38.2963 179.972 38.1376 180.653 38.1376C181.335 38.1376 181.946 38.2963 182.487 38.6136C183.029 38.931 183.453 39.3743 183.761 39.9436C184.069 40.5036 184.223 41.1476 184.223 41.8756L184.209 42.1836ZM180.653 38.9916C179.944 38.9916 179.347 39.2203 178.861 39.6776C178.385 40.1256 178.115 40.7136 178.049 41.4416H183.271C183.206 40.7136 182.931 40.1256 182.445 39.6776C181.969 39.2203 181.372 38.9916 180.653 38.9916ZM193.455 44.6896V47.3356H192.517V45.5576H185.923V47.3356H184.985V44.6896H185.405C185.9 44.6616 186.236 44.2976 186.413 43.5976C186.591 42.8976 186.712 41.9176 186.777 40.6576L186.875 38.1936H192.307V44.6896H193.455ZM187.687 40.7136C187.641 41.759 187.552 42.6223 187.421 43.3036C187.291 43.9756 187.057 44.4376 186.721 44.6896H191.313V39.0756H187.771L187.687 40.7136ZM201.413 38.1936V45.5576H200.419V39.0756H196.891L196.793 40.8956C196.718 42.4263 196.541 43.6023 196.261 44.4236C195.981 45.245 195.481 45.6556 194.763 45.6556C194.567 45.6556 194.329 45.6183 194.049 45.5436L194.119 44.6896C194.287 44.727 194.403 44.7456 194.469 44.7456C194.851 44.7456 195.141 44.5683 195.337 44.2136C195.533 43.859 195.663 43.4203 195.729 42.8976C195.794 42.375 195.85 41.6843 195.897 40.8256L196.023 38.1936H201.413ZM207.276 45.6276C206.567 45.6276 205.928 45.469 205.358 45.1516C204.789 44.825 204.341 44.377 204.014 43.8076C203.688 43.2383 203.524 42.5943 203.524 41.8756C203.524 41.157 203.688 40.513 204.014 39.9436C204.341 39.3743 204.789 38.931 205.358 38.6136C205.928 38.2963 206.567 38.1376 207.276 38.1376C207.986 38.1376 208.625 38.2963 209.194 38.6136C209.764 38.931 210.207 39.3743 210.524 39.9436C210.851 40.513 211.014 41.157 211.014 41.8756C211.014 42.5943 210.851 43.2383 210.524 43.8076C210.207 44.377 209.764 44.825 209.194 45.1516C208.625 45.469 207.986 45.6276 207.276 45.6276ZM207.276 44.7456C207.799 44.7456 208.266 44.629 208.676 44.3956C209.096 44.153 209.423 43.8123 209.656 43.3736C209.89 42.935 210.006 42.4356 210.006 41.8756C210.006 41.3156 209.89 40.8163 209.656 40.3776C209.423 39.939 209.096 39.603 208.676 39.3696C208.266 39.127 207.799 39.0056 207.276 39.0056C206.754 39.0056 206.282 39.127 205.862 39.3696C205.452 39.603 205.125 39.939 204.882 40.3776C204.649 40.8163 204.532 41.3156 204.532 41.8756C204.532 42.4356 204.649 42.935 204.882 43.3736C205.125 43.8123 205.452 44.153 205.862 44.3956C206.282 44.629 206.754 44.7456 207.276 44.7456ZM219.333 42.2816H217.737V45.5576H216.743V42.2816H215.147L212.893 45.5576H211.703L214.349 41.7636L211.913 38.1936H212.991L215.147 41.4276H216.743V38.1936H217.737V41.4276H219.333L221.503 38.1936H222.581L220.145 41.7776L222.791 45.5576H221.601L219.333 42.2816ZM230.625 42.1836H224.465C224.521 42.949 224.815 43.5696 225.347 44.0456C225.879 44.5123 226.551 44.7456 227.363 44.7456C227.821 44.7456 228.241 44.6663 228.623 44.5076C229.006 44.3396 229.337 44.097 229.617 43.7796L230.177 44.4236C229.851 44.8156 229.44 45.1143 228.945 45.3196C228.46 45.525 227.923 45.6276 227.335 45.6276C226.579 45.6276 225.907 45.469 225.319 45.1516C224.741 44.825 224.288 44.377 223.961 43.8076C223.635 43.2383 223.471 42.5943 223.471 41.8756C223.471 41.157 223.625 40.513 223.933 39.9436C224.251 39.3743 224.68 38.931 225.221 38.6136C225.772 38.2963 226.388 38.1376 227.069 38.1376C227.751 38.1376 228.362 38.2963 228.903 38.6136C229.445 38.931 229.869 39.3743 230.177 39.9436C230.485 40.5036 230.639 41.1476 230.639 41.8756L230.625 42.1836ZM227.069 38.9916C226.36 38.9916 225.763 39.2203 225.277 39.6776C224.801 40.1256 224.531 40.7136 224.465 41.4416H229.687C229.622 40.7136 229.347 40.1256 228.861 39.6776C228.385 39.2203 227.788 38.9916 227.069 38.9916ZM232.84 38.1936H233.834V41.4556H238.468V38.1936H239.462V45.5576H238.468V42.3096H233.834V45.5576H232.84V38.1936ZM242.287 38.1936H243.281V44.0456L248.195 38.1936H249.077V45.5576H248.083V39.7056L243.183 45.5576H242.287V38.1936ZM257.582 38.1936V45.5576H256.672V43.1216H254.362H254.082L252.374 45.5576H251.296L253.13 42.9816C252.56 42.823 252.122 42.5523 251.814 42.1696C251.506 41.787 251.352 41.3016 251.352 40.7136C251.352 39.8923 251.632 39.267 252.192 38.8376C252.752 38.4083 253.517 38.1936 254.488 38.1936H257.582ZM252.36 40.7416C252.36 41.8336 253.055 42.3796 254.446 42.3796H256.672V39.0756H254.516C253.078 39.0756 252.36 39.631 252.36 40.7416Z" fill="#1F2041" fill-opacity="0.75"/>
<rect y="65.5576" width="40" height="20" rx="10" fill="white"/>
<rect x="0.5" y="66.0576" width="39" height="19" rx="9.5" stroke="#1F2041" stroke-opacity="0.25"/>
<rect x="4" y="69.5576" width="12" height="12" rx="6" fill="#1F2041" fill-opacity="0.25"/>
<path d="M59.898 69.7576V79.5576H58.876V70.6536H52.674V79.5576H51.652V69.7576H59.898ZM66.0047 79.6276C65.2954 79.6276 64.6561 79.469 64.0867 79.1516C63.5174 78.825 63.0694 78.377 62.7427 77.8076C62.4161 77.2383 62.2527 76.5943 62.2527 75.8756C62.2527 75.157 62.4161 74.513 62.7427 73.9436C63.0694 73.3743 63.5174 72.931 64.0867 72.6136C64.6561 72.2963 65.2954 72.1376 66.0047 72.1376C66.7141 72.1376 67.3534 72.2963 67.9227 72.6136C68.4921 72.931 68.9354 73.3743 69.2527 73.9436C69.5794 74.513 69.7427 75.157 69.7427 75.8756C69.7427 76.5943 69.5794 77.2383 69.2527 77.8076C68.9354 78.377 68.4921 78.825 67.9227 79.1516C67.3534 79.469 66.7141 79.6276 66.0047 79.6276ZM66.0047 78.7456C66.5274 78.7456 66.9941 78.629 67.4047 78.3956C67.8247 78.153 68.1514 77.8123 68.3847 77.3736C68.6181 76.935 68.7347 76.4356 68.7347 75.8756C68.7347 75.3156 68.6181 74.8163 68.3847 74.3776C68.1514 73.939 67.8247 73.603 67.4047 73.3696C66.9941 73.127 66.5274 73.0056 66.0047 73.0056C65.4821 73.0056 65.0107 73.127 64.5907 73.3696C64.1801 73.603 63.8534 73.939 63.6107 74.3776C63.3774 74.8163 63.2607 75.3156 63.2607 75.8756C63.2607 76.4356 63.3774 76.935 63.6107 77.3736C63.8534 77.8123 64.1801 78.153 64.5907 78.3956C65.0107 78.629 65.4821 78.7456 66.0047 78.7456ZM77.8461 72.1936V79.5576H76.8521V73.0756H73.3241L73.2261 74.8956C73.1514 76.4263 72.9741 77.6023 72.6941 78.4236C72.4141 79.245 71.9148 79.6556 71.1961 79.6556C71.0001 79.6556 70.7621 79.6183 70.4821 79.5436L70.5521 78.6896C70.7201 78.727 70.8368 78.7456 70.9021 78.7456C71.2848 78.7456 71.5741 78.5683 71.7701 78.2136C71.9661 77.859 72.0968 77.4203 72.1621 76.8976C72.2274 76.375 72.2834 75.6843 72.3301 74.8256L72.4561 72.1936H77.8461ZM86.9298 72.1936L83.2478 80.4396C82.9491 81.1303 82.6038 81.6203 82.2118 81.9096C81.8198 82.199 81.3485 82.3436 80.7978 82.3436C80.4431 82.3436 80.1118 82.2876 79.8038 82.1756C79.4958 82.0636 79.2298 81.8956 79.0058 81.6716L79.4678 80.9296C79.8411 81.303 80.2891 81.4896 80.8118 81.4896C81.1478 81.4896 81.4325 81.3963 81.6658 81.2096C81.9085 81.023 82.1325 80.7056 82.3378 80.2576L82.6598 79.5436L79.3698 72.1936H80.4058L83.1778 78.4516L85.9498 72.1936H86.9298ZM94.0365 72.1936V79.5576H93.0425V76.4916C92.1931 76.865 91.3578 77.0516 90.5365 77.0516C89.6498 77.0516 88.9591 76.851 88.4645 76.4496C87.9698 76.039 87.7225 75.4276 87.7225 74.6156V72.1936H88.7165V74.5596C88.7165 75.1103 88.8938 75.5303 89.2485 75.8196C89.6031 76.0996 90.0931 76.2396 90.7185 76.2396C91.4091 76.2396 92.1838 76.0576 93.0425 75.6936V72.1936H94.0365ZM99.3933 72.1376C100.355 72.1376 101.092 72.3803 101.605 72.8656C102.119 73.3416 102.375 74.051 102.375 74.9936V79.5576H101.423V78.4096C101.199 78.7923 100.868 79.091 100.429 79.3056C100 79.5203 99.4866 79.6276 98.8893 79.6276C98.068 79.6276 97.4146 79.4316 96.9293 79.0396C96.444 78.6476 96.2013 78.1296 96.2013 77.4856C96.2013 76.8603 96.4253 76.3563 96.8733 75.9736C97.3306 75.591 98.054 75.3996 99.0433 75.3996H101.381V74.9516C101.381 74.317 101.204 73.8363 100.849 73.5096C100.495 73.1736 99.9766 73.0056 99.2953 73.0056C98.8286 73.0056 98.3806 73.085 97.9513 73.2436C97.522 73.393 97.1533 73.603 96.8453 73.8736L96.3973 73.1316C96.7706 72.8143 97.2186 72.5716 97.7413 72.4036C98.264 72.2263 98.8146 72.1376 99.3933 72.1376ZM99.0433 78.8436C99.6033 78.8436 100.084 78.7176 100.485 78.4656C100.887 78.2043 101.185 77.831 101.381 77.3456V76.1416H99.0713C97.8113 76.1416 97.1813 76.5803 97.1813 77.4576C97.1813 77.887 97.3446 78.2276 97.6713 78.4796C97.998 78.7223 98.4553 78.8436 99.0433 78.8436ZM110.201 73.0756H107.415V79.5576H106.421V73.0756H103.635V72.1936H110.201V73.0756ZM114.803 74.7976C115.727 74.807 116.427 75.0123 116.903 75.4136C117.388 75.815 117.631 76.3936 117.631 77.1496C117.631 77.9336 117.369 78.5356 116.847 78.9556C116.333 79.3756 115.587 79.581 114.607 79.5716L111.639 79.5576V72.1936H112.633V74.7696L114.803 74.7976ZM114.551 78.8156C115.232 78.825 115.745 78.6896 116.091 78.4096C116.445 78.1203 116.623 77.7003 116.623 77.1496C116.623 76.6083 116.45 76.207 116.105 75.9456C115.759 75.6843 115.241 75.549 114.551 75.5396L112.633 75.5116V78.7876L114.551 78.8156ZM126.271 79.6276C125.543 79.6276 124.89 79.469 124.311 79.1516C123.742 78.8343 123.294 78.391 122.967 77.8216C122.641 77.243 122.477 76.5943 122.477 75.8756C122.477 75.157 122.641 74.513 122.967 73.9436C123.294 73.3743 123.742 72.931 124.311 72.6136C124.89 72.2963 125.543 72.1376 126.271 72.1376C126.906 72.1376 127.471 72.2636 127.965 72.5156C128.469 72.7583 128.866 73.1176 129.155 73.5936L128.413 74.0976C128.171 73.7336 127.863 73.463 127.489 73.2856C127.116 73.099 126.71 73.0056 126.271 73.0056C125.739 73.0056 125.259 73.127 124.829 73.3696C124.409 73.603 124.078 73.939 123.835 74.3776C123.602 74.8163 123.485 75.3156 123.485 75.8756C123.485 76.445 123.602 76.949 123.835 77.3876C124.078 77.817 124.409 78.153 124.829 78.3956C125.259 78.629 125.739 78.7456 126.271 78.7456C126.71 78.7456 127.116 78.657 127.489 78.4796C127.863 78.3023 128.171 78.0316 128.413 77.6676L129.155 78.1716C128.866 78.6476 128.469 79.0116 127.965 79.2636C127.461 79.5063 126.897 79.6276 126.271 79.6276ZM137.688 72.1936V79.5576H136.694V73.0756H132.074V79.5576H131.08V72.1936H137.688ZM146.954 76.1836H140.794C140.85 76.949 141.144 77.5696 141.676 78.0456C142.208 78.5123 142.88 78.7456 143.692 78.7456C144.149 78.7456 144.569 78.6663 144.952 78.5076C145.334 78.3396 145.666 78.097 145.946 77.7796L146.506 78.4236C146.179 78.8156 145.768 79.1143 145.274 79.3196C144.788 79.525 144.252 79.6276 143.664 79.6276C142.908 79.6276 142.236 79.469 141.648 79.1516C141.069 78.825 140.616 78.377 140.29 77.8076C139.963 77.2383 139.8 76.5943 139.8 75.8756C139.8 75.157 139.954 74.513 140.262 73.9436C140.579 73.3743 141.008 72.931 141.55 72.6136C142.1 72.2963 142.716 72.1376 143.398 72.1376C144.079 72.1376 144.69 72.2963 145.232 72.6136C145.773 72.931 146.198 73.3743 146.506 73.9436C146.814 74.5036 146.968 75.1476 146.968 75.8756L146.954 76.1836ZM143.398 72.9916C142.688 72.9916 142.091 73.2203 141.606 73.6776C141.13 74.1256 140.859 74.7136 140.794 75.4416H146.016C145.95 74.7136 145.675 74.1256 145.19 73.6776C144.714 73.2203 144.116 72.9916 143.398 72.9916ZM156.84 78.6896V81.4056H155.902V79.5576H149.168V72.1936H150.162V78.6896H154.656V72.1936H155.65V78.6896H156.84ZM165.346 72.1936V79.5576H164.352V73.0756H159.732V79.5576H158.738V72.1936H165.346ZM171.966 72.1376C172.656 72.1376 173.282 72.2963 173.842 72.6136C174.402 72.9216 174.84 73.3603 175.158 73.9296C175.475 74.499 175.634 75.1476 175.634 75.8756C175.634 76.613 175.475 77.2663 175.158 77.8356C174.84 78.405 174.402 78.8483 173.842 79.1656C173.291 79.4736 172.666 79.6276 171.966 79.6276C171.368 79.6276 170.827 79.5063 170.342 79.2636C169.866 79.0116 169.474 78.6476 169.166 78.1716V82.2736H168.172V72.1936H169.124V73.6496C169.422 73.1643 169.814 72.791 170.3 72.5296C170.794 72.2683 171.35 72.1376 171.966 72.1376ZM171.896 78.7456C172.409 78.7456 172.876 78.629 173.296 78.3956C173.716 78.153 174.042 77.8123 174.276 77.3736C174.518 76.935 174.64 76.4356 174.64 75.8756C174.64 75.3156 174.518 74.821 174.276 74.3916C174.042 73.953 173.716 73.6123 173.296 73.3696C172.876 73.127 172.409 73.0056 171.896 73.0056C171.373 73.0056 170.902 73.127 170.482 73.3696C170.071 73.6123 169.744 73.953 169.502 74.3916C169.268 74.821 169.152 75.3156 169.152 75.8756C169.152 76.4356 169.268 76.935 169.502 77.3736C169.744 77.8123 170.071 78.153 170.482 78.3956C170.902 78.629 171.373 78.7456 171.896 78.7456ZM184.209 76.1836H178.049C178.105 76.949 178.399 77.5696 178.931 78.0456C179.463 78.5123 180.135 78.7456 180.947 78.7456C181.405 78.7456 181.825 78.6663 182.207 78.5076C182.59 78.3396 182.921 78.097 183.201 77.7796L183.761 78.4236C183.435 78.8156 183.024 79.1143 182.529 79.3196C182.044 79.525 181.507 79.6276 180.919 79.6276C180.163 79.6276 179.491 79.469 178.903 79.1516C178.325 78.825 177.872 78.377 177.545 77.8076C177.219 77.2383 177.055 76.5943 177.055 75.8756C177.055 75.157 177.209 74.513 177.517 73.9436C177.835 73.3743 178.264 72.931 178.805 72.6136C179.356 72.2963 179.972 72.1376 180.653 72.1376C181.335 72.1376 181.946 72.2963 182.487 72.6136C183.029 72.931 183.453 73.3743 183.761 73.9436C184.069 74.5036 184.223 75.1476 184.223 75.8756L184.209 76.1836ZM180.653 72.9916C179.944 72.9916 179.347 73.2203 178.861 73.6776C178.385 74.1256 178.115 74.7136 178.049 75.4416H183.271C183.206 74.7136 182.931 74.1256 182.445 73.6776C181.969 73.2203 181.372 72.9916 180.653 72.9916ZM193.455 78.6896V81.3356H192.517V79.5576H185.923V81.3356H184.985V78.6896H185.405C185.9 78.6616 186.236 78.2976 186.413 77.5976C186.591 76.8976 186.712 75.9176 186.777 74.6576L186.875 72.1936H192.307V78.6896H193.455ZM187.687 74.7136C187.641 75.759 187.552 76.6223 187.421 77.3036C187.291 77.9756 187.057 78.4376 186.721 78.6896H191.313V73.0756H187.771L187.687 74.7136ZM201.413 72.1936V79.5576H200.419V73.0756H196.891L196.793 74.8956C196.718 76.4263 196.541 77.6023 196.261 78.4236C195.981 79.245 195.481 79.6556 194.763 79.6556C194.567 79.6556 194.329 79.6183 194.049 79.5436L194.119 78.6896C194.287 78.727 194.403 78.7456 194.469 78.7456C194.851 78.7456 195.141 78.5683 195.337 78.2136C195.533 77.859 195.663 77.4203 195.729 76.8976C195.794 76.375 195.85 75.6843 195.897 74.8256L196.023 72.1936H201.413ZM207.276 79.6276C206.567 79.6276 205.928 79.469 205.358 79.1516C204.789 78.825 204.341 78.377 204.014 77.8076C203.688 77.2383 203.524 76.5943 203.524 75.8756C203.524 75.157 203.688 74.513 204.014 73.9436C204.341 73.3743 204.789 72.931 205.358 72.6136C205.928 72.2963 206.567 72.1376 207.276 72.1376C207.986 72.1376 208.625 72.2963 209.194 72.6136C209.764 72.931 210.207 73.3743 210.524 73.9436C210.851 74.513 211.014 75.157 211.014 75.8756C211.014 76.5943 210.851 77.2383 210.524 77.8076C210.207 78.377 209.764 78.825 209.194 79.1516C208.625 79.469 207.986 79.6276 207.276 79.6276ZM207.276 78.7456C207.799 78.7456 208.266 78.629 208.676 78.3956C209.096 78.153 209.423 77.8123 209.656 77.3736C209.89 76.935 210.006 76.4356 210.006 75.8756C210.006 75.3156 209.89 74.8163 209.656 74.3776C209.423 73.939 209.096 73.603 208.676 73.3696C208.266 73.127 207.799 73.0056 207.276 73.0056C206.754 73.0056 206.282 73.127 205.862 73.3696C205.452 73.603 205.125 73.939 204.882 74.3776C204.649 74.8163 204.532 75.3156 204.532 75.8756C204.532 76.4356 204.649 76.935 204.882 77.3736C205.125 77.8123 205.452 78.153 205.862 78.3956C206.282 78.629 206.754 78.7456 207.276 78.7456ZM219.333 76.2816H217.737V79.5576H216.743V76.2816H215.147L212.893 79.5576H211.703L214.349 75.7636L211.913 72.1936H212.991L215.147 75.4276H216.743V72.1936H217.737V75.4276H219.333L221.503 72.1936H222.581L220.145 75.7776L222.791 79.5576H221.601L219.333 76.2816ZM230.625 76.1836H224.465C224.521 76.949 224.815 77.5696 225.347 78.0456C225.879 78.5123 226.551 78.7456 227.363 78.7456C227.821 78.7456 228.241 78.6663 228.623 78.5076C229.006 78.3396 229.337 78.097 229.617 77.7796L230.177 78.4236C229.851 78.8156 229.44 79.1143 228.945 79.3196C228.46 79.525 227.923 79.6276 227.335 79.6276C226.579 79.6276 225.907 79.469 225.319 79.1516C224.741 78.825 224.288 78.377 223.961 77.8076C223.635 77.2383 223.471 76.5943 223.471 75.8756C223.471 75.157 223.625 74.513 223.933 73.9436C224.251 73.3743 224.68 72.931 225.221 72.6136C225.772 72.2963 226.388 72.1376 227.069 72.1376C227.751 72.1376 228.362 72.2963 228.903 72.6136C229.445 72.931 229.869 73.3743 230.177 73.9436C230.485 74.5036 230.639 75.1476 230.639 75.8756L230.625 76.1836ZM227.069 72.9916C226.36 72.9916 225.763 73.2203 225.277 73.6776C224.801 74.1256 224.531 74.7136 224.465 75.4416H229.687C229.622 74.7136 229.347 74.1256 228.861 73.6776C228.385 73.2203 227.788 72.9916 227.069 72.9916ZM232.84 72.1936H233.834V75.4556H238.468V72.1936H239.462V79.5576H238.468V76.3096H233.834V79.5576H232.84V72.1936ZM242.287 72.1936H243.281V78.0456L248.195 72.1936H249.077V79.5576H248.083V73.7056L243.183 79.5576H242.287V72.1936ZM257.582 72.1936V79.5576H256.672V77.1216H254.362H254.082L252.374 79.5576H251.296L253.13 76.9816C252.56 76.823 252.122 76.5523 251.814 76.1696C251.506 75.787 251.352 75.3016 251.352 74.7136C251.352 73.8923 251.632 73.267 252.192 72.8376C252.752 72.4083 253.517 72.1936 254.488 72.1936H257.582ZM252.36 74.7416C252.36 75.8336 253.055 76.3796 254.446 76.3796H256.672V73.0756H254.516C253.078 73.0756 252.36 73.631 252.36 74.7416Z" fill="#1F2041" fill-opacity="0.75"/>
<defs>
<linearGradient id="paint0_linear" x1="30" y1="35.5576" x2="30" y2="47.5576" gradientUnits="userSpaceOnUse">
<stop stop-color="#BC9CFF"/>
<stop offset="1" stop-color="#8BA4F9"/>
</linearGradient>
</defs>
</svg>
