<svg width="320" height="67" viewBox="0 0 320 67" fill="none" xmlns="http://www.w3.org/2000/svg">
<path d="M264.866 3.6H268.286C269.174 3.6 269.958 3.78 270.638 4.14C271.318 4.492 271.846 4.988 272.222 5.628C272.598 6.26 272.786 6.984 272.786 7.8C272.786 8.616 272.598 9.344 272.222 9.984C271.846 10.616 271.318 11.112 270.638 11.472C269.958 11.824 269.174 12 268.286 12H264.866V3.6ZM268.238 11.232C268.974 11.232 269.618 11.088 270.17 10.8C270.722 10.504 271.15 10.1 271.454 9.588C271.758 9.068 271.91 8.472 271.91 7.8C271.91 7.128 271.758 6.536 271.454 6.024C271.15 5.504 270.722 5.1 270.17 4.812C269.618 4.516 268.974 4.368 268.238 4.368H265.754V11.232H268.238ZM280.72 11.232V12H274.78V3.6H280.54V4.368H275.668V7.356H280.012V8.112H275.668V11.232H280.72ZM283.695 4.368V7.668H288.039V8.436H283.695V12H282.807V3.6H288.567V4.368H283.695ZM295.271 9.756H290.591L289.583 12H288.659L292.499 3.6H293.375L297.215 12H296.279L295.271 9.756ZM294.947 9.036L292.931 4.524L290.915 9.036H294.947ZM301.813 12.072C300.725 12.072 299.877 11.76 299.269 11.136C298.661 10.512 298.357 9.604 298.357 8.412V3.6H299.245V8.376C299.245 9.352 299.465 10.08 299.905 10.56C300.345 11.04 300.981 11.28 301.813 11.28C302.653 11.28 303.293 11.04 303.733 10.56C304.173 10.08 304.393 9.352 304.393 8.376V3.6H305.257V8.412C305.257 9.604 304.953 10.512 304.345 11.136C303.745 11.76 302.901 12.072 301.813 12.072ZM307.932 3.6H308.82V11.232H313.524V12H307.932V3.6ZM315.846 4.368H312.894V3.6H319.686V4.368H316.734V12H315.846V4.368Z" fill="#1F2041" fill-opacity="0.5"/>
<path d="M0 27C0 24.7909 1.79086 23 4 23H316C318.209 23 320 24.7909 320 27V63C320 65.2091 318.209 67 316 67H4C1.79086 67 0 65.2091 0 63V27Z" fill="white"/>
<path d="M0.5 27C0.5 25.067 2.067 23.5 4 23.5H316C317.933 23.5 319.5 25.067 319.5 27V63C319.5 64.933 317.933 66.5 316 66.5H4C2.067 66.5 0.5 64.933 0.5 63V27Z" stroke="#1F2041" stroke-opacity="0.25"/>
<path d="M23.526 49.104V50H16.596V40.2H23.316V41.096H17.632V44.582H22.7V45.464H17.632V49.104H23.526ZM34.9352 42.58C35.8592 42.58 36.5826 42.846 37.1052 43.378C37.6372 43.91 37.9032 44.694 37.9032 45.73V50H36.9092V45.828C36.9092 45.0627 36.7226 44.4793 36.3492 44.078C35.9852 43.6767 35.4672 43.476 34.7952 43.476C34.0299 43.476 33.4279 43.714 32.9892 44.19C32.5506 44.6567 32.3312 45.3053 32.3312 46.136V50H31.3372V45.828C31.3372 45.0627 31.1506 44.4793 30.7772 44.078C30.4132 43.6767 29.8906 43.476 29.2092 43.476C28.4532 43.476 27.8512 43.714 27.4032 44.19C26.9646 44.6567 26.7452 45.3053 26.7452 46.136V50H25.7512V42.636H26.7032V43.98C26.9646 43.532 27.3286 43.1867 27.7952 42.944C28.2619 42.7013 28.7986 42.58 29.4052 42.58C30.0212 42.58 30.5532 42.7107 31.0012 42.972C31.4586 43.2333 31.7992 43.6207 32.0232 44.134C32.2939 43.6487 32.6812 43.2707 33.1852 43C33.6986 42.72 34.2819 42.58 34.9352 42.58ZM43.1749 42.58C44.1362 42.58 44.8736 42.8227 45.3869 43.308C45.9002 43.784 46.1569 44.4933 46.1569 45.436V50H45.2049V48.852C44.9809 49.2347 44.6496 49.5333 44.2109 49.748C43.7816 49.9627 43.2682 50.07 42.6709 50.07C41.8496 50.07 41.1962 49.874 40.7109 49.482C40.2256 49.09 39.9829 48.572 39.9829 47.928C39.9829 47.3027 40.2069 46.7987 40.6549 46.416C41.1122 46.0333 41.8356 45.842 42.8249 45.842H45.1629V45.394C45.1629 44.7593 44.9856 44.2787 44.6309 43.952C44.2762 43.616 43.7582 43.448 43.0769 43.448C42.6102 43.448 42.1622 43.5273 41.7329 43.686C41.3036 43.8353 40.9349 44.0453 40.6269 44.316L40.1789 43.574C40.5522 43.2567 41.0002 43.014 41.5229 42.846C42.0456 42.6687 42.5962 42.58 43.1749 42.58ZM42.8249 49.286C43.3849 49.286 43.8656 49.16 44.2669 48.908C44.6682 48.6467 44.9669 48.2733 45.1629 47.788V46.584H42.8529C41.5929 46.584 40.9629 47.0227 40.9629 47.9C40.9629 48.3293 41.1262 48.67 41.4529 48.922C41.7796 49.1647 42.2369 49.286 42.8249 49.286ZM48.8567 42.636H49.8507V50H48.8567V42.636ZM49.3607 41.026C49.1554 41.026 48.9827 40.956 48.8427 40.816C48.7027 40.676 48.6327 40.508 48.6327 40.312C48.6327 40.1253 48.7027 39.962 48.8427 39.822C48.9827 39.682 49.1554 39.612 49.3607 39.612C49.566 39.612 49.7387 39.682 49.8787 39.822C50.0187 39.9527 50.0887 40.1113 50.0887 40.298C50.0887 40.5033 50.0187 40.676 49.8787 40.816C49.7387 40.956 49.566 41.026 49.3607 41.026ZM52.6165 39.612H53.6105V50H52.6165V39.612Z" fill="#1F2041" fill-opacity="0.25"/>
<path d="M2.736 8.184H0.048V6.6H7.368V8.184H4.68V15H2.736V8.184ZM14.918 13.44V15H8.41397V6.6H14.762V8.16H10.346V9.984H14.246V11.496H10.346V13.44H14.918ZM21.6747 15L19.6467 12.084L17.6547 15H15.4227L18.5307 10.728L15.5787 6.6H17.7867L19.7187 9.324L21.6147 6.6H23.7147L20.7867 10.656L23.9187 15H21.6747ZM26.3258 8.184H23.6378V6.6H30.9578V8.184H28.2698V15H26.3258V8.184ZM37.3463 8.16V10.38H41.2343V11.94H37.3463V15H35.4023V6.6H41.7503V8.16H37.3463ZM43.0663 6.6H45.0103V15H43.0663V6.6ZM53.5078 13.44V15H47.0038V6.6H53.3518V8.16H48.9358V9.984H52.8358V11.496H48.9358V13.44H53.5078ZM55.0546 6.6H56.9986V13.416H61.2106V15H55.0546V6.6ZM62.2968 6.6H66.1128C67.0248 6.6 67.8288 6.776 68.5248 7.128C69.2288 7.472 69.7728 7.96 70.1568 8.592C70.5488 9.224 70.7448 9.96 70.7448 10.8C70.7448 11.64 70.5488 12.376 70.1568 13.008C69.7728 13.64 69.2288 14.132 68.5248 14.484C67.8288 14.828 67.0248 15 66.1128 15H62.2968V6.6ZM66.0168 13.404C66.8568 13.404 67.5248 13.172 68.0208 12.708C68.5248 12.236 68.7768 11.6 68.7768 10.8C68.7768 10 68.5248 9.368 68.0208 8.904C67.5248 8.432 66.8568 8.196 66.0168 8.196H64.2408V13.404H66.0168Z" fill="#1F2041"/>
</svg>
